<svg xmlns="http://www.w3.org/2000/svg" xmlns:xlink="http://www.w3.org/1999/xlink" width="406.433" height="334.88" viewBox="0 0 406.433 334.88">
  <defs>
    <filter id="Path_1665" x="0" y="5.88" width="188.866" height="212.145" filterUnits="userSpaceOnUse">
      <feOffset dy="3" input="SourceAlpha"/>
      <feGaussianBlur stdDeviation="3" result="blur"/>
      <feFlood flood-opacity="0.161"/>
      <feComposite operator="in" in2="blur"/>
      <feComposite in="SourceGraphic"/>
    </filter>
  </defs>
  <g id="Service-btn" transform="translate(9)">
    <g id="Group_531" data-name="Group 531" transform="translate(-129.567 -1627.12)">
      <g transform="matrix(1, 0, 0, 1, 120.57, 1627.12)" filter="url(#Path_1665)" style="mix-blend-mode: multiply;isolation: isolate">
        <path id="Path_1665-2" data-name="Path 1665" d="M40.021,157.817A85.443,85.443,0,1,1,166.259,57.658a86.206,86.206,0,0,1-.446,56.871c-33.755,96.125-40.032,98.285-125.792,43.288" transform="translate(9 11.88)" fill="#23bde1"/>
      </g>
      <text id="Medical_Neurological_Care_" data-name="Medical &amp; Neurological Care " transform="translate(217 1729.22)" fill="#2e2e2e" font-size="38" font-family="PTSerif-Regular, PT Serif"><tspan x="0" y="39">Medical &amp; </tspan><tspan x="0" y="95">Neurological Care </tspan></text>
      <g id="Medical-and-Neurological-Care_" data-name="Medical-and-Neurological-Care " transform="translate(196 1617.52)">
        <g id="Group_528" data-name="Group 528">
          <path id="Path_1666" data-name="Path 1666" d="M86.5,50.8a18.692,18.692,0,0,0-8.2-15.5v-1A13.687,13.687,0,0,0,65.1,20.6a10.949,10.949,0,0,0-21.8-.5h-.1a10.66,10.66,0,0,0-21.3.7V21h-.6A12.4,12.4,0,0,0,8.9,33.4,6.6,6.6,0,0,0,9,34.8,18.515,18.515,0,0,0,.7,50.3a18.29,18.29,0,0,0,9.3,16,10.55,10.55,0,0,0-.4,3.1A12.291,12.291,0,0,0,21.9,81.7h.2a10.834,10.834,0,0,0,10.5,8.1A10.955,10.955,0,0,0,43.5,80a10.8,10.8,0,0,0,21.1,1.8h.3A12.867,12.867,0,0,0,77.8,68.9a14.919,14.919,0,0,0-.2-2.1A19.114,19.114,0,0,0,86.5,50.8Z" fill="#edf8ea"/>
        </g>
        <g id="Group_530" data-name="Group 530">
          <g id="Group_529" data-name="Group 529">
            <path id="Path_1667" data-name="Path 1667" d="M86.5,56.2a18.128,18.128,0,0,0,.7-5.2h0v-.1a20.129,20.129,0,0,0-8-16v-.2A14.917,14.917,0,0,0,66.1,19.9,12.172,12.172,0,0,0,43.5,16,11.979,11.979,0,0,0,21,20.2h-.1A13.653,13.653,0,0,0,8.2,33.8v.6A19.441,19.441,0,0,0,0,50.3,9.7,9.7,0,0,0,.1,52a1.7,1.7,0,0,0,.1.7v.4a19.424,19.424,0,0,0,.7,3.3c0,.1,0,.1.1.2l.3.9a19.963,19.963,0,0,0,7.6,9.4,19.525,19.525,0,0,0-.2,2.3A13.492,13.492,0,0,0,21.4,82.7a12.366,12.366,0,0,0,11.5,8,12.163,12.163,0,0,0,10.7-6.3,11.983,11.983,0,0,0,10.5,6.1,12.174,12.174,0,0,0,11.3-7.7A14.258,14.258,0,0,0,78.9,68.6a5.7,5.7,0,0,0-.1-1.3A20.527,20.527,0,0,0,86.5,56.2ZM32.8,89.1a10.763,10.763,0,0,1-10.1-7l3.6-4.5a7.791,7.791,0,0,0,4.3,1.3,11.019,11.019,0,0,0,1.8-.2.765.765,0,0,0-.3-1.5,7.719,7.719,0,0,1-1.5.2c-3.1,0-5.6-2.2-5.6-4.9a4.645,4.645,0,0,1,.6-2.3.738.738,0,1,0-1.3-.7,5.792,5.792,0,0,0,.8,7.2l-3.6,4.6a12.128,12.128,0,0,1-11.4-12,12.31,12.31,0,0,1,.2-2A16.769,16.769,0,0,0,16.2,69h.1a.684.684,0,0,0,.7-.7.709.709,0,0,0-.7-.8A17.336,17.336,0,0,1,2.5,56.9c0-.1-.1-.1-.1-.2l-.3-.9a12.213,12.213,0,0,1-.6-2.6c0-.2-.1-.3-.1-.5s-.1-.5-.1-.7c0-.4-.1-.9-.1-1.3h0v-.2A18.2,18.2,0,0,1,7.9,36.4l3.8,3.2A5.667,5.667,0,0,0,11,44a5.094,5.094,0,0,0,.7,1.7.822.822,0,0,0,.6.4.6.6,0,0,0,.4-.1.714.714,0,0,0,.3-1,5.023,5.023,0,0,1-.5-1.3,4.279,4.279,0,0,1,.7-3.5c.1,0,.2-.1.3-.2a.367.367,0,0,0,.1-.3,4.385,4.385,0,0,1,4.5-1.2.728.728,0,0,0,.4-1.4,6.1,6.1,0,0,0-3-.1,6.384,6.384,0,0,0-2.9,1.6l-3.5-3c.1-.1.2-.1.3-.2,0-.4-.1-.9-.1-1.3A12.117,12.117,0,0,1,20.5,22l4,3.4A6.059,6.059,0,0,0,23,29.8a5.84,5.84,0,0,0,.4,1.8.752.752,0,0,0,.7.5h.3a.7.7,0,0,0,.4-1,3.079,3.079,0,0,1-.3-1.3A4.629,4.629,0,0,1,28.7,25a5.382,5.382,0,0,1,2.2.4.762.762,0,0,0,.6-1.4A2.772,2.772,0,0,0,29,23a5.6,5.6,0,0,0-2.9,1l-3.6-3A10.486,10.486,0,0,1,43,18.3v13c-1.6-1.8-4.4-2.8-8.2-2.8a.7.7,0,0,0,0,1.4c3.3,0,5.7.8,7.1,2.2a5.074,5.074,0,0,1,1.2,2.7v47A10.935,10.935,0,0,1,32.8,89.1Zm31.8-7.8h-.3a10.611,10.611,0,0,1-19.9,1.4V79a9.709,9.709,0,0,1,9.7-9.7.7.7,0,1,0,0-1.4,11.065,11.065,0,0,0-9.7,5.7V42.1c0-.3.4-5.4,8.9-5.4a.7.7,0,1,0,0-1.4c-4.9,0-7.5,1.6-8.9,3.3V17.4a10.624,10.624,0,0,1,9.7-6.2,10.762,10.762,0,0,1,10.6,9.1l-3.6,4.5a7.714,7.714,0,0,0-4.2-1.3,7.173,7.173,0,0,0-2.9.6.762.762,0,1,0,.6,1.4,5.932,5.932,0,0,1,2.3-.5,6.04,6.04,0,0,1,6,6.1.7.7,0,0,0,1.4,0,7.157,7.157,0,0,0-2.2-5.3l3.6-4.5A13.441,13.441,0,0,1,77.6,34.7v.9a18.54,18.54,0,0,1,7.5,20c0,.1,0,.2-.1.2,0,.2-.1.3-.2.5A17.352,17.352,0,0,1,68.3,68.4a.7.7,0,0,0,0,1.4,19.217,19.217,0,0,0,8.9-2.2v.9A12.592,12.592,0,0,1,64.6,81.3Z" fill="#656565"/>
            <path id="Path_1668" data-name="Path 1668" d="M29.9,42.5c-3.8,0-5.6-2.1-5.6-4.1a.7.7,0,1,0-1.4,0,5.5,5.5,0,0,0,3.8,5.1A6.561,6.561,0,0,0,23.6,49,.7.7,0,0,0,25,49a4.9,4.9,0,1,1,9.8,0,3.4,3.4,0,0,1-.1,1,.779.779,0,0,0,.6.9h.1a.661.661,0,0,0,.7-.6,5.7,5.7,0,0,0,.1-1.3A6.383,6.383,0,0,0,29.9,42.5Z" fill="#656565"/>
            <path id="Path_1669" data-name="Path 1669" d="M29.2,58.7a6.355,6.355,0,0,0-5,2.4.711.711,0,0,0,1.1.9,4.736,4.736,0,0,1,3.8-1.9A4.908,4.908,0,0,1,34,65a4.3,4.3,0,0,1-.7,2.5.751.751,0,0,0,.2,1,.6.6,0,0,0,.4.1.548.548,0,0,0,.6-.4,6.294,6.294,0,0,0,.9-3.3A6.1,6.1,0,0,0,29.2,58.7Z" fill="#656565"/>
            <path id="Path_1670" data-name="Path 1670" d="M19.5,58.6c-.3,0-.5.1-.8.1a4.354,4.354,0,0,1-4.3-4.4,4.55,4.55,0,0,1,1.9-3.7.721.721,0,0,0-.8-1.2,5.933,5.933,0,0,0-2.6,4.9,5.826,5.826,0,0,0,5.8,5.9,4.1,4.1,0,0,0,1.1-.1.779.779,0,0,0,.6-.9A.875.875,0,0,0,19.5,58.6Z" fill="#656565"/>
          </g>
          <path id="Path_1671" data-name="Path 1671" d="M65.7,61.4a2.647,2.647,0,0,1-2.6-2.6V43a1.1,1.1,0,0,0-2.2,0V54.2a2.6,2.6,0,0,1-5.2,0V47.4a1.1,1.1,0,0,0-2.2,0V50a.684.684,0,0,1-.7.7H35.4a.7.7,0,1,1,0-1.4H52v-2a2.6,2.6,0,0,1,5.2,0v6.8a1.1,1.1,0,0,0,2.2,0V43a2.6,2.6,0,0,1,5.2,0V58.8a1.1,1.1,0,0,0,2.2,0V40.6a2.6,2.6,0,0,1,5.2,0V54.2a1.1,1.1,0,0,0,2.2,0V46.4a2.6,2.6,0,0,1,5.2,0v2.9H99.2a.7.7,0,0,1,0,1.4H78.8a.684.684,0,0,1-.7-.7V46.3a1.1,1.1,0,0,0-2.2,0v7.8a2.6,2.6,0,0,1-5.2,0V40.6a1.1,1.1,0,0,0-2.2,0V58.8A2.906,2.906,0,0,1,65.7,61.4Z" fill="#f89840"/>
        </g>
      </g>
      <path id="Polygon_1" data-name="Polygon 1" d="M17.5,0,35,31H0Z" transform="translate(447 1927) rotate(90)" fill="#69c54d"/>
      <path id="Polygon_2" data-name="Polygon 2" d="M17.5,0,35,31H0Z" transform="translate(414 1927) rotate(90)" fill="#69c54d"/>
      <path id="Polygon_3" data-name="Polygon 3" d="M17.5,0,35,31H0Z" transform="translate(381 1927) rotate(90)" fill="#69c54d"/>
    </g>
  </g>
</svg>
