<svg xmlns="http://www.w3.org/2000/svg" width="310" height="78.322" viewBox="0 0 310 78.322">
  <g id="logo" transform="translate(2926.673 -178)">
    <g id="icon" transform="translate(-2926.673 178)">
      <path id="Path_2412" data-name="Path 2412" d="M43.44,24.47c-.265-.272-.785.515-.867.429-.182-.188.7-1.431.343-1.59s-.644,1.26-.8,1.18c-.22-.11.249-1.789,0-1.876-.408-.142-.49,1.735-.62,1.781-.332.117.011-1.254-.37-1.3-.277-.035-.172,1.21-.3,1.833-.062.291-.685-.953-.877-.36-.063.2.352.875.421,1.384a3.539,3.539,0,0,1,.022.874,4.811,4.811,0,0,1-.966,2.215,2.937,2.937,0,0,0-.428.744c-.155.224-.3.43-.427.625l-.266-.1a12.293,12.293,0,0,1-1.117,1.825c-.083.085-.214.2-.364.34.189-1.131.127-2.067-.811-2.682-.453-.3-1.016-1.385-1.361-1.622a2.8,2.8,0,0,0-.289-.179,1.713,1.713,0,0,0,.078-.42c.076-1.774-1.934-1.615-1.934-1.615.606.3.7.693.217.89a5.51,5.51,0,0,0-3.228,2.734,3.649,3.649,0,0,0-.516,2.185.815.815,0,0,1-.632-.521s-.311,1.13,1.186,1.307c0,0-.586.305.02,1.249a2.151,2.151,0,0,1,.216-.693,3.76,3.76,0,0,0,1.274,1.232,4.916,4.916,0,0,0,1.939.722,4.14,4.14,0,0,0,.875.135c-.025.022-.047.045-.07.067a5.179,5.179,0,0,0-1.926,1.856s-.7,1.481-1,2.366c0,0,.059.066.157.173-.027.075-.051.146-.075.213a2.529,2.529,0,0,0-.4,1.164,4.819,4.819,0,0,1-.859,2.26,3.537,3.537,0,0,1-.627.609c-.4.316-1.175.512-1.267.7-.277.558,1.038.1.878.356-.341.537-1.286,1.355-1.064,1.522.307.231,1.02-.989,1.175-.673.061.123-1.191,1.522-.8,1.707.236.111,1.075-1.42,1.308-1.344.169.054-.611,1.273-.25,1.406s.6-1.369.866-1.378c.119,0-.06.924.32.913.11,0,.139-.284.2-1.068.056-.694.311-.789.4-1.63a2.043,2.043,0,0,1,.285-.487l.1-.12a10.108,10.108,0,0,0,1.349-2.181c.03-.038.061-.083.094-.13.05-.072.1-.143.145-.211a1.18,1.18,0,0,0,.327.147s.638-1.394,1.25-.794c.09.13.172.292.266.456A4.063,4.063,0,0,1,35,43.683a6.193,6.193,0,0,1-.558,1.409,2.443,2.443,0,0,0-.1,2.566,10.959,10.959,0,0,1-.781,3.09,4.807,4.807,0,0,0-.633,2.226s.057.05.157.127a6.6,6.6,0,0,1-.55,1.769,9.853,9.853,0,0,1-.8,1.035c-.565.7-.26,1.191.265,1.271a1.965,1.965,0,0,1,.645.262c.868.567,2.154.865,2.308.5.2-.469-.474-.873-1.032-1.4-.8-.766.113-1.689.7-2.694a1.814,1.814,0,0,0,.608.011c.489-.081,1.079-2.475,1.079-2.475l-.158,1.33s.135.068.344.166a7.617,7.617,0,0,1,.238,1.979,9.917,9.917,0,0,1-.315,1.273c-.233.869.246,1.194.757,1.054a2.724,2.724,0,0,1,.7-.022c1.16.063,2.32-.082,2.314-.479-.01-.509-.788-.606-1.512-.864-.926-.331-.668-1.321-.5-2.348a.927.927,0,0,0,.7-.058s.508-2.791.937-4.468c.166-.648.279-1.143.347-1.51a11.868,11.868,0,0,0,.766-1.829h0c.708-2.011-.08-4.2-1.136-6.444a6.284,6.284,0,0,1-.547-2.2v0A7.429,7.429,0,0,1,40.289,33.1a4.622,4.622,0,0,0,.915-1.9l-.307-.324a9.079,9.079,0,0,0,.939-3.354c.005-.052.01-.1.014-.151a2.034,2.034,0,0,1,.137-.548c.521-.667.4-.912.85-1.449.5-.6.679-.826.6-.9" transform="translate(1.878 1.656)" fill="#2e2c6e"/>
      <path id="Path_2413" data-name="Path 2413" d="M48.559,30.476l-.368-.053-.164-.333-.164.333-.368.053.267.26L47.7,31.1l.329-.173.329.173-.062-.366Z" transform="translate(3.235 2.135)" fill="#69c54d"/>
      <path id="Path_2414" data-name="Path 2414" d="M28.951,39.714l-.164-.333-.164.333-.368.053.266.26-.062.367.329-.174.329.174-.063-.367.267-.26Z" transform="translate(1.924 2.794)" fill="#f89840"/>
      <path id="Path_2415" data-name="Path 2415" d="M46.572,25.251l.294-.155.295.155-.057-.328.238-.232-.329-.048-.147-.3-.146.3-.329.048.238.232Z" transform="translate(3.16 1.727)" fill="#6d469f"/>
      <path id="Path_2416" data-name="Path 2416" d="M42.685,35.408l-.2-.4-.2.4-.445.065.323.314-.076.444.4-.209.4.209-.077-.444.324-.314Z" transform="translate(2.85 2.483)" fill="#04b2d9"/>
      <path id="Path_2417" data-name="Path 2417" d="M26.534,33.1l-.33.669-.738.108L26,34.4l-.126.735.66-.347.66.347-.126-.735.534-.52-.738-.108Z" transform="translate(1.735 2.35)" fill="#69c54d"/>
      <path id="Path_2418" data-name="Path 2418" d="M47.68,41.479l-.33-.669-.33.669-.738.107.534.521-.126.735.66-.347.66.347-.126-.735.534-.521Z" transform="translate(3.152 2.897)" fill="#6d469f"/>
      <path id="Path_2419" data-name="Path 2419" d="M36.467,21.2l-.492-1-.492,1-1.1.16.8.777-.188,1.1.986-.518.985.518-.188-1.1.8-.777Z" transform="translate(2.341 1.434)" fill="#f89840"/>
      <path id="Path_2420" data-name="Path 2420" d="M41.106,18.8l.615-.6-.85-.124-.38-.77-.381.77-.85.124.615.6-.145.847.762-.4.76.4Z" transform="translate(2.674 1.228)" fill="#69c54d"/>
      <path id="Path_2421" data-name="Path 2421" d="M25.918,23.647l-.3-.609-.3.609-.672.1.486.474-.114.67.6-.316.6.316-.114-.67.486-.474Z" transform="translate(1.679 1.635)" fill="#6d469f"/>
      <path id="Path_2422" data-name="Path 2422" d="M39.81,8.877A3.047,3.047,0,1,1,36.762,5.83,3.047,3.047,0,0,1,39.81,8.877" transform="translate(2.296 0.397)" fill="#6d469f" fill-rule="evenodd"/>
      <path id="Path_2423" data-name="Path 2423" d="M37.309,4.1a5.383,5.383,0,0,0-4.078,1.935,6.639,6.639,0,0,0-.976,1.5c-.34.707-1.759,2.828-6.561,2.826a11.692,11.692,0,0,1,23.231,0c-4.8,0-6.222-2.119-6.561-2.826a6.639,6.639,0,0,0-.976-1.5A5.383,5.383,0,0,0,37.309,4.1" transform="translate(1.75)" fill="#6d469f" fill-rule="evenodd"/>
      <path id="Path_2424" data-name="Path 2424" d="M58.636,19.2a3.048,3.048,0,1,1,0-4.31,3.048,3.048,0,0,1,0,4.31" transform="translate(3.639 0.996)" fill="#f89840" fill-rule="evenodd"/>
      <path id="Path_2425" data-name="Path 2425" d="M60.516,13.828a5.383,5.383,0,0,0-4.252-1.516,6.663,6.663,0,0,0-1.747.367c-.74.26-3.244.756-6.638-2.641A11.692,11.692,0,0,1,64.306,26.466c-3.4-3.394-2.9-5.9-2.641-6.638a6.663,6.663,0,0,0,.367-1.747,5.383,5.383,0,0,0-1.516-4.252" transform="translate(3.261 0.513)" fill="#f89840" fill-rule="evenodd"/>
      <path id="Path_2426" data-name="Path 2426" d="M64.648,39.81A3.047,3.047,0,1,1,67.7,36.762a3.047,3.047,0,0,1-3.047,3.047" transform="translate(4.196 2.399)" fill="#69c54d" fill-rule="evenodd"/>
      <path id="Path_2427" data-name="Path 2427" d="M69.695,37.309a5.383,5.383,0,0,0-1.935-4.078,6.639,6.639,0,0,0-1.5-.976c-.707-.34-2.828-1.759-2.826-6.561a11.692,11.692,0,0,1,0,23.231c0-4.8,2.119-6.222,2.826-6.561a6.639,6.639,0,0,0,1.5-.976,5.383,5.383,0,0,0,1.935-4.078" transform="translate(4.321 1.852)" fill="#69c54d" fill-rule="evenodd"/>
      <path id="Path_2428" data-name="Path 2428" d="M54.326,58.636a3.048,3.048,0,1,1,4.31,0,3.048,3.048,0,0,1-4.31,0" transform="translate(3.639 3.801)" fill="#04b2d9" fill-rule="evenodd"/>
      <path id="Path_2429" data-name="Path 2429" d="M60.516,60.516a5.383,5.383,0,0,0,1.516-4.252,6.663,6.663,0,0,0-.367-1.747c-.26-.74-.756-3.244,2.641-6.638A11.692,11.692,0,0,1,47.878,64.306c3.394-3.4,5.9-2.9,6.638-2.641a6.663,6.663,0,0,0,1.747.367,5.383,5.383,0,0,0,4.252-1.516" transform="translate(3.261 3.465)" fill="#04b2d9" fill-rule="evenodd"/>
      <path id="Path_2430" data-name="Path 2430" d="M33.715,64.648A3.047,3.047,0,1,1,36.762,67.7a3.047,3.047,0,0,1-3.047-3.047" transform="translate(2.296 4.4)" fill="#6d469f" fill-rule="evenodd"/>
      <path id="Path_2431" data-name="Path 2431" d="M37.309,69.695a5.383,5.383,0,0,0,4.078-1.935,6.639,6.639,0,0,0,.976-1.5c.34-.707,1.759-2.828,6.561-2.826a11.692,11.692,0,0,1-23.231,0c4.8,0,6.222,2.119,6.561,2.826a6.639,6.639,0,0,0,.976,1.5,5.383,5.383,0,0,0,4.078,1.935" transform="translate(1.75 4.525)" fill="#6d469f" fill-rule="evenodd"/>
      <path id="Path_2432" data-name="Path 2432" d="M14.89,54.326a3.048,3.048,0,1,1,0,4.31,3.048,3.048,0,0,1,0-4.31" transform="translate(0.953 3.801)" fill="#f89840" fill-rule="evenodd"/>
      <path id="Path_2433" data-name="Path 2433" d="M13.828,60.516a5.383,5.383,0,0,0,4.252,1.516,6.663,6.663,0,0,0,1.747-.367c.74-.26,3.244-.756,6.638,2.641A11.692,11.692,0,0,1,10.038,47.878c3.4,3.394,2.9,5.9,2.641,6.638a6.663,6.663,0,0,0-.367,1.747,5.383,5.383,0,0,0,1.516,4.252" transform="translate(0.513 3.465)" fill="#f89840" fill-rule="evenodd"/>
      <path id="Path_2434" data-name="Path 2434" d="M8.877,33.715A3.047,3.047,0,1,1,5.83,36.762a3.047,3.047,0,0,1,3.047-3.047" transform="translate(0.397 2.399)" fill="#69c54d" fill-rule="evenodd"/>
      <path id="Path_2435" data-name="Path 2435" d="M4.1,37.309a5.383,5.383,0,0,0,1.935,4.078,6.639,6.639,0,0,0,1.5.976c.707.34,2.828,1.759,2.826,6.561a11.692,11.692,0,0,1,0-23.231c0,4.8-2.119,6.222-2.826,6.561a6.639,6.639,0,0,0-1.5.976A5.383,5.383,0,0,0,4.1,37.309" transform="translate(0 1.852)" fill="#69c54d" fill-rule="evenodd"/>
      <path id="Path_2436" data-name="Path 2436" d="M19.2,14.89a3.048,3.048,0,1,1-4.31,0,3.048,3.048,0,0,1,4.31,0" transform="translate(0.953 0.996)" fill="#04b2d9" fill-rule="evenodd"/>
      <path id="Path_2437" data-name="Path 2437" d="M13.828,13.828a5.383,5.383,0,0,0-1.516,4.252,6.663,6.663,0,0,0,.367,1.747c.26.74.756,3.244-2.641,6.638A11.692,11.692,0,0,1,26.466,10.038c-3.394,3.4-5.9,2.9-6.638,2.641a6.663,6.663,0,0,0-1.747-.367,5.383,5.383,0,0,0-4.252,1.516" transform="translate(0.513 0.513)" fill="#04b2d9" fill-rule="evenodd"/>
    </g>
    <g id="name" transform="translate(-2835.212 197.808)">
      <path id="Path_2438" data-name="Path 2438" d="M84.871,40.866l3.917-6.533L89.9,32.467l1.067-1.733,1.557-2.621,1.515-2.533,1.824-3.11,1.6-2.623,1.114-1.911,1.245-2.044,1.379-2.266L102.852,11h.445l1.782,2.719,2.758,4.231,5.386,8.244L117.5,32.79l2.225,3.386,2.8,4.232-8.813,5.212-3.961-6.932-13.486.8L95.6,40.866l-.713,1.466-.8,1.734-.712,1.554Zm14.243-8.008,7.567-.445-3.74-7.477-.8,1.6-.8,1.647-.978,2Z" transform="translate(-84.871 -6.436)" fill="#2e2c6e"/>
      <path id="Path_2439" data-name="Path 2439" d="M139.435,33.844a4.852,4.852,0,0,1-.29,1.714,7.551,7.551,0,0,1-.866,1.625,9.164,9.164,0,0,1-2.449,2.359c-.3.208-.862.549-1.69,1.024q-.935.533-1.8.978a14.253,14.253,0,0,1-2.337.89,32.809,32.809,0,0,1-3.338.8,44.07,44.07,0,0,1-6.632.623h-6.276l.178-12.312-.044-9.512-.134-10.044h3.828l6.009.133a25.241,25.241,0,0,1,2.848.134q1.29.223,2.159.355t1.936.4a18.556,18.556,0,0,1,1.913.578,10.039,10.039,0,0,1,4.341,2.67,6.481,6.481,0,0,1,1.223,4.185,4.314,4.314,0,0,1-1.247,2.87,12.057,12.057,0,0,1-2.425,2.159,8.537,8.537,0,0,1-1.892.98v.267a11.3,11.3,0,0,1,2.85.956,8.361,8.361,0,0,1,2.848,2.293,5.867,5.867,0,0,1,1.291,3.871m-16.2-16.867v8.457a5.164,5.164,0,0,0,2-.535,7.282,7.282,0,0,0,2.181-1.692,4.637,4.637,0,0,0,.89-2.758q0-3.472-5.073-3.472m0,12.684v8.723a7.182,7.182,0,0,0,3.472-.89,5.824,5.824,0,0,0,2.048-1.824,2.909,2.909,0,0,0,.712-1.826,3.322,3.322,0,0,0-.579-1.824,4.318,4.318,0,0,0-1.848-1.6,8.046,8.046,0,0,0-3.8-.757" transform="translate(-68.177 -5.865)" fill="#2e2c6e"/>
      <path id="Path_2440" data-name="Path 2440" d="M136.515,11.992h10.371l-.134,6.355-.133,8.4.133,9.467.134,7.379H136.515L136.6,29.37Z" transform="translate(-55.019 -5.865)" fill="#2e2c6e"/>
      <path id="Path_2441" data-name="Path 2441" d="M161.4,11.992l-.178,7.675-.044,2.973v6.086l-.044,7.166q2.27,0,5.608-.066t4.406-.068v8.28l-3.472-.088-5.831-.153-6.809-.2h-4.051l.044-3.2.044-3.689.044-8.311-.133-16.4Z" transform="translate(-46.656 -5.865)" fill="#2e2c6e"/>
      <path id="Path_2442" data-name="Path 2442" d="M169.714,11.992h10.371l-.134,6.355-.132,8.4.132,9.467.134,7.379H169.714L169.8,29.37Z" transform="translate(-35.831 -5.865)" fill="#2e2c6e"/>
      <path id="Path_2443" data-name="Path 2443" d="M181.25,12.076l3.338.134,4.273.133h16.781l1.423-.066,3.828-.2v7.745l-4.5-.134-5.342-.134.046,3.517.044,3.2.044,5.384.044,4.586v7.3H191V31.794l.044-4.452.044-7.789-9.836.268Z" transform="translate(-29.163 -5.816)" fill="#2e2c6e"/>
      <path id="Path_2444" data-name="Path 2444" d="M219.2,23.619a14.459,14.459,0,0,1,.936-2.269,13.345,13.345,0,0,1,1.333-2.048,16.2,16.2,0,0,1,3.295-3.6,22.777,22.777,0,0,1,3.917-2.672,14.563,14.563,0,0,1,3.828-1.513l2.8,9.214a16.186,16.186,0,0,0-6.877,3.4,13.665,13.665,0,0,0-3.895,6.077l-.268.712-.133.445-.312,1.247-.178,1.245q0,.625-.043,1.87t-.046,1.868l.134,2.938.133,3.339h-10.5l.088-1.291.046-1.247.133-2.449V37.1a23.106,23.106,0,0,0-.712-6.721,14.012,14.012,0,0,0-3.784-6.276,16.851,16.851,0,0,0-6.408-3.382l3.516-9.214a20.858,20.858,0,0,1,6.031,2.8,15.069,15.069,0,0,1,3.716,3.516,14.784,14.784,0,0,1,2,3.427l.934,2.359Z" transform="translate(-16.772 -6.142)" fill="#2e2c6e"/>
      <path id="Path_2445" data-name="Path 2445" d="M211.249,15.259a4.391,4.391,0,1,1,6.836-.009c-3.243,4.111-3.584,4.111-6.836.009" transform="translate(-12.386 -8.109)" fill="#f89840" fill-rule="evenodd"/>
    </g>
  </g>
</svg>
