<?xml version="1.0" encoding="utf-8"?>
<!-- Generator: Adobe Illustrator 27.7.0, SVG Export Plug-In . SVG Version: 6.00 Build 0)  -->
<svg version="1.1" id="Layer_1" xmlns="http://www.w3.org/2000/svg" xmlns:xlink="http://www.w3.org/1999/xlink" x="0px" y="0px"
	 viewBox="0 0 110 60" style="enable-background:new 0 0 110 60;" xml:space="preserve">
<style type="text/css">
	.st0{fill:#0578BE;}
	.st1{fill:#247F3F;}
	.st2{fill:#4C4B46;}
</style>
<g>
	<path class="st0" d="M17.1,26.9v2.7h2.4c0.6,0,1.1-0.5,1.1-1.1v-5c0-0.6-0.5-1.1-1.1-1.1h-5c-0.6,0-1.1,0.5-1.1,1.1v2.4h2.7
		C16.6,25.7,17.1,26.2,17.1,26.9z M8.5,26.9v2.7H6.1C5.5,29.5,5,29,5,28.4v-5c0-0.6,0.5-1.1,1.1-1.1h5.1c0.6,0,1.1,0.5,1.1,1.1v2.4
		H9.7C9,25.7,8.5,26.2,8.5,26.9z"/>
	<path class="st1" d="M8.5,33.1v-2.7H6.1C5.5,30.5,5,31,5,31.6v5.1c0,0.6,0.5,1.1,1.1,1.1h5.1c0.6,0,1.1-0.5,1.1-1.1v-2.4H9.7
		C9,34.3,8.5,33.8,8.5,33.1L8.5,33.1z M17.1,33.1v-2.7h2.4c0.6,0,1.1,0.5,1.1,1.1v5.1c0,0.6-0.5,1.1-1.1,1.1h-5
		c-0.6,0-1.1-0.5-1.1-1.1v-2.4h2.7C16.6,34.3,17.1,33.8,17.1,33.1L17.1,33.1z"/>
	<path class="st2" d="M47.8,34L47.8,34 M30.9,31.6c-0.3,1.8-1.4,2.8-3.2,2.8c-2.4,0-3.5-2.3-3.5-4.4c0-2.2,1.1-4.4,3.5-4.4
		c1.8,0,2.9,1,3.2,2.8l-1.6,0.2c-0.2-0.9-0.6-1.7-1.6-1.7c-1.5,0-1.8,2-1.8,3.1s0.3,3.1,1.8,3.1c1,0,1.4-0.8,1.6-1.7L30.9,31.6
		L30.9,31.6z M31.9,25.7h1.6v8.6h-1.6C31.9,34.3,31.9,25.7,31.9,25.7z M38.3,30.6c0-0.7-0.3-1.4-1-1.4c-0.7,0-1,0.7-1.1,1.4H38.3z
		 M36.1,31.6c0,0.8,0.4,1.6,1.2,1.6c0.5,0,0.9-0.3,1-0.9l1.5,0.2c-0.3,1.2-1.5,1.9-2.7,1.9c-1.8,0-2.7-1.6-2.7-3.2
		c0-1.6,0.9-3.2,2.7-3.2c1.6,0,2.7,0.7,2.7,3.6H36.1L36.1,31.6z M49.9,30.6c0-0.7-0.3-1.4-1.1-1.4c-0.7,0-1,0.7-1.1,1.4H49.9z
		 M47.7,31.6c0,0.8,0.4,1.6,1.2,1.6c0.5,0,0.9-0.3,1-0.9l1.5,0.2c-0.3,1.2-1.5,1.9-2.7,1.9c-1.8,0-2.7-1.6-2.7-3.2
		c0-1.6,0.9-3.2,2.7-3.2c1.6,0,2.7,0.7,2.7,3.6H47.7L47.7,31.6z M44,34.3h-1.7l-1.9-6.2H42l1.1,4.6h0l1.1-4.6h1.6 M52.6,25.7h1.6
		v8.6h-1.6V25.7z M58.8,31.5c-0.7,0.1-2,0.2-2,1.1c0,0.4,0.2,0.7,0.6,0.7c0.7,0,1.1-0.4,1.4-0.8L58.8,31.5L58.8,31.5z M58.9,33.7
		c-0.6,0.4-1,0.7-1.8,0.7c-1.1,0-1.9-0.7-1.9-1.8c0-1.7,2.3-2.1,3.6-2.2c0.1-0.9-0.2-1.2-0.8-1.2c-0.5,0-0.9,0.2-1,0.8l-1.6-0.2
		c0.4-1.3,1.2-1.7,2.5-1.7c1.7,0,2.4,0.8,2.4,2V33c0,0.4,0,0.9,0.2,1.3h-1.6C59,34,58.9,33.7,58.9,33.7L58.9,33.7z M63.4,28.8
		c0.5-0.4,1.2-0.8,1.8-0.8s1.6,0.4,1.6,1.9v4.4h-1.6v-3.7c0-0.5,0-1.3-0.7-1.3c-0.5,0-0.9,0.3-1.2,0.7v4.3h-1.6v-6.2h1.6L63.4,28.8z
		 M83.7,31.6c-0.3,1.8-1.4,2.8-3.2,2.8c-2.4,0-3.5-2.3-3.5-4.4c0-2.2,1.1-4.4,3.5-4.4c1.8,0,2.9,1,3.2,2.8l-1.6,0.2
		c-0.2-0.9-0.6-1.7-1.6-1.7c-1.5,0-1.8,2-1.8,3.1s0.3,3.1,1.8,3.1c1,0,1.4-0.8,1.6-1.7L83.7,31.6L83.7,31.6z M84.7,25.7h1.6v8.6
		h-1.6C84.7,34.3,84.7,25.7,84.7,25.7z M89.3,34.3h-1.6v-6.2h1.6V34.3z M89.3,27.2h-1.6v-1.5h1.6V27.2z M92.3,28.8
		c0.5-0.4,1.2-0.8,1.8-0.8c0.7,0,1.6,0.4,1.6,1.9v4.4h-1.6v-3.7c0-0.5,0-1.3-0.7-1.3c-0.5,0-0.9,0.3-1.2,0.7v4.3h-1.6v-6.2h1.6
		L92.3,28.8L92.3,28.8z M98.7,34.3h-1.6v-6.2h1.6V34.3z M98.7,27.2h-1.6v-1.5h1.6V27.2z M105,32.3c-0.3,1.3-1.2,2.1-2.6,2.1
		c-1.8,0-2.7-1.6-2.7-3.2c0-1.6,0.9-3.2,2.7-3.2c1.4,0,2.3,0.8,2.6,2.1l-1.5,0.2c-0.1-0.5-0.3-1.1-1.1-1.1c-0.9,0-1,1.2-1,2
		c0,0.8,0.1,2,1,2c0.8,0,1-0.6,1.1-1.1L105,32.3L105,32.3z M71.8,32.3c-0.2,0.4-0.6,0.7-1,0.7c-1,0-1.1-1.2-1.1-1.9
		c0-0.7,0.2-1.8,1.1-1.8c0.5,0,0.8,0.3,1.1,0.7L71.8,32.3L71.8,32.3z M73.4,33.2v-7.5h-1.6v3c-0.5-0.4-0.9-0.7-1.5-0.7
		C69.4,28,68,28.8,68,31c0,2.6,1.1,3.4,2.4,3.4c0.7,0,1-0.2,1.5-0.7c0,0,0,0.3,0.2,0.5h1.5C73.4,33.9,73.4,33.6,73.4,33.2L73.4,33.2
		z"/>
</g>
</svg>
