<?xml version="1.0" encoding="utf-8"?>
<!-- Generator: Adobe Illustrator 27.7.0, SVG Export Plug-In . SVG Version: 6.00 Build 0)  -->
<svg version="1.1" id="Layer_1" xmlns="http://www.w3.org/2000/svg" xmlns:xlink="http://www.w3.org/1999/xlink" x="0px" y="0px"
	 viewBox="0 0 110 60" style="enable-background:new 0 0 110 60;" xml:space="preserve">
<style type="text/css">
	.st0{fill:#3F5766;}
	.st1{clip-path:url(#SVGID_00000031899296295523839760000005764986806591320706_);}
	.st2{clip-path:url(#SVGID_00000159454500408341990100000003637257442552198794_);fill:#3F5766;}
	.st3{clip-path:url(#SVGID_00000104678479477648209910000006726583526772084655_);fill:#3F5766;}
	.st4{clip-path:url(#SVGID_00000016759768009457722810000000132268536575206067_);fill:#3F5766;}
	.st5{clip-path:url(#SVGID_00000061436601801383039250000010873055325323582098_);fill:#3F5766;}
	.st6{clip-path:url(#SVGID_00000074400105802002038930000010571704677240055977_);fill:#3F5766;}
	.st7{clip-path:url(#SVGID_00000175285589212342016790000007630212271175032499_);fill:#3F5766;}
	.st8{clip-path:url(#SVGID_00000020363667491012999000000013983297174274818441_);fill:#3F5766;}
	.st9{clip-path:url(#SVGID_00000178915032480084163150000003644265032541175441_);fill:#3F5766;}
	.st10{opacity:0.8;clip-path:url(#SVGID_00000121271594768556433630000007959839927625501573_);}
	.st11{clip-path:url(#SVGID_00000023999764219230643810000009870580877663541178_);fill:#CCDB29;}
	.st12{opacity:0.8;clip-path:url(#SVGID_00000147181868186242169260000017957136901895897531_);}
	.st13{clip-path:url(#SVGID_00000118361585202276920730000007553991336762947770_);fill:#86C440;}
	.st14{opacity:0.7;clip-path:url(#SVGID_00000141427735459717529180000012500986383804282253_);}
	.st15{clip-path:url(#SVGID_00000055679599461002329870000000013044873944381611_);fill:#38AEC2;}
	.st16{opacity:0.8;clip-path:url(#SVGID_00000038409484875578921740000001175615274342354365_);}
	.st17{clip-path:url(#SVGID_00000101068359969169848950000011783697190169223088_);fill:#5AC1AD;}
	.st18{opacity:0.8;clip-path:url(#SVGID_00000063607550138671028840000013853381171778756537_);}
	.st19{clip-path:url(#SVGID_00000177469186350615740400000011556475226814512800_);fill:#17A8C2;}
	.st20{opacity:0.8;clip-path:url(#SVGID_00000012468744969565527150000010159944351277267100_);}
	.st21{clip-path:url(#SVGID_00000121255485950262874460000004907229616452003993_);fill:#25ADBB;}
	.st22{opacity:0.75;clip-path:url(#SVGID_00000109737277157043934440000008005564853306068101_);}
	.st23{opacity:0.8;clip-path:url(#SVGID_00000015355558061429150080000004521673381888056992_);}
	.st24{clip-path:url(#SVGID_00000106141433948792343760000012911677004965085604_);fill:#D4D829;}
	.st25{opacity:0.8;clip-path:url(#SVGID_00000017506117452089041270000012672672936236188304_);}
	.st26{clip-path:url(#SVGID_00000060724278521705224410000004451813390731838142_);fill:#4D7BBD;}
	.st27{opacity:0.8;clip-path:url(#SVGID_00000166675770109205720060000000712194943399994503_);}
	.st28{clip-path:url(#SVGID_00000011723750246393551510000000224566430146533770_);fill:#7B4E9E;}
	.st29{opacity:0.8;clip-path:url(#SVGID_00000089555208175681357610000004347950205631870384_);}
	.st30{opacity:0.8;clip-path:url(#SVGID_00000116946373052803104320000008545720055174185134_);}
	.st31{clip-path:url(#SVGID_00000164497371737349625660000010170282706770383799_);fill:#E88024;}
</style>
<g>
	<g>
		<polygon class="st0" points="101.5,24 101.5,24.3 102,24.3 102,25.8 102.3,25.8 102.3,24.3 102.8,24.3 102.8,24 		"/>
		<polygon class="st0" points="104.5,24 104.1,25.5 103.6,24 103.2,24 103.2,25.8 103.5,25.8 103.5,24.3 104,25.8 104.2,25.8 
			104.7,24.3 104.7,25.8 105,25.8 105,25.8 105,24 		"/>
	</g>
	<g>
		<g>
			<defs>
				<rect id="SVGID_1_" x="5" y="14.1" width="99.9" height="31.7"/>
			</defs>
			<clipPath id="SVGID_00000003825419461971183370000014233100135089761202_">
				<use xlink:href="#SVGID_1_"  style="overflow:visible;"/>
			</clipPath>
			<g style="clip-path:url(#SVGID_00000003825419461971183370000014233100135089761202_);">
				<g>
					<defs>
						<rect id="SVGID_00000062910447078785592810000008808819167319653261_" x="5" y="14.1" width="99.9" height="31.7"/>
					</defs>
					<clipPath id="SVGID_00000098207855867452558830000003294125225492833924_">
						<use xlink:href="#SVGID_00000062910447078785592810000008808819167319653261_"  style="overflow:visible;"/>
					</clipPath>
					<path style="clip-path:url(#SVGID_00000098207855867452558830000003294125225492833924_);fill:#3F5766;" d="M47.7,36.4
						c-1.8,0-3.4-0.6-4.7-1.9c-1.3-1.3-1.9-2.8-1.9-4.7c0-1.8,0.6-3.4,1.9-4.7c1.3-1.3,2.8-1.9,4.7-1.9c1.1,0,2.2,0.2,3.1,0.7
						c0.9,0.5,1.6,1.1,2.1,1.9c0,0.1,0,0.1,0,0.2L51.7,27c-0.1,0-0.1,0-0.2,0c-1-1.3-2.3-2-3.9-2c-1.4,0-2.5,0.5-3.4,1.4
						c-0.9,0.9-1.4,2.1-1.4,3.5c0,1.4,0.5,2.6,1.4,3.5c0.9,0.9,2.1,1.4,3.4,1.4c1.6,0,2.9-0.7,3.9-2c0-0.1,0.1-0.1,0.2,0l1.1,0.9
						c0,0,0.1,0.1,0,0.2c-0.5,0.8-1.2,1.4-2.1,1.9C49.8,36.2,48.8,36.4,47.7,36.4"/>
				</g>
				<g>
					<defs>
						<rect id="SVGID_00000122713739267202374280000016277487138423208356_" x="5" y="14.1" width="99.9" height="31.7"/>
					</defs>
					<clipPath id="SVGID_00000000905477507318510080000001537962224750455437_">
						<use xlink:href="#SVGID_00000122713739267202374280000016277487138423208356_"  style="overflow:visible;"/>
					</clipPath>
					<path style="clip-path:url(#SVGID_00000000905477507318510080000001537962224750455437_);fill:#3F5766;" d="M58.8,36.4
						c-1.4,0-2.5-0.5-3.5-1.4c-0.9-0.9-1.4-2.1-1.4-3.5c0-1.4,0.5-2.5,1.4-3.5c0.9-0.9,2.1-1.4,3.5-1.4c1.4,0,2.5,0.5,3.5,1.4
						c1,0.9,1.4,2.1,1.4,3.5c0,1.4-0.5,2.5-1.4,3.5C61.4,35.9,60.2,36.4,58.8,36.4L58.8,36.4z M58.8,28.2c-0.9,0-1.7,0.3-2.3,1
						c-0.6,0.6-0.9,1.4-0.9,2.4c0,0.9,0.3,1.7,0.9,2.4c0.6,0.6,1.4,0.9,2.3,0.9c0.9,0,1.7-0.3,2.3-0.9c0.6-0.6,0.9-1.4,0.9-2.3
						c0-1-0.3-1.8-0.9-2.4C60.5,28.5,59.7,28.2,58.8,28.2"/>
				</g>
				<g>
					<defs>
						<rect id="SVGID_00000083772038856570733010000017287559499360198026_" x="5" y="14.1" width="99.9" height="31.7"/>
					</defs>
					<clipPath id="SVGID_00000048475999851305036640000003353856205800955300_">
						<use xlink:href="#SVGID_00000083772038856570733010000017287559499360198026_"  style="overflow:visible;"/>
					</clipPath>
					<path style="clip-path:url(#SVGID_00000048475999851305036640000003353856205800955300_);fill:#3F5766;" d="M65.2,36.1v-9.3
						c0-0.1,0.1-0.1,0.1-0.1h1.4c0.1,0,0.1,0.1,0.1,0.1v0.7c0,0.1,0.1,0.2,0.2,0.1c0.7-0.6,1.5-1,2.5-1h0.7c0.1,0,0.1,0.1,0.1,0.1
						l0,1.4c0,0.1-0.1,0.1-0.1,0.1h-0.6c-0.8,0-1.4,0.2-1.9,0.7c-0.5,0.5-0.8,1.1-0.8,1.9v5.2c0,0.1-0.1,0.1-0.1,0.1h-1.5
						C65.3,36.2,65.2,36.2,65.2,36.1"/>
				</g>
				<g>
					<defs>
						<rect id="SVGID_00000147928179817754239090000010808631165834848946_" x="5" y="14.1" width="99.9" height="31.7"/>
					</defs>
					<clipPath id="SVGID_00000129176128760256453380000006004531642694985387_">
						<use xlink:href="#SVGID_00000147928179817754239090000010808631165834848946_"  style="overflow:visible;"/>
					</clipPath>
					<path style="clip-path:url(#SVGID_00000129176128760256453380000006004531642694985387_);fill:#3F5766;" d="M76.5,36.3
						c-1.6,0-2.9-1.3-2.9-2.9v-4.9c0-0.1-0.1-0.1-0.1-0.1h-1.3c-0.1,0-0.1-0.1-0.1-0.1v-1.4c0-0.1,0.1-0.1,0.1-0.1h1.3
						c0.1,0,0.1-0.1,0.1-0.1v-2.2c0-0.1,0.1-0.1,0.1-0.1h1.5c0.1,0,0.1,0.1,0.1,0.1v2.2c0,0.1,0.1,0.1,0.1,0.1H78
						c0.1,0,0.1,0.1,0.1,0.1v1.4c0,0.1-0.1,0.1-0.1,0.1h-2.6c-0.1,0-0.1,0.1-0.1,0.1v4.8c0,0.8,0.7,1.5,1.5,1.5l1.2,0
						c0.1,0,0.1,0.1,0.1,0.1l0,1.3c0,0.1-0.1,0.1-0.1,0.1L76.5,36.3L76.5,36.3z"/>
				</g>
				<g>
					<defs>
						<rect id="SVGID_00000129917761295126281580000004734108895517681078_" x="5" y="14.1" width="99.9" height="31.7"/>
					</defs>
					<clipPath id="SVGID_00000123424846391551384180000000273439607038160259_">
						<use xlink:href="#SVGID_00000129917761295126281580000004734108895517681078_"  style="overflow:visible;"/>
					</clipPath>
					<path style="clip-path:url(#SVGID_00000123424846391551384180000000273439607038160259_);fill:#3F5766;" d="M80.4,36.1v-9.2
						c0-0.1,0.1-0.1,0.1-0.1H82c0.1,0,0.1,0.1,0.1,0.1v9.2c0,0.1-0.1,0.1-0.1,0.1h-1.5C80.5,36.2,80.4,36.2,80.4,36.1"/>
				</g>
				<g>
					<defs>
						<rect id="SVGID_00000016781915222506936590000015451576613699875765_" x="5" y="14.1" width="99.9" height="31.7"/>
					</defs>
					<clipPath id="SVGID_00000073002103536378310640000014503549494625673655_">
						<use xlink:href="#SVGID_00000016781915222506936590000015451576613699875765_"  style="overflow:visible;"/>
					</clipPath>
					<path style="clip-path:url(#SVGID_00000073002103536378310640000014503549494625673655_);fill:#3F5766;" d="M81.3,25.7
						c-0.3,0-0.6-0.1-0.9-0.3c-0.2-0.2-0.4-0.5-0.4-0.8c0-0.3,0.1-0.6,0.3-0.8c0.2-0.2,0.5-0.3,0.9-0.3c0.3,0,0.6,0.1,0.8,0.3
						c0.2,0.2,0.4,0.5,0.4,0.8c0,0.3-0.1,0.6-0.4,0.8C81.9,25.6,81.6,25.7,81.3,25.7"/>
				</g>
				<g>
					<defs>
						<rect id="SVGID_00000165227801361494006130000006582865220528091529_" x="5" y="14.1" width="99.9" height="31.7"/>
					</defs>
					<clipPath id="SVGID_00000052068848922153837840000011245496438752715162_">
						<use xlink:href="#SVGID_00000165227801361494006130000006582865220528091529_"  style="overflow:visible;"/>
					</clipPath>
					<path style="clip-path:url(#SVGID_00000052068848922153837840000011245496438752715162_);fill:#3F5766;" d="M88.8,36.4
						c-1.4,0-2.5-0.5-3.5-1.4c-0.9-0.9-1.4-2.1-1.4-3.5c0-1.4,0.5-2.5,1.4-3.5c0.9-0.9,2.1-1.4,3.5-1.4c1.6,0,2.9,0.7,3.8,2
						c0,0.1,0,0.1,0,0.2l-1.1,0.8c-0.1,0-0.1,0-0.2,0c-0.7-0.9-1.6-1.3-2.6-1.3c-0.9,0-1.7,0.3-2.3,1c-0.6,0.6-0.9,1.4-0.9,2.4
						c0,0.9,0.3,1.7,0.9,2.4c0.6,0.6,1.4,1,2.3,1c1,0,1.8-0.4,2.5-1.3c0-0.1,0.1-0.1,0.2,0l1.1,0.8c0,0,0.1,0.1,0,0.2
						C91.7,35.8,90.4,36.4,88.8,36.4"/>
				</g>
				<g>
					<defs>
						<rect id="SVGID_00000090996659017715097540000006419537809450618035_" x="5" y="14.1" width="99.9" height="31.7"/>
					</defs>
					<clipPath id="SVGID_00000176742732741859573890000000941845725104732088_">
						<use xlink:href="#SVGID_00000090996659017715097540000006419537809450618035_"  style="overflow:visible;"/>
					</clipPath>
					<path style="clip-path:url(#SVGID_00000176742732741859573890000000941845725104732088_);fill:#3F5766;" d="M100.9,27.6
						c-0.7-0.7-1.6-1-2.7-1c-1.6,0-2.9,0.7-3.8,2c0,0,0,0.1,0,0.2l1,0.8c0,0,0.1,0,0.2,0c0.7-0.9,1.5-1.3,2.5-1.3
						c0.7,0,1.2,0.2,1.5,0.6c0.4,0.4,0.6,0.9,0.6,1.6v0.4c0,0.1-0.1,0.2-0.2,0.2h-2.5c-1,0-1.8,0.2-2.5,0.7c-0.6,0.5-1,1.1-1,2
						c0,0.8,0.3,1.5,0.9,2c0.6,0.5,1.4,0.7,2.4,0.7c1,0,1.9-0.3,2.6-0.8c0.2-0.1,0.4,0,0.4,0.2V36c0,0.1,0.1,0.2,0.2,0.2h1.2
						c0.1,0,0.2-0.1,0.2-0.2v-5.5C102,29.2,101.6,28.2,100.9,27.6 M100.3,32.6c0,0.7-0.3,1.2-0.8,1.7c-0.5,0.5-1.2,0.7-1.9,0.7
						c-0.5,0-0.9-0.1-1.3-0.4c-0.3-0.2-0.5-0.5-0.5-1c0-0.8,0.6-1.2,1.8-1.2L100.3,32.6L100.3,32.6z"/>
				</g>
				<g>
					<defs>
						<rect id="SVGID_00000168831107948268334160000012756051484080783515_" x="5" y="14.1" width="99.9" height="31.7"/>
					</defs>
					<clipPath id="SVGID_00000052072488411153332430000012592066726813298075_">
						<use xlink:href="#SVGID_00000168831107948268334160000012756051484080783515_"  style="overflow:visible;"/>
					</clipPath>
					<g style="opacity:0.8;clip-path:url(#SVGID_00000052072488411153332430000012592066726813298075_);">
						<g>
							<g>
								<defs>
									<rect id="SVGID_00000022558757978165816870000016182006466847851936_" x="26.5" y="20.9" width="7.3" height="18.1"/>
								</defs>
								<clipPath id="SVGID_00000173119195875735108630000014207805031469175704_">
									<use xlink:href="#SVGID_00000022558757978165816870000016182006466847851936_"  style="overflow:visible;"/>
								</clipPath>
								<path style="clip-path:url(#SVGID_00000173119195875735108630000014207805031469175704_);fill:#CCDB29;" d="M29.2,30
									c0-3,1.9-5.6,4.6-6.6c-0.4-0.9-0.9-1.8-1.4-2.5c-0.4,0.3-0.6,0.5-1,0.7l0,0c-3,1.7-4.9,4.8-4.9,8.5c0,4,2.5,7.5,5.9,9
									c0.5-0.7,1-1.5,1.4-2.4C31.2,35.6,29.2,33,29.2,30"/>
							</g>
						</g>
					</g>
				</g>
				<g>
					<defs>
						<rect id="SVGID_00000041253705021176045510000007581536202271438214_" x="5" y="14.1" width="99.9" height="31.7"/>
					</defs>
					<clipPath id="SVGID_00000038376856913284293990000011650132523428176824_">
						<use xlink:href="#SVGID_00000041253705021176045510000007581536202271438214_"  style="overflow:visible;"/>
					</clipPath>
					<g style="opacity:0.8;clip-path:url(#SVGID_00000038376856913284293990000011650132523428176824_);">
						<g>
							<g>
								<defs>
									<rect id="SVGID_00000132788566201201074980000007295875957384850106_" x="18" y="14.1" width="15.8" height="11.1"/>
								</defs>
								<clipPath id="SVGID_00000015319208340616127030000006539391866604496313_">
									<use xlink:href="#SVGID_00000132788566201201074980000007295875957384850106_"  style="overflow:visible;"/>
								</clipPath>
								<path style="clip-path:url(#SVGID_00000015319208340616127030000006539391866604496313_);fill:#86C440;" d="M33.8,23.4
									l-0.1-0.1c-0.1,0.1-0.2,0.1-0.2,0.2c0.1-0.1,0.2-0.1,0.2-0.2c-0.4-0.8-0.9-1.6-1.4-2.4c-1.2,1-2.8,1.6-4.5,1.6
									c-3.9,0-7.1-3.2-7.1-7.1c0-0.4,0-0.8,0.1-1.2c-0.5,0-1-0.1-1.5-0.1c-0.4,0-1,0-1.4,0.1c0.1,0.4,0.1,0.8,0.1,1.2
									c0,5.4,4.4,9.8,9.8,9.8c1.9,0,3.7-0.5,5.2-1.5c0,0-0.1,0-0.1,0C33.5,23.5,33.8,23.4,33.8,23.4"/>
							</g>
						</g>
					</g>
				</g>
				<g>
					<defs>
						<rect id="SVGID_00000113344305720217990320000009822577855722706824_" x="5" y="14.1" width="99.9" height="31.7"/>
					</defs>
					<clipPath id="SVGID_00000151526206363818885710000018116341364244879789_">
						<use xlink:href="#SVGID_00000113344305720217990320000009822577855722706824_"  style="overflow:visible;"/>
					</clipPath>
					<g style="opacity:0.7;clip-path:url(#SVGID_00000151526206363818885710000018116341364244879789_);">
						<g>
							<g>
								<defs>
									<rect id="SVGID_00000141415476274142445610000002430239871533206432_" x="5" y="23.2" width="1.1" height="0.7"/>
								</defs>
								<clipPath id="SVGID_00000081615167659604302810000005278120582541267386_">
									<use xlink:href="#SVGID_00000141415476274142445610000002430239871533206432_"  style="overflow:visible;"/>
								</clipPath>
								<path style="clip-path:url(#SVGID_00000081615167659604302810000005278120582541267386_);fill:#38AEC2;" d="M5.1,23.2
									L5,23.4c0,0,0.5,0.2,1.1,0.5C6.1,23.9,5.6,23.6,5.1,23.2"/>
							</g>
						</g>
					</g>
				</g>
				<g>
					<defs>
						<rect id="SVGID_00000062165167643743900420000008126504220741058982_" x="5" y="14.1" width="99.9" height="31.7"/>
					</defs>
					<clipPath id="SVGID_00000002356196125272616640000017938250863440359327_">
						<use xlink:href="#SVGID_00000062165167643743900420000008126504220741058982_"  style="overflow:visible;"/>
					</clipPath>
					<g style="opacity:0.8;clip-path:url(#SVGID_00000002356196125272616640000017938250863440359327_);">
						<g>
							<g>
								<defs>
									<rect id="SVGID_00000083792614097373219980000004160237058588805799_" x="5.1" y="14.1" width="15.9" height="11.1"/>
								</defs>
								<clipPath id="SVGID_00000154416760797828231440000001914071835622530183_">
									<use xlink:href="#SVGID_00000083792614097373219980000004160237058588805799_"  style="overflow:visible;"/>
								</clipPath>
								<path style="clip-path:url(#SVGID_00000154416760797828231440000001914071835622530183_);fill:#5AC1AD;" d="M18,14.2
									c0.1,0.4,0.1,0.8,0.1,1.2c0,3.9-3.2,7.1-7.1,7.1c-1.7,0-3.3-0.6-4.6-1.7c-0.5,0.7-1,1.5-1.4,2.4c1.7,1.3,3.7,2,6,2
									c5.4,0,9.8-4.4,9.8-9.8c0-0.4,0-0.8,0.1-1.2c-0.4,0-1.1-0.1-1.5-0.1C18.9,14.1,18.5,14.2,18,14.2"/>
							</g>
						</g>
					</g>
				</g>
				<g>
					<defs>
						<rect id="SVGID_00000032640604124868168750000018071277526677265074_" x="5" y="14.1" width="99.9" height="31.7"/>
					</defs>
					<clipPath id="SVGID_00000134246647381049618330000013802164643689116834_">
						<use xlink:href="#SVGID_00000032640604124868168750000018071277526677265074_"  style="overflow:visible;"/>
					</clipPath>
					<g style="opacity:0.8;clip-path:url(#SVGID_00000134246647381049618330000013802164643689116834_);">
						<g>
							<g>
								<defs>
									<rect id="SVGID_00000052100662830114275250000006071512762762330014_" x="5" y="20.8" width="7.5" height="18.3"/>
								</defs>
								<clipPath id="SVGID_00000143617206982490093150000009518450719907077560_">
									<use xlink:href="#SVGID_00000052100662830114275250000006071512762762330014_"  style="overflow:visible;"/>
								</clipPath>
								<path style="clip-path:url(#SVGID_00000143617206982490093150000009518450719907077560_);fill:#17A8C2;" d="M12.5,30
									c0-3.7-2-6.9-5-8.6c0,0-0.5-0.3-0.9-0.7c-0.5,0.7-1.1,1.7-1.5,2.6c2.8,1,4.7,3.6,4.7,6.7c0,3.1-2,5.7-4.7,6.7
									c0.4,0.8,0.9,1.6,1.4,2.4C10,37.6,12.5,34.1,12.5,30"/>
							</g>
						</g>
					</g>
				</g>
				<g>
					<defs>
						<rect id="SVGID_00000001645157979329149460000005334942196840289457_" x="5" y="14.1" width="99.9" height="31.7"/>
					</defs>
					<clipPath id="SVGID_00000093896197794343589090000004241789767984536197_">
						<use xlink:href="#SVGID_00000001645157979329149460000005334942196840289457_"  style="overflow:visible;"/>
					</clipPath>
					<g style="opacity:0.8;clip-path:url(#SVGID_00000093896197794343589090000004241789767984536197_);">
						<g>
							<g>
								<defs>
									<rect id="SVGID_00000110464860297390134620000017871241696072545936_" x="6.4" y="38.7" width="0.9" height="0.6"/>
								</defs>
								<clipPath id="SVGID_00000172439610822458513880000004014843327919441032_">
									<use xlink:href="#SVGID_00000110464860297390134620000017871241696072545936_"  style="overflow:visible;"/>
								</clipPath>
								<path style="clip-path:url(#SVGID_00000172439610822458513880000004014843327919441032_);fill:#25ADBB;" d="M7.3,38.7
									c0,0-0.4,0.2-0.9,0.4l0.1,0.2C6.5,39.2,6.9,38.9,7.3,38.7"/>
							</g>
						</g>
					</g>
				</g>
				<g>
					<defs>
						<rect id="SVGID_00000003806749110121484010000004753449312930385572_" x="5" y="14.1" width="99.9" height="31.7"/>
					</defs>
					<clipPath id="SVGID_00000086683667520009751180000006788974091159847849_">
						<use xlink:href="#SVGID_00000003806749110121484010000004753449312930385572_"  style="overflow:visible;"/>
					</clipPath>
					<g style="opacity:0.75;clip-path:url(#SVGID_00000086683667520009751180000006788974091159847849_);">
						<g>
							<g>
								<defs>
									<rect id="SVGID_00000018952893206639728260000012145024723912045466_" x="31.5" y="38.5" width="1" height="0.6"/>
								</defs>
								<clipPath id="SVGID_00000069360353496841059120000007693270181117131151_">
									<use xlink:href="#SVGID_00000018952893206639728260000012145024723912045466_"  style="overflow:visible;"/>
								</clipPath>
								<g style="opacity:0.8;clip-path:url(#SVGID_00000069360353496841059120000007693270181117131151_);">
									<g>
										<g>
											<defs>
												<rect id="SVGID_00000089549590618812632940000001128597558333698222_" x="31.5" y="38.5" width="1" height="0.6"/>
											</defs>
											<clipPath id="SVGID_00000017482182609585336420000006213096163964535192_">
												<use xlink:href="#SVGID_00000089549590618812632940000001128597558333698222_"  style="overflow:visible;"/>
											</clipPath>
											<path style="clip-path:url(#SVGID_00000017482182609585336420000006213096163964535192_);fill:#D4D829;" d="M31.5,38.5
												c0,0,0.5,0.3,0.9,0.6l0.1-0.1C32.5,39,32,38.8,31.5,38.5"/>
										</g>
									</g>
								</g>
							</g>
						</g>
					</g>
				</g>
				<g>
					<defs>
						<rect id="SVGID_00000090257730213530915100000010369911959884201658_" x="5" y="14.1" width="99.9" height="31.7"/>
					</defs>
					<clipPath id="SVGID_00000020385445996792067400000004821333006973734591_">
						<use xlink:href="#SVGID_00000090257730213530915100000010369911959884201658_"  style="overflow:visible;"/>
					</clipPath>
					<g style="opacity:0.8;clip-path:url(#SVGID_00000020385445996792067400000004821333006973734591_);">
						<g>
							<g>
								<defs>
									<rect id="SVGID_00000140735380020039950790000003115451382981237663_" x="5" y="34.9" width="15.9" height="11"/>
								</defs>
								<clipPath id="SVGID_00000016767974944158257060000002716406645671291062_">
									<use xlink:href="#SVGID_00000140735380020039950790000003115451382981237663_"  style="overflow:visible;"/>
								</clipPath>
								<path style="clip-path:url(#SVGID_00000016767974944158257060000002716406645671291062_);fill:#4D7BBD;" d="M11.1,34.9
									c-1.9,0-3.6,0.5-5.1,1.4c0,0-0.4,0.2-0.9,0.4c0.4,0.8,0.9,1.8,1.5,2.5c1.2-1,2.8-1.7,4.6-1.7c3.9,0,7.1,3.2,7.1,7.1
									c0,0.4,0,0.8-0.1,1.2c0.5,0,0.9,0.1,1.4,0.1c0.5,0,1.1,0,1.5-0.1c-0.1-0.4-0.1-0.8-0.1-1.1C20.9,39.3,16.5,34.9,11.1,34.9"
									/>
							</g>
						</g>
					</g>
				</g>
				<g>
					<defs>
						<rect id="SVGID_00000041254165131508689840000000120489762309620377_" x="5" y="14.1" width="99.9" height="31.7"/>
					</defs>
					<clipPath id="SVGID_00000127753680982399387340000005550081380418757282_">
						<use xlink:href="#SVGID_00000041254165131508689840000000120489762309620377_"  style="overflow:visible;"/>
					</clipPath>
					<g style="opacity:0.8;clip-path:url(#SVGID_00000127753680982399387340000005550081380418757282_);">
						<g>
							<g>
								<defs>
									<rect id="SVGID_00000155112178408028834360000012736923849745673873_" x="18" y="34.9" width="15.8" height="11"/>
								</defs>
								<clipPath id="SVGID_00000110446559036117806020000005356369341673959830_">
									<use xlink:href="#SVGID_00000155112178408028834360000012736923849745673873_"  style="overflow:visible;"/>
								</clipPath>
								<path style="clip-path:url(#SVGID_00000110446559036117806020000005356369341673959830_);fill:#7B4E9E;" d="M21,45.8
									c-0.1-0.4-0.1-0.8-0.1-1.1c0-3.9,3.2-7.1,7.1-7.1c1.7,0,3.2,0.6,4.4,1.6c0.5-0.7,1.1-1.7,1.4-2.5c-0.4-0.2-0.6-0.3-1-0.4
									c-1.5-0.9-3.1-1.3-4.9-1.3c-5.4,0-9.8,4.4-9.8,9.8c0,0.4,0,0.8-0.1,1.2c0.3,0,1,0.1,1.4,0.1C19.9,45.9,20.4,45.8,21,45.8"/>
							</g>
						</g>
					</g>
				</g>
				<g>
					<defs>
						<rect id="SVGID_00000067942675902644989770000014023443846928424611_" x="5" y="14.1" width="99.9" height="31.7"/>
					</defs>
					<clipPath id="SVGID_00000180326603874423851210000007913828707922907812_">
						<use xlink:href="#SVGID_00000067942675902644989770000014023443846928424611_"  style="overflow:visible;"/>
					</clipPath>
					<g style="opacity:0.8;clip-path:url(#SVGID_00000180326603874423851210000007913828707922907812_);">
						<g>
							<g>
								<defs>
									<rect id="SVGID_00000038391050819617782330000000792372583183877798_" x="17.5" y="28" width="4" height="4"/>
								</defs>
								<clipPath id="SVGID_00000145036933487338291480000001884890223622156946_">
									<use xlink:href="#SVGID_00000038391050819617782330000000792372583183877798_"  style="overflow:visible;"/>
								</clipPath>
								<g style="opacity:0.8;clip-path:url(#SVGID_00000145036933487338291480000001884890223622156946_);">
									<g>
										<g>
											<defs>
												<rect id="SVGID_00000178911600588200224500000018145410556210761895_" x="17.5" y="28" width="4" height="4"/>
											</defs>
											<clipPath id="SVGID_00000020369583967200542440000013138704485300602296_">
												<use xlink:href="#SVGID_00000178911600588200224500000018145410556210761895_"  style="overflow:visible;"/>
											</clipPath>
											<path style="clip-path:url(#SVGID_00000020369583967200542440000013138704485300602296_);fill:#E88024;" d="M19.5,32
												c1.1,0,2-0.9,2-2c0-1.1-0.9-2-2-2c-1.1,0-2,0.9-2,2C17.5,31.1,18.4,32,19.5,32"/>
										</g>
									</g>
								</g>
							</g>
						</g>
					</g>
				</g>
			</g>
		</g>
	</g>
</g>
</svg>
