<svg id="icons8-twitter" xmlns="http://www.w3.org/2000/svg" width="50" height="40.003" viewBox="0 0 50 40.003">
  <path id="icons8-twitter-2" data-name="icons8-twitter" d="M52,4a32.9,32.9,0,0,1-8.162,3.19c-.068.017-.122.04-.188.057a11.245,11.245,0,0,0-19.15,8c0,.327-.028.93,0,1.25-8.382,0-14.763-4.39-19.338-10a15.223,15.223,0,0,0-.715,5.08c0,3.5,2.737,6.943,7,9.075A10.247,10.247,0,0,1,8.9,21a6.714,6.714,0,0,1-4.4-1.542v.127c0,4.9,5.195,8.228,9.815,9.155a8.958,8.958,0,0,1-3.75.607c-.65,0-2.95-.3-3.565-.412,1.285,4.013,5.92,6.267,10.338,6.348C13.883,37.994,11.485,39,4.41,39H2a30.3,30.3,0,0,0,15.868,5C36.443,44,47,29.844,47,16.5c0-.215-.005-.665-.012-1.117,0-.045.012-.088.012-.133,0-.068-.02-.133-.02-.2-.008-.34-.015-.657-.023-.823A20.543,20.543,0,0,0,52,9a20.175,20.175,0,0,1-5.8,1.59C48.285,9.339,51.248,6.359,52,4Z" transform="translate(-2 -3.999)" fill="#6d469f"/>
</svg>
