<svg id="icons8-linkedin" xmlns="http://www.w3.org/2000/svg" width="50" height="50" viewBox="0 0 50 50">
  <path id="icons8-linkedin-2" data-name="icons8-linkedin" d="M47.444,3H8.556A5.554,5.554,0,0,0,3,8.556V47.444A5.554,5.554,0,0,0,8.556,53H47.444A5.554,5.554,0,0,0,53,47.444V8.556A5.554,5.554,0,0,0,47.444,3ZM19.667,41.889H12.658V22.444h7.008ZM16.039,18.881a3.32,3.32,0,0,1-3.572-3.333c0-1.906,1.428-3.333,3.808-3.333a3.32,3.32,0,0,1,3.572,3.333C19.847,17.453,18.419,18.881,16.039,18.881ZM44.667,41.889H37.883V31.261c0-2.939-1.808-3.617-2.486-3.617s-2.939.453-2.939,3.617V41.889H25.45V22.444h7.008v2.714c.9-1.583,2.711-2.714,6.1-2.714s6.106,2.714,6.106,8.817Z" transform="translate(-3 -3)" fill="#6d469f"/>
</svg>
