<?xml version="1.0" encoding="utf-8"?>
<!-- Generator: Adobe Illustrator 27.7.0, SVG Export Plug-In . SVG Version: 6.00 Build 0)  -->
<svg version="1.1" id="Layer_1" xmlns="http://www.w3.org/2000/svg" xmlns:xlink="http://www.w3.org/1999/xlink" x="0px" y="0px"
	 viewBox="0 0 110 60" style="enable-background:new 0 0 110 60;" xml:space="preserve">
<style type="text/css">
	.st0{fill:#00558B;}
	.st1{fill:#6A0032;}
</style>
<g>
	<path class="st0" d="M43.6,39.3C43.6,39.3,43.6,39.3,43.6,39.3C43.6,39.3,43.6,39.3,43.6,39.3c-0.1-0.1-0.1-0.3-0.2-0.4
		c0-0.1,0-0.1-0.1-0.1c-0.1,0-0.2-0.1-0.3-0.1c-0.5,0-0.8,0.4-0.8,0.7c0,0.3,0.2,0.4,0.5,0.6c0.4,0.2,0.7,0.5,0.7,0.8
		c0,0.7-0.7,1.1-1.4,1.1c-0.2,0-0.4,0-0.5-0.1c0,0,0,0,0-0.1l0.1-0.6c0,0,0.1-0.1,0.1-0.1c0,0,0,0,0,0c0,0.2,0.1,0.3,0.1,0.5
		c0,0.1,0,0.1,0.1,0.1c0.1,0.1,0.2,0.1,0.3,0.1c0.4,0,0.9-0.3,0.9-0.8c0-0.3-0.2-0.5-0.6-0.7c-0.4-0.2-0.6-0.4-0.6-0.7
		c0-0.5,0.6-1.1,1.3-1.1c0.2,0,0.4,0,0.5,0.1c0,0,0,0,0,0L43.6,39.3z"/>
	<path class="st0" d="M44.5,40.9c0-0.1,0.1-0.1,0.1-0.2c0.2-0.4,0.7-1.3,1.3-1.3c0.2,0,0.3,0.2,0.3,0.6c0,0.5-0.2,1.3-0.3,1.8
		c0,0.1,0,0.1,0.1,0.1c0.1,0,0.1,0,0.2,0c0,0,0,0,0,0v0C46,42,45.8,42,45.6,42c-0.1,0-0.1,0-0.1-0.1c0,0,0-0.1,0-0.1
		c0.1-0.3,0.3-1.2,0.3-1.6c0-0.3-0.1-0.4-0.2-0.4c-0.4,0-0.9,0.9-1.1,1.5c-0.1,0.1-0.1,0.5-0.2,0.6c0,0.1-0.1,0.1-0.1,0.1h-0.2
		c0,0,0,0,0,0c0.1-0.3,0.2-1.2,0.3-1.8c0.1-0.5,0.3-1.4,0.3-1.6c0-0.1,0-0.1-0.1-0.1c-0.1,0-0.2,0-0.2,0c0,0-0.1,0-0.1-0.1
		c0,0,0,0,0,0c0.1,0,0.5-0.1,0.7-0.1c0.1,0,0.1,0,0.1,0.1c-0.1,0.6-0.4,1.7-0.5,2.3C44.5,40.7,44.4,40.8,44.5,40.9L44.5,40.9
		L44.5,40.9z"/>
	<path class="st0" d="M48.9,39.5L48.9,39.5C48.9,39.5,49,39.5,48.9,39.5c0,0.3-0.1,1.1-0.2,1.5c-0.1,0.2-0.1,0.7-0.2,0.8
		c0,0.1,0,0.1,0.1,0.1c0.1,0,0.2,0,0.2,0c0,0,0,0,0,0s0,0,0,0c-0.2,0.1-0.4,0.1-0.6,0.1c-0.1,0-0.1,0-0.1-0.1c0,0,0-0.1,0-0.1
		c0-0.1,0.1-0.6,0.2-0.9c0-0.1,0-0.1,0.1-0.2h0c0,0.1-0.1,0.1-0.1,0.2C48,41.4,47.6,42,47.1,42c-0.3,0-0.5-0.2-0.5-0.6
		c0-0.7,0.6-1.9,1.4-1.9c0.3,0,0.4,0.1,0.5,0.2c0,0,0.1,0.1,0.1,0.1h0L48.9,39.5z M48,39.5c-0.6,0-1,1.2-1,1.8
		c0,0.3,0.1,0.5,0.3,0.5c0.4,0,0.9-0.9,1.1-1.4c0-0.1,0.1-0.2,0.1-0.2c0-0.1,0-0.1,0-0.1C48.4,39.8,48.3,39.5,48,39.5L48,39.5z"/>
	<path class="st0" d="M49.9,40.7c0-0.1,0.1-0.1,0.1-0.2c0.2-0.5,0.8-1.1,1.3-1.1c0.3,0,0.4,0.2,0.4,0.6c0,0.6-0.5,2-1.4,2
		c-0.2,0-0.4-0.1-0.5-0.2c0,0-0.1-0.1-0.1-0.1h0c0,0.1,0,0.2-0.1,0.2c-0.1,0.2-0.2,0.8-0.2,1c0,0.1-0.2,0.1-0.3,0.1c0,0,0,0,0,0
		c0.1-0.4,0.2-1.4,0.3-2c0.1-0.4,0.2-1,0.2-1.2c0-0.1,0-0.1-0.1-0.1c-0.1,0-0.1,0-0.2,0.1c0,0-0.1,0-0.1,0c0,0,0,0,0,0
		c0.1-0.1,0.4-0.2,0.7-0.2c0.1,0,0.1,0.1,0.1,0.2c-0.1,0.2-0.2,0.7-0.2,1C49.9,40.6,49.9,40.7,49.9,40.7L49.9,40.7z M51,39.7
		c-0.4,0-1,0.9-1.2,1.4c0,0.1,0,0.2,0,0.2c0,0,0,0.1,0,0.1c0.1,0.3,0.3,0.5,0.5,0.5c0.6,0,0.9-1.3,0.9-1.8
		C51.2,39.9,51.1,39.7,51,39.7L51,39.7z"/>
	<path class="st0" d="M52.7,39.4c0.1,0,0.1,0.1,0.1,0.2c-0.1,0.3-0.2,0.8-0.2,1.2c-0.1,0.3-0.2,0.8-0.2,1c0,0.1,0,0.1,0.1,0.1
		c0.1,0,0.2,0,0.2,0c0,0,0,0,0,0.1c0,0,0,0,0,0C52.5,42,52.2,42,52.1,42C52,42,52,42,52,41.9c0,0,0-0.1,0-0.1c0-0.1,0.1-0.7,0.2-1.1
		c0.1-0.5,0.1-0.8,0.2-1c0-0.1,0-0.1-0.1-0.1c-0.1,0-0.1,0-0.2,0.1c0,0-0.1,0-0.1-0.1c0,0,0,0,0,0C52.2,39.5,52.5,39.4,52.7,39.4
		L52.7,39.4z M52.7,38.6c0.2,0,0.2,0.1,0.2,0.2c0,0.1-0.1,0.3-0.3,0.3c-0.1,0-0.2-0.1-0.2-0.2C52.4,38.8,52.5,38.6,52.7,38.6
		L52.7,38.6z"/>
	<path class="st0" d="M55.1,39.4c0.2,0,0.3,0.2,0.3,0.6c0,0.5-0.2,1.3-0.3,1.8c0,0.1,0,0.1,0.1,0.1s0.1,0,0.2,0c0,0,0,0,0,0
		c0,0,0,0,0,0C55.3,42,55,42,54.9,42c-0.1,0-0.1,0-0.1-0.1c0,0,0-0.1,0-0.1c0.1-0.4,0.3-1.2,0.3-1.7c0-0.3-0.1-0.4-0.2-0.4
		c-0.4,0-0.9,0.9-1.1,1.4c-0.1,0.2-0.2,0.5-0.2,0.7c0,0.1-0.1,0.1-0.1,0.1h-0.2c0,0,0,0,0,0c0-0.2,0.2-0.9,0.2-1.3
		c0.1-0.3,0.1-0.7,0.2-0.9c0-0.1,0-0.1-0.1-0.1c-0.1,0-0.1,0-0.2,0.1c0,0-0.1,0-0.1-0.1c0,0,0,0,0,0c0.1-0.1,0.4-0.2,0.7-0.2
		c0.1,0,0.1,0.1,0.1,0.2c-0.1,0.3-0.2,0.8-0.2,1.1c0,0.1,0,0.2-0.1,0.2h0c0-0.1,0.1-0.1,0.1-0.2C54,40.3,54.6,39.4,55.1,39.4
		L55.1,39.4z"/>
	<path class="st0" d="M58.1,39.5C58.2,39.5,58.2,39.5,58.1,39.5c0.1,0,0.1,0,0.1,0.1c0,0.2-0.2,1.1-0.3,1.4
		c-0.1,0.2-0.1,0.7-0.2,0.9C57.5,42.6,57,43,56.3,43c-0.1,0-0.3,0-0.4-0.1c-0.1-0.1-0.1-0.2-0.1-0.4c0,0,0-0.1,0.1-0.1c0,0,0,0,0,0
		c0.1,0.2,0.3,0.4,0.6,0.4c0.4,0,0.8-0.2,1-1c0.1-0.2,0.1-0.5,0.2-0.7c0-0.1,0.1-0.2,0.1-0.3h0c0,0.1-0.1,0.1-0.1,0.2
		c-0.3,0.5-0.7,1.1-1.2,1.1c-0.3,0-0.5-0.2-0.5-0.6c0-0.7,0.6-1.9,1.4-1.9c0.3,0,0.5,0.1,0.6,0.3c0,0,0,0.1,0.1,0.1h0L58.1,39.5z
		 M57.2,39.5c-0.6,0-0.9,1.3-0.9,1.8c0,0.3,0.1,0.5,0.3,0.5c0.4,0,0.9-0.9,1.1-1.5c0-0.1,0-0.1,0-0.2c0,0,0-0.1,0-0.1
		C57.7,39.8,57.5,39.5,57.2,39.5L57.2,39.5z"/>
	<path class="st0" d="M61.6,39.3C61.6,39.3,61.6,39.3,61.6,39.3C61.6,39.3,61.6,39.3,61.6,39.3c-0.1-0.2-0.1-0.3-0.2-0.5
		c0,0,0-0.1-0.1-0.1c-0.2,0-0.6-0.1-0.8-0.1c-0.1,0-0.1,0-0.1,0c-0.1,0.3-0.3,1.3-0.3,1.5c0.3,0,0.9,0,1.1,0c0,0,0,0,0,0
		c0,0,0,0.1-0.1,0.1c-0.2,0-0.7,0-1,0.1c0,0-0.1,0-0.1,0.1c0,0.2-0.2,1.1-0.2,1.3c0,0.1,0,0.1,0,0.1l0.4,0.1c0,0,0,0,0,0.1
		c0,0,0,0,0,0c-0.1,0-0.4,0-0.6,0c-0.2,0-0.4,0-0.5,0c0,0,0,0,0,0s0-0.1,0-0.1l0.2-0.1c0.1,0,0.1,0,0.1-0.1c0.1-0.2,0.2-1.2,0.3-1.5
		s0.2-1.1,0.2-1.4c0-0.1,0-0.1,0-0.1l-0.2-0.1c0,0,0,0,0-0.1c0,0,0,0,0,0c0.2,0,0.3,0,0.5,0c0.9,0,1.4,0,1.4,0c0,0,0,0,0,0
		L61.6,39.3z"/>
	<path class="st0" d="M64,39.5C64,39.5,64,39.5,64,39.5c0,0.3-0.1,0.9-0.2,1.2c-0.1,0.3-0.2,0.9-0.2,1c0,0.1,0,0.1,0.1,0.1
		c0.1,0,0.1,0,0.2,0c0,0,0.1,0,0.1,0s0,0,0,0c-0.1,0.1-0.4,0.1-0.6,0.1c-0.1,0-0.1,0-0.1-0.1c0,0,0-0.1,0-0.1c0-0.2,0.1-0.7,0.2-0.9
		c0-0.1,0-0.1,0.1-0.2h0c0,0.1-0.1,0.1-0.1,0.2c-0.2,0.4-0.7,1.1-1.2,1.1c-0.2,0-0.4-0.2-0.4-0.6c0-0.5,0.2-1.2,0.3-1.7
		c0-0.1,0-0.1-0.1-0.1c-0.1,0-0.1,0-0.2,0c0,0-0.1,0-0.1-0.1c0,0,0,0,0,0c0.1-0.1,0.4-0.1,0.6-0.1c0.1,0,0.1,0.1,0.1,0.1
		c-0.1,0.5-0.3,1.3-0.3,1.8c0,0.3,0.1,0.4,0.2,0.4c0.4,0,0.9-1,1.1-1.6c0.1-0.1,0.1-0.5,0.2-0.6c0-0.1,0.1-0.1,0.1-0.1L64,39.5z"/>
	<path class="st0" d="M66.2,39.5C66.2,39.5,66.2,39.5,66.2,39.5C66.2,39.6,66.1,39.6,66.2,39.5l-0.9,0.1c-0.1,0.5-0.3,1.3-0.3,1.7
		c0,0.3,0.1,0.5,0.3,0.5c0.1,0,0.1,0,0.2,0c0.1,0,0.2-0.1,0.3-0.1c0,0,0,0,0,0c0,0,0,0.1,0,0.1c-0.1,0.1-0.3,0.2-0.5,0.2
		c-0.1,0-0.2,0-0.2,0c-0.3,0-0.6-0.2-0.6-0.6c0-0.4,0.2-1.3,0.4-1.7l-0.4,0c0,0,0,0,0,0c0,0,0-0.1,0-0.1c0-0.1,0.1-0.1,0.1-0.1h0.3
		c0-0.1,0.1-0.4,0.2-0.5c0-0.1,0.1-0.1,0.1-0.2c0.1,0,0.2-0.1,0.2-0.1c0,0,0,0,0,0c-0.1,0.2-0.2,0.5-0.2,0.7L66.2,39.5L66.2,39.5z"
		/>
	<path class="st0" d="M68.5,39.5C68.5,39.5,68.5,39.5,68.5,39.5c0,0.3-0.1,0.9-0.2,1.2c-0.1,0.3-0.2,0.9-0.2,1c0,0.1,0,0.1,0.1,0.1
		c0.1,0,0.1,0,0.2,0c0,0,0.1,0,0.1,0s0,0,0,0C68.3,41.9,68,42,67.8,42c-0.1,0-0.1,0-0.1-0.1c0,0,0-0.1,0-0.1c0-0.2,0.1-0.7,0.2-0.9
		c0-0.1,0-0.1,0.1-0.2h0c0,0.1-0.1,0.1-0.1,0.2c-0.2,0.4-0.7,1.1-1.2,1.1c-0.2,0-0.4-0.2-0.4-0.6c0-0.5,0.2-1.2,0.3-1.7
		c0-0.1,0-0.1-0.1-0.1c-0.1,0-0.1,0-0.2,0c0,0-0.1,0-0.1-0.1c0,0,0,0,0,0c0.1-0.1,0.4-0.1,0.6-0.1c0.1,0,0.1,0.1,0.1,0.1
		c-0.1,0.5-0.3,1.3-0.3,1.8c0,0.3,0.1,0.4,0.2,0.4c0.4,0,0.9-1,1.1-1.6c0.1-0.1,0.1-0.5,0.2-0.6c0-0.1,0.1-0.1,0.1-0.1L68.5,39.5z"
		/>
	<path class="st0" d="M70.6,39.4c0.1,0,0.2,0,0.2,0.1c0,0,0,0,0,0c0,0.1-0.1,0.2-0.2,0.2c0,0-0.1,0-0.1,0c0,0-0.1,0-0.1,0
		c-0.4,0-0.8,0.9-1,1.5c-0.1,0.1-0.1,0.5-0.2,0.6c0,0.1,0,0.1-0.1,0.1h-0.2c0,0,0,0,0,0c0.1-0.3,0.1-0.8,0.2-1.3
		c0.1-0.3,0.1-0.8,0.2-1c0-0.1,0-0.1-0.1-0.1c-0.1,0-0.1,0-0.2,0.1c0,0-0.1,0-0.1-0.1c0,0,0,0,0,0c0.1-0.1,0.4-0.2,0.7-0.2
		c0.1,0,0.1,0.1,0.1,0.2c-0.1,0.2-0.2,0.7-0.3,1.1c0,0.1,0,0.1,0,0.2h0c0-0.1,0.1-0.1,0.1-0.2C69.7,40.2,70.1,39.4,70.6,39.4
		L70.6,39.4z"/>
	<path class="st0" d="M72.4,41.6C72.4,41.6,72.4,41.6,72.4,41.6c-0.1,0.2-0.4,0.3-0.6,0.4c-0.1,0-0.2,0.1-0.4,0.1
		c-0.5,0-0.8-0.2-0.8-0.7c0-0.8,0.6-1.8,1.4-1.8c0.4,0,0.6,0.2,0.6,0.5c0,0.3-0.2,0.5-0.5,0.7c-0.3,0.1-0.6,0.2-1,0.1
		c0,0.1-0.1,0.3-0.1,0.4c0,0.4,0.2,0.6,0.6,0.6c0.1,0,0.2,0,0.3-0.1C72.1,41.8,72.2,41.7,72.4,41.6C72.4,41.6,72.4,41.6,72.4,41.6
		L72.4,41.6z M72,39.6c-0.3,0-0.7,0.5-0.8,1.1c0.2,0,0.5,0,0.7-0.1c0.2-0.1,0.4-0.3,0.4-0.6C72.2,39.7,72.2,39.6,72,39.6L72,39.6z"
		/>
	<path class="st0" d="M73.3,42c-0.3,0-0.5-0.1-0.5-0.3c0-0.1,0-0.2,0.1-0.2c0,0,0.1-0.1,0.1-0.1c0,0,0,0,0,0c0,0.3,0.2,0.5,0.5,0.5
		c0.4,0,0.6-0.2,0.6-0.5c0-0.2-0.2-0.4-0.5-0.5c-0.3-0.2-0.5-0.3-0.5-0.6c0-0.4,0.5-0.8,1-0.8c0.3,0,0.5,0.1,0.5,0.3
		c0,0.1,0,0.2-0.1,0.2c0,0-0.1,0-0.1,0c0,0,0,0,0,0c0-0.2-0.2-0.4-0.4-0.4c-0.4,0-0.6,0.2-0.6,0.5c0,0.2,0.2,0.3,0.4,0.5
		c0.3,0.2,0.5,0.3,0.5,0.6C74.4,41.7,73.8,42,73.3,42L73.3,42z"/>
	<path class="st0" d="M74.9,41.5c-0.1,0-0.2,0.1-0.2,0.2c0,0.1,0.1,0.2,0.2,0.2c0.2,0,0.2-0.1,0.2-0.2C75.1,41.6,75,41.5,74.9,41.5
		L74.9,41.5z"/>
	<path class="st0" d="M76.2,40.9c0-0.7,0.3-1.4,0.9-1.9c0.3-0.3,0.7-0.5,1.2-0.5c0.2,0,0.4,0,0.5,0.1c0,0,0,0,0,0.1l-0.1,0.7
		c0,0-0.1,0.1-0.1,0.1c0,0,0,0,0,0c0-0.2-0.1-0.4-0.1-0.6c0-0.1,0-0.1-0.1-0.1c0-0.1-0.1-0.1-0.3-0.1c-0.2,0-0.5,0.2-0.7,0.4
		c-0.4,0.5-0.7,1.2-0.7,1.8c0,0.6,0.3,0.9,0.8,0.9c0.1,0,0.3,0,0.3,0c0.2,0,0.3-0.1,0.5-0.2c0,0,0,0,0,0c0,0,0,0.1,0,0.1
		c-0.1,0.1-0.4,0.2-0.6,0.2c-0.1,0-0.2,0-0.4,0C76.7,42,76.2,41.6,76.2,40.9L76.2,40.9z"/>
	<path class="st0" d="M79.4,40.9c0-0.1,0.1-0.1,0.1-0.2c0.2-0.4,0.7-1.3,1.3-1.3c0.2,0,0.3,0.2,0.3,0.6c0,0.5-0.2,1.3-0.3,1.8
		c0,0.1,0,0.1,0.1,0.1c0.1,0,0.1,0,0.2,0c0,0,0,0,0,0v0C81,42,80.7,42,80.6,42c-0.1,0-0.1,0-0.1-0.1c0,0,0-0.1,0-0.1
		c0.1-0.3,0.3-1.2,0.3-1.6c0-0.3-0.1-0.4-0.2-0.4c-0.4,0-0.9,0.9-1.1,1.5c-0.1,0.1-0.1,0.5-0.2,0.6c0,0.1-0.1,0.1-0.1,0.1h-0.2
		c0,0,0,0,0,0c0.1-0.3,0.2-1.2,0.3-1.8c0.1-0.5,0.3-1.4,0.3-1.6c0-0.1,0-0.1-0.1-0.1c-0.1,0-0.2,0-0.2,0c0,0-0.1,0-0.1-0.1
		c0,0,0,0,0,0c0.1,0,0.5-0.1,0.7-0.1c0.1,0,0.1,0,0.1,0.1c-0.1,0.6-0.4,1.7-0.5,2.3C79.4,40.7,79.4,40.8,79.4,40.9L79.4,40.9
		L79.4,40.9z"/>
	<path class="st0" d="M83.8,39.5L83.8,39.5C83.9,39.5,83.9,39.5,83.8,39.5c0,0.3-0.1,1.1-0.2,1.5c-0.1,0.2-0.1,0.7-0.2,0.8
		c0,0.1,0,0.1,0.1,0.1c0.1,0,0.2,0,0.2,0c0,0,0,0,0,0s0,0,0,0c-0.2,0.1-0.4,0.1-0.6,0.1c-0.1,0-0.1,0-0.1-0.1c0,0,0-0.1,0-0.1
		c0-0.1,0.1-0.6,0.2-0.9c0-0.1,0-0.1,0.1-0.2h0c0,0.1-0.1,0.1-0.1,0.2C82.9,41.4,82.5,42,82,42c-0.3,0-0.5-0.2-0.5-0.6
		c0-0.7,0.6-1.9,1.4-1.9c0.3,0,0.4,0.1,0.5,0.2c0,0,0.1,0.1,0.1,0.1h0L83.8,39.5z M83,39.5c-0.6,0-1,1.2-1,1.8
		c0,0.3,0.1,0.5,0.3,0.5c0.4,0,0.9-0.9,1.1-1.4c0-0.1,0.1-0.2,0.1-0.2c0-0.1,0-0.1,0-0.1C83.4,39.8,83.2,39.5,83,39.5L83,39.5z"/>
	<path class="st0" d="M86.2,39.4c0.2,0,0.3,0.2,0.3,0.6c0,0.5-0.2,1.3-0.3,1.8c0,0.1,0,0.1,0.1,0.1c0.1,0,0.1,0,0.2,0c0,0,0,0,0,0
		c0,0,0,0,0,0C86.4,42,86.1,42,86,42c-0.1,0-0.1,0-0.1-0.1c0,0,0-0.1,0-0.1c0.1-0.4,0.3-1.2,0.3-1.7c0-0.3-0.1-0.4-0.2-0.4
		c-0.4,0-0.9,0.9-1.1,1.4c-0.1,0.2-0.2,0.5-0.2,0.7c0,0.1-0.1,0.1-0.1,0.1h-0.2c0,0,0,0,0,0c0-0.2,0.2-0.9,0.2-1.3
		c0.1-0.3,0.1-0.7,0.2-0.9c0-0.1,0-0.1-0.1-0.1c-0.1,0-0.1,0-0.2,0.1c0,0-0.1,0-0.1-0.1c0,0,0,0,0,0c0.1-0.1,0.4-0.2,0.7-0.2
		c0.1,0,0.1,0.1,0.1,0.2c-0.1,0.3-0.2,0.8-0.2,1.1c0,0.1,0,0.2-0.1,0.2h0c0-0.1,0.1-0.1,0.1-0.2C85.1,40.3,85.7,39.4,86.2,39.4
		L86.2,39.4z"/>
	<path class="st0" d="M89.2,39.5C89.3,39.5,89.3,39.5,89.2,39.5c0.1,0,0.1,0,0.1,0.1c0,0.2-0.2,1.1-0.3,1.4
		c-0.1,0.2-0.1,0.7-0.2,0.9c-0.2,0.8-0.7,1.2-1.5,1.2c-0.1,0-0.3,0-0.4-0.1c-0.1-0.1-0.1-0.2-0.1-0.4c0,0,0-0.1,0.1-0.1c0,0,0,0,0,0
		c0.1,0.2,0.3,0.4,0.6,0.4c0.4,0,0.8-0.2,1-1c0.1-0.2,0.1-0.5,0.2-0.7c0-0.1,0.1-0.2,0.1-0.3h0c0,0.1-0.1,0.1-0.1,0.2
		C88.4,41.4,88,42,87.5,42c-0.3,0-0.5-0.2-0.5-0.6c0-0.7,0.6-1.9,1.4-1.9c0.3,0,0.5,0.1,0.6,0.3c0,0,0.1,0.1,0.1,0.1h0L89.2,39.5z
		 M88.3,39.5c-0.6,0-0.9,1.3-0.9,1.8c0,0.3,0.1,0.5,0.3,0.5c0.4,0,0.9-0.9,1.1-1.5c0-0.1,0-0.1,0-0.2c0,0,0-0.1,0-0.1
		C88.8,39.8,88.6,39.5,88.3,39.5L88.3,39.5z"/>
	<path class="st0" d="M90.4,39.4c0.1,0,0.1,0.1,0.1,0.2c-0.1,0.3-0.2,0.8-0.2,1.2c-0.1,0.3-0.2,0.8-0.2,1c0,0.1,0,0.1,0.1,0.1
		c0.1,0,0.2,0,0.2,0c0,0,0,0,0,0.1c0,0,0,0,0,0C90.2,42,89.9,42,89.7,42c-0.1,0-0.1,0-0.1-0.1c0,0,0-0.1,0-0.1
		c0-0.1,0.1-0.7,0.2-1.1c0.1-0.5,0.1-0.8,0.2-1c0-0.1,0-0.1-0.1-0.1c-0.1,0-0.1,0-0.2,0.1c0,0-0.1,0-0.1-0.1c0,0,0,0,0,0
		C89.8,39.5,90.2,39.4,90.4,39.4L90.4,39.4z M90.4,38.6c0.2,0,0.2,0.1,0.2,0.2c0,0.1-0.1,0.3-0.3,0.3c-0.1,0-0.2-0.1-0.2-0.2
		C90.1,38.8,90.2,38.6,90.4,38.6L90.4,38.6z"/>
	<path class="st0" d="M92.8,39.4c0.2,0,0.3,0.2,0.3,0.6c0,0.5-0.2,1.3-0.3,1.8c0,0.1,0,0.1,0.1,0.1c0.1,0,0.1,0,0.2,0c0,0,0,0,0,0
		c0,0,0,0,0,0C93,42,92.7,42,92.6,42c-0.1,0-0.1,0-0.1-0.1c0,0,0-0.1,0-0.1c0.1-0.4,0.3-1.2,0.3-1.7c0-0.3-0.1-0.4-0.2-0.4
		c-0.4,0-0.9,0.9-1.1,1.4c-0.1,0.2-0.2,0.5-0.2,0.7c0,0.1-0.1,0.1-0.1,0.1h-0.2c0,0,0,0,0,0c0-0.2,0.2-0.9,0.2-1.3
		c0.1-0.3,0.1-0.7,0.2-0.9c0-0.1,0-0.1-0.1-0.1c-0.1,0-0.1,0-0.2,0.1c0,0-0.1,0-0.1-0.1c0,0,0,0,0,0c0.1-0.1,0.4-0.2,0.7-0.2
		c0.1,0,0.1,0.1,0.1,0.2c-0.1,0.3-0.2,0.8-0.2,1.1c0,0.1,0,0.2-0.1,0.2h0c0-0.1,0.1-0.1,0.1-0.2C91.7,40.3,92.2,39.4,92.8,39.4
		L92.8,39.4z"/>
	<path class="st0" d="M95.8,39.5C95.8,39.5,95.8,39.5,95.8,39.5c0.1,0,0.1,0,0.1,0.1c0,0.2-0.2,1.1-0.3,1.4
		c-0.1,0.2-0.1,0.7-0.2,0.9c-0.2,0.8-0.7,1.2-1.5,1.2c-0.1,0-0.3,0-0.4-0.1c-0.1-0.1-0.1-0.2-0.1-0.4c0,0,0-0.1,0.1-0.1c0,0,0,0,0,0
		c0.1,0.2,0.3,0.4,0.6,0.4c0.4,0,0.8-0.2,1-1c0.1-0.2,0.1-0.5,0.2-0.7c0-0.1,0.1-0.2,0.1-0.3h0c0,0.1-0.1,0.1-0.1,0.2
		C94.9,41.4,94.5,42,94,42c-0.3,0-0.5-0.2-0.5-0.6c0-0.7,0.6-1.9,1.4-1.9c0.3,0,0.5,0.1,0.6,0.3c0,0,0.1,0.1,0.1,0.1h0L95.8,39.5z
		 M94.9,39.5c-0.6,0-0.9,1.3-0.9,1.8c0,0.3,0.1,0.5,0.3,0.5c0.4,0,0.9-0.9,1.1-1.5c0-0.1,0-0.1,0-0.2c0,0,0-0.1,0-0.1
		C95.3,39.8,95.2,39.5,94.9,39.5L94.9,39.5z"/>
	<path class="st0" d="M98.6,38.6C98.6,38.6,98.6,38.6,98.6,38.6C98.6,38.6,98.6,38.7,98.6,38.6l-0.3,0.1c-0.1,0-0.1,0-0.1,0.1
		c-0.1,0.3-0.2,1-0.3,1.4c-0.1,0.4-0.2,1.1-0.3,1.5c0,0.1,0,0.1,0.1,0.1c0.2,0,0.7,0,1-0.1c0.1,0,0.1-0.1,0.2-0.1l0.3-0.4
		c0,0,0,0,0,0c0,0,0.1,0,0,0.1l-0.2,0.7c0,0,0,0-0.1,0c-0.1,0-0.2,0-0.5,0c-0.2,0-0.6,0-1,0c-0.2,0-0.3,0-0.5,0c0,0,0,0,0,0
		s0-0.1,0-0.1l0.2-0.1c0,0,0.1,0,0.1-0.1c0.1-0.3,0.2-1.1,0.3-1.5c0.1-0.5,0.2-1.2,0.2-1.4c0-0.1,0-0.1,0-0.1l-0.2-0.1
		c0,0,0,0,0-0.1c0,0,0,0,0,0L98.6,38.6L98.6,38.6z"/>
	<path class="st0" d="M100.2,39.4c0.1,0,0.1,0.1,0.1,0.2c-0.1,0.3-0.2,0.8-0.2,1.2c-0.1,0.3-0.2,0.8-0.2,1c0,0.1,0,0.1,0.1,0.1
		c0.1,0,0.2,0,0.2,0c0,0,0,0,0,0.1c0,0,0,0,0,0C100,42,99.7,42,99.5,42c-0.1,0-0.1,0-0.1-0.1c0,0,0-0.1,0-0.1c0-0.1,0.1-0.7,0.2-1.1
		c0.1-0.5,0.1-0.8,0.2-1c0-0.1,0-0.1-0.1-0.1c-0.1,0-0.1,0-0.2,0.1c0,0-0.1,0-0.1-0.1c0,0,0,0,0,0C99.7,39.5,100,39.4,100.2,39.4
		L100.2,39.4z M100.2,38.6c0.2,0,0.2,0.1,0.2,0.2c0,0.1-0.1,0.3-0.3,0.3c-0.1,0-0.2-0.1-0.2-0.2C99.9,38.8,100,38.6,100.2,38.6
		L100.2,38.6z"/>
	<path class="st0" d="M101.5,41.8c0-0.1,0.1-0.1,0.1-0.2c0.2-0.5,0.6-1.2,0.8-1.7c0-0.1,0.1-0.3,0.1-0.3c0,0,0,0,0-0.1
		c0.1-0.1,0.2-0.1,0.3-0.1c0,0,0,0,0,0c0,0.1-0.1,0.2-0.1,0.4c-0.2,0.5-0.9,1.7-1.1,2.1c0,0.1-0.1,0.1-0.2,0.1h-0.1c0,0,0,0,0,0
		c-0.1-0.4-0.2-1.7-0.3-2.2c0-0.1,0-0.1-0.1-0.1c-0.1,0-0.1,0-0.2,0c0,0-0.1,0-0.1-0.1c0,0,0,0,0,0c0.1-0.1,0.4-0.2,0.6-0.2
		c0.1,0,0.1,0.1,0.1,0.1c0,0.6,0.1,1.5,0.2,2.1C101.5,41.6,101.6,41.7,101.5,41.8L101.5,41.8L101.5,41.8z"/>
	<path class="st0" d="M104.6,41.6C104.6,41.6,104.6,41.6,104.6,41.6c-0.1,0.2-0.4,0.3-0.6,0.4c-0.1,0-0.2,0.1-0.4,0.1
		c-0.5,0-0.8-0.2-0.8-0.7c0-0.8,0.6-1.8,1.4-1.8c0.4,0,0.6,0.2,0.6,0.5c0,0.3-0.2,0.5-0.5,0.7c-0.3,0.1-0.6,0.2-1,0.1
		c0,0.1-0.1,0.3-0.1,0.4c0,0.4,0.2,0.6,0.6,0.6c0.1,0,0.2,0,0.3-0.1C104.2,41.8,104.4,41.7,104.6,41.6
		C104.6,41.6,104.6,41.6,104.6,41.6L104.6,41.6z M104.1,39.6c-0.3,0-0.7,0.5-0.8,1.1c0.2,0,0.5,0,0.7-0.1c0.2-0.1,0.4-0.3,0.4-0.6
		C104.4,39.7,104.3,39.6,104.1,39.6L104.1,39.6z"/>
	<path class="st0" d="M105.4,42c-0.3,0-0.5-0.1-0.5-0.3c0-0.1,0-0.2,0.1-0.2c0,0,0.1-0.1,0.1-0.1c0,0,0,0,0,0c0,0.3,0.2,0.5,0.5,0.5
		c0.4,0,0.6-0.2,0.6-0.5c0-0.2-0.2-0.4-0.5-0.5c-0.3-0.2-0.5-0.3-0.5-0.6c0-0.4,0.5-0.8,1-0.8c0.3,0,0.5,0.1,0.5,0.3
		c0,0.1,0,0.2-0.1,0.2c0,0-0.1,0-0.1,0c0,0,0,0,0,0c0-0.2-0.2-0.4-0.4-0.4c-0.4,0-0.6,0.2-0.6,0.5c0,0.2,0.2,0.3,0.4,0.5
		c0.3,0.2,0.5,0.3,0.5,0.6C106.5,41.7,106,42,105.4,42L105.4,42z"/>
	<path class="st0" d="M107.1,41.5c0.1,0,0.2,0.1,0.2,0.2c0,0.1-0.1,0.2-0.2,0.2c-0.1,0-0.2-0.1-0.2-0.2
		C106.8,41.7,107,41.5,107.1,41.5L107.1,41.5z"/>
	<path class="st0" d="M6.7,19c0.4,3,2.4,7.8,3.4,10.6c1.1-2,2.9-5.2,3.9-7.4c0.3-0.7,0.6-1.4,0.6-1.9c0.6-0.6,1.5-1.4,2.3-1.4
		c-0.1,2.1-0.1,3.2-0.1,4.7c0,4.7,0.1,5.7,0.4,7.1c0.2,0.9,0.6,1.8,1.1,2.3c-0.5,1-1.4,1.7-2.1,1.7c-0.9-1.5-1.3-4.8-1.3-7.5
		c0-1.9,0-3.8,0-5.1c-2.2,3.8-3.9,6.8-4.3,9.5c-0.4,0.6-0.9,1-1.5,1.5C8.4,30.8,6.2,25.6,5.4,23c-0.7,2.8-1,5.8-1,8.7
		c0,0.7,0.1,1.4,0.3,2.1C4.2,34.4,3.3,35,2.8,35c-0.1-0.6-0.1-0.9-0.1-1.3c0-3.6,2.1-10.1,2-13.4C5.5,19.7,6.2,19,6.7,19"/>
	<path class="st0" d="M27.8,23.6c-0.1,0.5-1,1.4-1.6,1.4c-0.2-1-0.7-1.6-1.3-1.6c-1.8,0-3.2,4.6-3.2,7.3c0,1.6,0.1,2.1,0.6,2.1
		c0.7,0,3-3.1,3.8-5.7c0.5-0.7,1.4-1.5,2-1.5c-0.2,1.4-0.3,2.5-0.3,4.3c0,1.3,0.2,2.5,0.5,3.2c0.2,0.3,0.5,0.6,0.7,0.7
		c-0.3,0.7-1.5,1.6-1.9,1.6c-0.5,0-0.9-1.5-0.9-2.1c-0.1-0.7-0.2-1.6-0.2-2.6c0-0.5,0-1,0-1.5c-0.7,1.1-2.1,3-2.5,3.4
		c-1.4,1.4-2.3,2.1-3.1,2.1c-0.5,0-0.7-1.1-0.7-2.2c0-4,2.7-9.9,6.6-9.9C27.1,22.4,27.6,22.9,27.8,23.6"/>
	<path class="st0" d="M33.1,23c-0.4,2-0.7,4.3-0.7,6.4c0,1.9,0.1,3.2,0.9,3.2c1.1,0,2.6-2.3,3.1-4.7c0.3-1.1,0.3-2.3,0.5-3.7
		c0.4-0.5,1.1-1.1,1.9-1.4C38.4,27,38.4,33.3,38,36.1c-0.8,5.3-3.2,6.8-4.9,6.8c-2.3,0-3.3-1.3-3.3-2.8c0-0.6,0.6-1.4,1.2-1.4
		c0,1.5,0.5,3.6,2.2,3.6c1.5,0,2.9-1.2,3.3-5.8c0.2-2.7,0.2-4.5,0.3-7c-1.1,2.2-3.6,5.1-4.9,5.1c-0.9,0-1.1-2.4-1.1-4
		c0-2,0.3-5,0.6-6.2C31.7,23.8,32.4,23.3,33.1,23"/>
	<path class="st1" d="M43.8,19.2c-0.1,2.1-0.4,8-0.4,9.9c0,2.9,0.1,3.8,0.6,4.7c-0.5,0.7-1.5,1.2-2.1,1.2c-0.3-0.5-0.4-2.1-0.4-2.8
		c0-5.1,0.5-10.3,0.4-11.9C42.6,19.5,43.4,19.2,43.8,19.2"/>
	<path class="st1" d="M48.2,23c0,1.5-0.1,4.6-0.2,6.4c1-1.5,2.2-3,2.8-3.9c0.7-0.9,2.4-2.6,3.2-2.6c0.3,0,0.4,0.4,0.4,1.3
		c0,1.1-0.3,3.3-0.3,5c0,2.5,0.6,3.3,1.2,3.8c-0.4,0.6-1.4,1.5-2,1.5c-0.7,0-0.9-2.4-0.9-3.9c0-1.9,0.2-3.9,0.2-5.4
		c0-0.5-0.4-0.6-1.4,0.6c-1.2,1.5-2.6,3.8-3.2,6.7c-0.5,1-1.4,1.7-1.9,1.9c0.1-2.8,0.4-6.7,0.4-10C46.9,23.7,47.7,23.1,48.2,23"/>
	<path class="st1" d="M61.5,33.8c-0.9,0.6-2,1.1-3.2,1.1c-0.9,0-2.3-0.3-2.3-1.7c0-1.6,1.1-2.6,1.8-2.6c-0.2,0.6-0.4,1.1-0.4,1.7
		c0,1.1,0.7,1.7,1.7,1.7c0.8,0,1.5-0.3,2.2-0.9c0.6-0.5,0.9-1.2,0.9-1.9c0-1.2-0.8-1.7-2.2-2.2c-1.3-0.4-3-0.9-3-2.3
		c0-0.9,1.1-2,2-2.7c1.1-0.9,2.4-1.5,3.6-1.5c0.3,0,1.1,0.1,1.3,0.2c-0.2,0.6-0.6,1.1-1.2,1.4c-0.4-0.2-1.1-0.4-1.7-0.4
		c-0.5,0-1,0.1-1.4,0.4c-0.4,0.3-0.7,0.8-0.7,1.4c0,0.9,0.3,1.3,2.8,2c1.6,0.5,2.4,1.2,2.4,2.4C64.1,31.8,62.5,33.1,61.5,33.8"/>
	<path class="st1" d="M68.7,19.8c-0.2,1.5-0.3,2.5-0.4,3.7c0.9,0,2.5-0.1,3.5-0.3c-0.2,0.6-1,1.1-1.1,1.1c-0.3,0.1-1.9,0.2-2.5,0.2
		C68,26,68,27.6,68,28.9c0,3,0.6,4.2,1.7,4.2c0.6,0,1.2-0.3,1.9-1.1c0,0.2,0,0.5-0.1,0.7c-1.1,1-2.7,2-3.7,2c-1,0-1.5-2.3-1.5-4.4
		c0-1.7,0.1-4,0.3-5.7c-0.6,0-1.3,0.1-1.9,0.1c0.2-0.4,0.5-0.8,0.7-0.9c0.2-0.1,0.5-0.2,1.3-0.3c0.1-0.8,0.1-2.1,0.2-2.6
		C67.3,20.4,68,20,68.7,19.8"/>
	<path class="st1" d="M74.4,28.6c0,2.8,0.3,4.5,0.8,4.8c-0.3,0.8-1.1,1.2-1.6,1.3c-0.6,0-1-2.2-1-5.3c0-2,0.2-4.1,0.3-5.2
		c0.5-0.7,1.4-1.3,1.8-1.3C74.5,25.2,74.4,27.1,74.4,28.6 M75.2,19c0,0.9-0.6,1.9-1.1,1.9c-0.6,0-1-0.8-1-1c0-0.8,0.6-1.8,1.1-1.8
		C74.7,18.1,75.2,18.7,75.2,19"/>
	<path class="st1" d="M80,19.8c-0.2,1.5-0.3,2.5-0.4,3.7c0.9,0,2.5-0.1,3.5-0.3c-0.2,0.6-1,1.1-1.1,1.1c-0.3,0.1-1.9,0.2-2.5,0.2
		c-0.1,1.4-0.2,3-0.2,4.3c0,3,0.6,4.2,1.7,4.2c0.6,0,1.2-0.3,1.9-1.1c0,0.2,0,0.5-0.1,0.7c-1.1,1-2.7,2-3.7,2c-1,0-1.5-2.3-1.5-4.4
		c0-1.7,0.1-4,0.3-5.7c-0.6,0-1.3,0.1-1.9,0.1c0.2-0.4,0.5-0.8,0.7-0.9c0.2-0.1,0.5-0.2,1.3-0.3c0.1-0.8,0.1-2.1,0.2-2.6
		C78.6,20.4,79.3,20,80,19.8"/>
	<path class="st1" d="M86,23c-0.3,2.5-0.5,4-0.5,5.7c0,2.7,0.2,3.8,0.6,3.8c1.2,0,3-3.5,3.4-5.1c0.2-1,0.5-2,0.6-3.6
		c0.5-0.5,1.3-1,1.9-1.1c-0.4,2.5-0.4,4.8-0.4,5.5c0,1.5,0.3,4,1.2,5c-0.5,0.7-1.3,1.2-1.7,1.2c-0.7,0-1.3-3.7-1.2-6
		c-0.7,1.5-1.4,2.5-2.2,3.6c-0.8,1.1-2,2.5-3,2.5c-0.7,0-1-1.5-1-4.4c0-1.5,0.3-5.2,0.5-6.1C84.5,23.7,85.2,23.3,86,23"/>
	<path class="st1" d="M97.2,19.9c-0.2,1.5-0.3,2.5-0.4,3.7c0.9,0,2.5-0.1,3.5-0.3c-0.2,0.6-1,1.1-1.1,1.1c-0.3,0.1-1.9,0.2-2.5,0.2
		c-0.1,1.4-0.2,3-0.2,4.3c0,3,0.6,4.2,1.7,4.2c0.6,0,1.2-0.3,1.9-1.1c0,0.2,0,0.5-0.1,0.7c-1.1,1-2.7,2-3.7,2c-1,0-1.5-2.3-1.5-4.3
		c0-1.7,0.1-4,0.3-5.7c-0.6,0-1.3,0.1-1.9,0.1c0.2-0.4,0.5-0.8,0.7-0.9c0.2-0.1,0.5-0.2,1.3-0.3c0.1-0.8,0.1-2.1,0.2-2.6
		C95.9,20.5,96.5,20,97.2,19.9"/>
	<path class="st1" d="M107.1,24.4c0,1.9-2.8,3.9-4.9,4.9c0,2.6,0.8,4.2,2,4.2c0.9,0,2.2-1.3,2.6-2.2c0.1,0.1,0.1,0.3,0.1,0.6
		c0,0.1,0,0.3,0,0.4c-1,1.2-3,2.8-4.2,2.8c-1.3,0-2.1-1.7-2.1-4c0-3.6,0.9-5.3,2.3-6.7c0.9-0.9,2.1-1.6,3.1-1.6
		C106.8,22.6,107.1,23.4,107.1,24.4 M103.5,24.2c-0.8,0.9-1.1,2.4-1.2,4.1c1.8-0.3,3-1.4,3-3.1c0-0.7-0.2-1.4-1-1.4
		C104,23.9,103.7,24.1,103.5,24.2"/>
</g>
</svg>
