<?xml version="1.0" encoding="utf-8"?>
<!-- Generator: Adobe Illustrator 27.7.0, SVG Export Plug-In . SVG Version: 6.00 Build 0)  -->
<svg version="1.1" id="Layer_1" xmlns="http://www.w3.org/2000/svg" xmlns:xlink="http://www.w3.org/1999/xlink" x="0px" y="0px"
	 viewBox="0 0 110 60" style="enable-background:new 0 0 110 60;" xml:space="preserve">
<style type="text/css">
	.st0{fill-rule:evenodd;clip-rule:evenodd;fill:#019B8C;}
	.st1{fill-rule:evenodd;clip-rule:evenodd;fill:#939598;}
	.st2{fill-rule:evenodd;clip-rule:evenodd;fill:#008B79;}
	.st3{fill-rule:evenodd;clip-rule:evenodd;fill:#008A7D;}
	.st4{fill-rule:evenodd;clip-rule:evenodd;fill:#008981;}
	.st5{fill-rule:evenodd;clip-rule:evenodd;fill:#049A8C;}
	.st6{fill-rule:evenodd;clip-rule:evenodd;fill:#009C8C;}
	.st7{fill-rule:evenodd;clip-rule:evenodd;fill:#00A18C;}
	.st8{fill-rule:evenodd;clip-rule:evenodd;fill:#00B5A7;}
	.st9{fill-rule:evenodd;clip-rule:evenodd;fill:#00B6A8;}
	.st10{fill-rule:evenodd;clip-rule:evenodd;fill:#039E8B;}
</style>
<g>
	<path class="st0" d="M54.9,38.9C55,38.9,55,39,54.9,38.9l0.1,4.3c0,0,0,0.1-0.1,0.1c-2,0-3.9,0-5.9,0c-0.1,0-0.1,0-0.1-0.1v-1.9
		c0-1.8,1.2-2.4,3-2.4H54.9L54.9,38.9z M51.5,39.8h2.4c0.1,0,0.1,0,0.1,0.1v2.5c0,0.1,0,0.1-0.1,0.1H50c-0.1,0-0.1,0-0.1-0.1v-1.3
		C49.9,40.5,50.4,39.8,51.5,39.8L51.5,39.8z M53.1,36.5c0.3,0,0.5,0.2,0.5,0.5c0,0.3-0.2,0.5-0.5,0.5c-0.3,0-0.5-0.2-0.5-0.5
		C52.5,36.7,52.8,36.5,53.1,36.5L53.1,36.5z M51.3,36.5c0.3,0,0.5,0.2,0.5,0.5c0,0.3-0.2,0.5-0.5,0.5c-0.3,0-0.5-0.2-0.5-0.5
		C50.8,36.7,51,36.5,51.3,36.5L51.3,36.5z M70.4,43.4v1.2c0,0.3-0.4,0.5-0.6,0.7c-0.2,0.2-0.2,0.3,0.2,0.3c0.6,0,1.4-0.7,1.4-1.4v-1
		v-0.9V39c0-0.1,0-0.1-0.1-0.1h-3c-1.8,0-3,0.6-3,2.4v1.9c0,0.1,0,0.1,0.1,0.1L70.4,43.4C70.4,43.4,70.4,43.4,70.4,43.4L70.4,43.4z
		 M67.9,39.8h2.4c0.1,0,0.1,0,0.1,0.1v2.5c0,0.1,0,0.1-0.1,0.1h-3.8c-0.1,0-0.1,0-0.1-0.1v-1.3C66.4,40.5,66.8,39.8,67.9,39.8
		L67.9,39.8z M62.9,38.9h0.8c0.1,0,0.1,0,0.1,0.1c0,1.6,0,2.6,0,4.1c0,2.1-1.2,2.5-1.9,2.6c-0.4,0.1-0.5-0.4-0.2-0.5
		c0.3-0.1,1-0.2,1-1.7C62.8,42.1,62.8,40.5,62.9,38.9C62.8,39,62.9,38.9,62.9,38.9L62.9,38.9z M63.4,36.5c0.3,0,0.5,0.2,0.5,0.5
		c0,0.3-0.2,0.5-0.5,0.5c-0.3,0-0.5-0.2-0.5-0.5C62.8,36.7,63.1,36.5,63.4,36.5L63.4,36.5z M60,36.5h0.8c0.1,0,0.1,0,0.1,0.1v6.7
		c0,0.1,0,0.1-0.1,0.1H60c-0.1,0-0.1,0-0.1-0.1L60,36.5C59.9,36.5,60,36.5,60,36.5L60,36.5z M57.3,38.9h0.8c0.1,0,0.1,0,0.1,0.1
		c0,1.6,0,2.6,0,4.1c0,2.1-1.2,2.5-1.9,2.6c-0.4,0.1-0.5-0.4-0.2-0.5c0.3-0.1,1-0.2,1-1.7C57.2,42.1,57.2,40.5,57.3,38.9
		C57.2,39,57.2,38.9,57.3,38.9L57.3,38.9z M2.8,44.6c0,0.3-0.4,0.5-0.6,0.7c-0.2,0.2-0.2,0.3,0.2,0.3c0.6,0,1.4-0.7,1.4-1.4v-0.9
		h5.7h32.8c0.1,0,0.1,0,0.1-0.1v-6.7c0-0.1,0-0.1-0.1-0.1h-0.8c-0.1,0-0.1,0-0.1,0.1v5.7c0,0.1,0,0.1-0.1,0.1h-2.6
		c-0.1,0-0.1,0-0.1-0.1V39c0-0.1,0-0.1-0.1-0.1h-0.8c-0.1,0-0.1,0-0.1,0.1v3.3c0,0.1,0,0.1-0.1,0.1H26.7c-0.1,0-0.1,0-0.1-0.1v-1.1
		c0-0.6,0.4-1.3,1.6-1.3h4.3c0.1,0,0.1,0,0.1-0.1V39c0,0,0-0.1-0.1-0.1h-3.9c-1.8,0-3,0.6-3,2.4v0.9c0,0.1,0,0.1-0.1,0.1h-8.7
		c-0.1,0-0.1,0-0.1-0.1v-5.7c0,0,0-0.1-0.1-0.1h-0.8c-0.1,0-0.1,0-0.1,0.1v5.7c0,0.1,0,0.1-0.1,0.1h-2.9c-0.1,0-0.1,0-0.1-0.1V39
		c0-0.1,0-0.1-0.1-0.1h-0.8c-0.1,0-0.1,0-0.1,0.1v3.2c0,0.1,0,0.1-0.1,0.1H9.7c-0.1,0-0.1,0-0.1-0.1v-0.9c0-1.8-1.2-2.4-3-2.4H2.9
		c-0.1,0-0.1,0-0.1,0.1V44.6L2.8,44.6z M7,39.8h-3c-0.1,0-0.1,0-0.1,0.1v2.4c0,0.1,0,0.1,0.1,0.1h4.5c0.1,0,0.1,0,0.1-0.1v-1.1
		C8.5,40.5,8.1,39.8,7,39.8L7,39.8z M13,44.6c0.3,0,0.5,0.2,0.5,0.5c0,0.3-0.2,0.5-0.5,0.5c-0.3,0-0.5-0.2-0.5-0.5
		C12.5,44.9,12.7,44.6,13,44.6L13,44.6z M11.3,44.6c0.3,0,0.5,0.2,0.5,0.5c0,0.3-0.2,0.5-0.5,0.5c-0.3,0-0.5-0.2-0.5-0.5
		C10.7,44.9,11,44.6,11.3,44.6L11.3,44.6z M38.9,36.5c0.3,0,0.5,0.2,0.5,0.5c0,0.3-0.2,0.5-0.5,0.5c-0.3,0-0.5-0.2-0.5-0.5
		C38.4,36.7,38.6,36.5,38.9,36.5L38.9,36.5z M37.1,36.5c0.3,0,0.5,0.2,0.5,0.5c0,0.3-0.2,0.5-0.5,0.5c-0.3,0-0.5-0.2-0.5-0.5
		C36.6,36.7,36.8,36.5,37.1,36.5L37.1,36.5z M44.2,36.5H45c0.1,0,0.1,0,0.1,0.1v6.7c0,0.1,0,0.1-0.1,0.1h-0.8c-0.1,0-0.1,0-0.1-0.1
		L44.2,36.5C44.1,36.5,44.1,36.5,44.2,36.5L44.2,36.5z"/>
	<path class="st1" d="M4.5,54.1c0.1,0.1,0.1,0.1,0.1,0l2-3.8c0-0.1,0.1-0.1,0.1-0.1h0.4c0.1,0,0.1,0.1,0.1,0.1v4.3
		c0,0.1-0.1,0.1-0.1,0.1H6.7c-0.1,0-0.1-0.1-0.1-0.1v-3.4l-1.7,3.2c-0.2,0.4-0.6,0.4-0.8,0l-1.4-2.8v2.9c0,0.1-0.1,0.1-0.1,0.1H2.1
		c-0.1,0-0.1-0.1-0.1-0.1v-4.3c0-0.1,0.1-0.1,0.1-0.1h0.4c0.1,0,0.1,0,0.1,0.1l0,0l0,0l0,0l0,0L4.5,54.1L4.5,54.1z M8.8,51.4h0.4
		c0.1,0,0.1,0.1,0.1,0.1v3.2c0,0.1-0.1,0.1-0.1,0.1H8.8c-0.1,0-0.1-0.1-0.1-0.1v-3.2C8.7,51.4,8.7,51.4,8.8,51.4L8.8,51.4z M9,50.2
		c0.2,0,0.3,0.1,0.3,0.3c0,0.2-0.1,0.3-0.3,0.3c-0.2,0-0.3-0.1-0.3-0.3C8.6,50.4,8.8,50.2,9,50.2L9,50.2z M15.4,51.4h0.4
		c0.1,0,0.1,0.1,0.1,0.1v3.2c0,0.1-0.1,0.1-0.1,0.1h-0.4c-0.1,0-0.1-0.1-0.1-0.1v-3.2C15.3,51.4,15.3,51.4,15.4,51.4L15.4,51.4z
		 M15.6,50.2c0.2,0,0.3,0.1,0.3,0.3c0,0.2-0.1,0.3-0.3,0.3s-0.3-0.1-0.3-0.3C15.2,50.4,15.4,50.2,15.6,50.2L15.6,50.2z M62.4,51.4
		h0.4c0.1,0,0.1,0.1,0.1,0.1v3.2c0,0.1-0.1,0.1-0.1,0.1h-0.4c-0.1,0-0.1-0.1-0.1-0.1v-3.2C62.3,51.4,62.3,51.4,62.4,51.4L62.4,51.4z
		 M62.6,50.2c0.2,0,0.3,0.1,0.3,0.3c0,0.2-0.1,0.3-0.3,0.3c-0.2,0-0.3-0.1-0.3-0.3C62.2,50.4,62.4,50.2,62.6,50.2L62.6,50.2z
		 M13.3,52.8c0-0.8-0.7-1.1-2.1-1.1v3c0,0.1-0.1,0.1-0.1,0.1h-0.4c-0.1,0-0.1-0.1-0.1-0.1v-3.2c0-0.1,0.1-0.1,0.1-0.1
		c0.5,0,1.1,0,1.6,0c1,0,1.5,0.6,1.5,1.6v1.7c0,0.1-0.1,0.1-0.1,0.1h-0.4c-0.1,0-0.1-0.1-0.1-0.1V52.8L13.3,52.8z M70.8,52.8
		c0-0.8-0.7-1.1-2.1-1.1v3c0,0.1-0.1,0.1-0.1,0.1h-0.4c-0.1,0-0.1-0.1-0.1-0.1v-3.2c0-0.1,0.1-0.1,0.1-0.1c0.5,0,1.1,0,1.6,0
		c1,0,1.5,0.6,1.5,1.6v1.7c0,0.1-0.1,0.1-0.1,0.1h-0.4c-0.1,0-0.1-0.1-0.1-0.1V52.8L70.8,52.8z M47.9,53.4c0,0.8,0.7,1.1,2.1,1.1v-3
		c0-0.1,0.1-0.1,0.1-0.1h0.4c0.1,0,0.1,0.1,0.1,0.1v3.2c0,0.1-0.1,0.1-0.1,0.1c-0.5,0-1.1,0-1.6,0c-1,0-1.5-0.6-1.5-1.6v-1.7
		c0-0.1,0.1-0.1,0.1-0.1h0.4c0.1,0,0.1,0.1,0.1,0.1V53.4L47.9,53.4z M20.3,53.2v-2.9c0-0.1,0.1-0.1,0.1-0.1h0.4
		c0.1,0,0.1,0.1,0.1,0.1v1c0,0,0,0.1,0.1,0.1h0.9c0,0,0.1,0,0.1,0.1v0.2c0,0,0,0.1-0.1,0.1H21c0,0-0.1,0-0.1,0.1v1.7
		c0,0.5,0.3,0.8,0.9,1c0.4,0.1,0.5,0.3,0,0.3C20.9,54.8,20.3,54.2,20.3,53.2L20.3,53.2z M59.6,53.2v-2.9c0-0.1,0.1-0.1,0.1-0.1h0.4
		c0.1,0,0.1,0.1,0.1,0.1v1c0,0,0,0.1,0.1,0.1h0.9c0,0,0.1,0,0.1,0.1v0.2c0,0,0,0.1-0.1,0.1h-0.9c0,0-0.1,0-0.1,0.1v1.7
		c0,0.5,0.3,0.8,0.9,1c0.4,0.1,0.5,0.3,0,0.3C60.1,54.8,59.6,54.2,59.6,53.2L59.6,53.2z M35,51.8v2.9c0,0.1,0.1,0.1,0.1,0.1h0.4
		c0.1,0,0.1-0.1,0.1-0.1v-2c0,0,0-0.1,0.1-0.1h0.9c0,0,0.1,0,0.1-0.1v-0.2c0,0,0-0.1-0.1-0.1h-0.9c0,0-0.1,0-0.1-0.1v-0.8
		c0-0.5,0.3-0.8,0.9-1c0.4-0.1,0.5-0.3,0-0.3C35.6,50.2,35,50.9,35,51.8L35,51.8z M22.9,53v1.7c0,0.1,0.1,0.1,0.1,0.1h0.4
		c0.1,0,0.1-0.1,0.1-0.1c0-2.2,0,1,0-2c0-0.5,0.3-0.8,0.9-1c0.4-0.1,0.5-0.3,0-0.3C23.5,51.4,22.9,52,22.9,53L22.9,53z M27.9,54.9
		C27.9,54.8,27.9,54.8,27.9,54.9c-0.3-0.1-0.5-0.1-0.8-0.1c-1,0-1.5-0.6-1.5-1.6v-1.7c0-0.1,0.1-0.1,0.1-0.1h0.4
		c0.1,0,0.1,0.1,0.1,0.1v1.9c0,0.6,0.4,1.1,0.9,1.1c0.3,0,0.9-0.3,0.9-0.9c0-0.7,0-1.4,0-2.1c0-0.1,0.1-0.1,0.1-0.1h0.4
		c0.1,0,0.1,0.1,0.1,0.1v3.8c0,0.9-0.6,1.6-1.5,1.6c-0.4,0-0.3-0.3,0-0.3c0.6-0.1,0.9-0.5,0.9-1L27.9,54.9L27.9,54.9z M39.1,50.2
		c1,0,2,0,3,0c0.1,0,0.1,0,0.1,0.1v0.3c0,0.1,0,0.1-0.1,0.1h-2.5v1.5h1.8c0.1,0,0.1,0,0.1,0.1v0.3c0,0.1,0,0.1-0.1,0.1h-1.8v1.7h2.5
		c0.1,0,0.1,0,0.1,0.1v0.3c0,0.1,0,0.1-0.1,0.1c-1,0-2,0-3,0c-0.1,0-0.1-0.1-0.1-0.1v-4.3C39,50.3,39.1,50.2,39.1,50.2L39.1,50.2z
		 M32.1,51.4h0.8c0.7,0,1.3,0.6,1.3,1.3v0.8c0,0.7-0.6,1.3-1.3,1.3h-0.8c-0.7,0-1.3-0.6-1.3-1.3v-0.8C30.8,52,31.4,51.4,32.1,51.4
		L32.1,51.4z M32.3,51.7h0.5c0.4,0,0.8,0.4,0.8,0.8v1.2c0,0.4-0.4,0.8-0.8,0.8h-0.5c-0.4,0-0.8-0.4-0.8-0.8v-1.2
		C31.5,52.1,31.9,51.7,32.3,51.7L32.3,51.7z M65.2,51.4H66c0.7,0,1.3,0.6,1.3,1.3v0.8c0,0.7-0.6,1.3-1.3,1.3h-0.8
		c-0.7,0-1.3-0.6-1.3-1.3v-0.8C63.9,52,64.5,51.4,65.2,51.4L65.2,51.4z M65.4,51.7h0.5c0.4,0,0.8,0.4,0.8,0.8v1.2
		c0,0.4-0.4,0.8-0.8,0.8h-0.5c-0.4,0-0.8-0.4-0.8-0.8v-1.2C64.6,52.1,65,51.7,65.4,51.7L65.4,51.7z M45.5,54.4
		C45.5,54.5,45.5,54.5,45.5,54.4l-1.2,0.1c-0.5,0-1-0.4-1-1v-0.9c0-0.5,0.4-1,1-1h1.2c0,0,0.1,0,0.1,0.1V54.4L45.5,54.4z M45.5,51.3
		C45.5,51.4,45.5,51.4,45.5,51.3L44,51.4c-0.7,0-1.3,0.6-1.3,1.3v0.8c0,0.7,0.6,1.3,1.3,1.3h1.6h0.2H46c0.1,0,0.1-0.1,0.1-0.1v-4.3
		c0-0.1-0.1-0.1-0.1-0.1h-0.4c-0.1,0-0.1,0.1-0.1,0.1V51.3L45.5,51.3z M57.9,53.7c0,0.3-0.2,0.9-1.2,0.8c-0.5,0-1-0.4-1-1v-0.9
		c0-0.5,0.4-1,1-1h1.2c0,0,0.1,0,0.1,0.1V53.7L57.9,53.7z M56.4,51.4c-0.7,0-1.3,0.6-1.3,1.3v0.8c0,0.7,0.6,1.3,1.3,1.3
		c0.6,0,1.4-0.1,1.5-0.1c0.1,0,0.1,0.1,0.2,0.1h0.3c0.1,0,0.1-0.1,0.1-0.1v-3.2c0-0.1-0.1-0.1-0.1-0.1
		C57.7,51.4,57.2,51.4,56.4,51.4L56.4,51.4z M52.7,54.8c-0.7,0-1.3-0.6-1.3-1.3v-0.8c0-0.7,0.6-1.3,1.3-1.3h1.7c0,0,0,0,0,0v0.2
		c0,0,0,0,0,0c-0.5,0-1,0-1.4,0c-0.5,0-1,0.4-1,1v0.9c0,0.5,0.4,1,1,1c0.5,0,1,0,1.4,0c0,0,0,0,0,0v0.2c0,0,0,0,0,0H52.7L52.7,54.8z
		 M18.8,51.7c0.3,0,0.3-0.4,0-0.5C18,51.1,17.2,51.3,17,52c-0.2,0.5,0.2,1,0.9,1.1c1,0.2,1.4,0.7,0.9,1.1c-0.2,0.2-0.9,0.1-1.4,0.2
		c-0.5,0-0.4,0.4,0,0.4c0.8,0,1.6,0.1,2-0.4c0.3-0.5,0-1.3-0.6-1.4c-0.8-0.2-1.3-0.3-1.2-0.8C17.7,51.7,18.1,51.7,18.8,51.7
		L18.8,51.7z"/>
	<path class="st2" d="M71.5,25.1c0.5,0,0.9,0.4,0.9,0.9c0,0.5-0.4,0.9-0.9,0.9c-0.5,0-0.9-0.4-0.9-0.9C70.6,25.5,71,25.1,71.5,25.1
		L71.5,25.1z"/>
	<path class="st2" d="M71.5,17c0.6,0,1,0.5,1,1c0,0.6-0.5,1-1,1c-0.6,0-1-0.5-1-1C70.5,17.5,71,17,71.5,17L71.5,17z"/>
	<path class="st3" d="M76.2,20.9c0.6,0,1,0.5,1,1c0,0.6-0.5,1-1,1c-0.6,0-1-0.5-1-1C75.2,21.3,75.6,20.9,76.2,20.9L76.2,20.9z"/>
	<path class="st3" d="M67.1,21c0.6,0,1,0.5,1,1c0,0.6-0.5,1-1,1c-0.6,0-1-0.5-1-1C66.1,21.5,66.5,21,67.1,21L67.1,21z"/>
	<path class="st4" d="M57.7,22.4c0.5,0,0.9,0.4,0.9,0.9c0,0.5-0.4,0.9-0.9,0.9c-0.5,0-0.9-0.4-0.9-0.9
		C56.8,22.9,57.2,22.4,57.7,22.4L57.7,22.4z"/>
	<path class="st4" d="M85.4,22.3c0.5,0,0.9,0.4,0.9,0.9s-0.4,0.9-0.9,0.9c-0.5,0-0.9-0.4-0.9-0.9S84.9,22.3,85.4,22.3L85.4,22.3z"/>
	<path class="st4" d="M76.4,13.4c0.6,0,1.1,0.5,1.1,1.1c0,0.6-0.5,1.1-1.1,1.1c-0.6,0-1.1-0.5-1.1-1.1
		C75.3,13.9,75.8,13.4,76.4,13.4L76.4,13.4z"/>
	<path class="st4" d="M66.9,13.5c0.6,0,1.1,0.5,1.1,1.1c0,0.6-0.5,1.1-1.1,1.1c-0.6,0-1.1-0.5-1.1-1.1C65.8,14,66.2,13.5,66.9,13.5
		L66.9,13.5z"/>
	<path class="st4" d="M62.1,17.6c0.6,0,1.1,0.5,1.1,1.1c0,0.6-0.5,1.1-1.1,1.1c-0.6,0-1.1-0.5-1.1-1.1C61,18.1,61.5,17.6,62.1,17.6
		L62.1,17.6z"/>
	<path class="st4" d="M81.2,17.4c0.6,0,1.2,0.5,1.2,1.2s-0.5,1.2-1.2,1.2c-0.6,0-1.2-0.5-1.2-1.2S80.5,17.4,81.2,17.4L81.2,17.4z"/>
	<path class="st5" d="M81.5,10.2c0.7,0,1.3,0.6,1.3,1.3c0,0.7-0.6,1.3-1.3,1.3c-0.7,0-1.3-0.6-1.3-1.3
		C80.2,10.8,80.8,10.2,81.5,10.2L81.5,10.2z"/>
	<path class="st6" d="M86.9,7.7c0.9,0,1.6,0.7,1.6,1.6c0,0.9-0.7,1.6-1.6,1.6c-0.9,0-1.6-0.7-1.6-1.6C85.3,8.5,86.1,7.7,86.9,7.7
		L86.9,7.7z"/>
	<path class="st7" d="M92.6,6c1,0,1.9,0.8,1.9,1.9c0,1-0.8,1.9-1.9,1.9c-1,0-1.9-0.8-1.9-1.9C90.7,6.8,91.5,6,92.6,6L92.6,6z"/>
	<path class="st8" d="M98.3,4.8c1.1,0,1.9,0.9,1.9,1.9c0,1.1-0.9,1.9-1.9,1.9c-1.1,0-1.9-0.9-1.9-1.9C96.4,5.7,97.3,4.8,98.3,4.8
		L98.3,4.8z"/>
	<path class="st9" d="M104.2,4c1.2,0,2.2,1,2.2,2.2c0,1.2-1,2.2-2.2,2.2c-1.2,0-2.2-1-2.2-2.2C102,5,103,4,104.2,4L104.2,4z"/>
	<path class="st5" d="M86.6,14.8c0.7,0,1.3,0.6,1.3,1.3c0,0.7-0.6,1.3-1.3,1.3c-0.7,0-1.3-0.6-1.3-1.3
		C85.3,15.3,85.9,14.8,86.6,14.8L86.6,14.8z"/>
	<path class="st6" d="M92.2,12.7c0.9,0,1.6,0.7,1.6,1.6c0,0.9-0.7,1.6-1.6,1.6c-0.9,0-1.6-0.7-1.6-1.6
		C90.6,13.4,91.3,12.7,92.2,12.7L92.2,12.7z"/>
	<path class="st7" d="M98.2,11.4c1,0,1.9,0.8,1.9,1.9c0,1-0.8,1.9-1.9,1.9c-1,0-1.9-0.8-1.9-1.9C96.3,12.2,97.1,11.4,98.2,11.4
		L98.2,11.4z"/>
	<path class="st8" d="M104.4,11.2c1.1,0,1.9,0.9,1.9,1.9c0,1.1-0.9,1.9-1.9,1.9c-1.1,0-1.9-0.9-1.9-1.9
		C102.5,12,103.3,11.2,104.4,11.2L104.4,11.2z"/>
	<path class="st5" d="M91.5,19.5c0.7,0,1.3,0.6,1.3,1.3s-0.6,1.3-1.3,1.3c-0.7,0-1.3-0.6-1.3-1.3S90.7,19.5,91.5,19.5L91.5,19.5z"/>
	<path class="st6" d="M98.2,17.9c0.9,0,1.6,0.7,1.6,1.6c0,0.9-0.7,1.6-1.6,1.6c-0.9,0-1.6-0.7-1.6-1.6
		C96.6,18.7,97.3,17.9,98.2,17.9L98.2,17.9z"/>
	<path class="st7" d="M104.6,17.8c1,0,1.7,0.8,1.7,1.7c0,1-0.8,1.7-1.7,1.7c-1,0-1.7-0.8-1.7-1.7C102.8,18.5,103.6,17.8,104.6,17.8
		L104.6,17.8z"/>
	<path class="st5" d="M61.7,10.4c0.7,0,1.3,0.6,1.3,1.3c0,0.7-0.6,1.3-1.3,1.3c-0.7,0-1.3-0.6-1.3-1.3C60.4,11,61,10.4,61.7,10.4
		L61.7,10.4z"/>
	<path class="st10" d="M56.4,8C57.2,8,58,8.7,58,9.6c0,0.9-0.7,1.6-1.6,1.6c-0.9,0-1.6-0.7-1.6-1.6C54.8,8.7,55.5,8,56.4,8L56.4,8z"
		/>
	<path class="st7" d="M50.7,6.2c1,0,1.9,0.8,1.9,1.9s-0.8,1.9-1.9,1.9c-1,0-1.9-0.8-1.9-1.9S49.7,6.2,50.7,6.2L50.7,6.2z"/>
	<path class="st8" d="M45,5.1c1.1,0,1.9,0.9,1.9,1.9C46.9,8.1,46,9,45,9C43.9,9,43,8.1,43,7C43,5.9,43.9,5.1,45,5.1L45,5.1z"/>
	<path class="st9" d="M39.1,4c1.2,0,2.2,1,2.2,2.2c0,1.2-1,2.2-2.2,2.2c-1.2,0-2.2-1-2.2-2.2C37,5,37.9,4,39.1,4L39.1,4z"/>
	<path class="st5" d="M56.7,14.9c0.7,0,1.3,0.6,1.3,1.3c0,0.7-0.6,1.3-1.3,1.3c-0.7,0-1.3-0.6-1.3-1.3C55.4,15.5,56,14.9,56.7,14.9
		L56.7,14.9z"/>
	<path class="st10" d="M51,12.9c0.9,0,1.6,0.7,1.6,1.6c0,0.9-0.7,1.6-1.6,1.6c-0.9,0-1.6-0.7-1.6-1.6C49.4,13.6,50.1,12.9,51,12.9
		L51,12.9z"/>
	<path class="st7" d="M45,11.5c1,0,1.9,0.8,1.9,1.9S46,15.2,45,15.2c-1,0-1.9-0.8-1.9-1.9S43.9,11.5,45,11.5L45,11.5z"/>
	<path class="st8" d="M38.9,11.3c1.1,0,1.9,0.9,1.9,1.9c0,1.1-0.9,1.9-1.9,1.9c-1.1,0-1.9-0.9-1.9-1.9C37,12.2,37.8,11.3,38.9,11.3
		L38.9,11.3z"/>
	<path class="st5" d="M51.8,19.7c0.7,0,1.3,0.6,1.3,1.3c0,0.7-0.6,1.3-1.3,1.3c-0.7,0-1.3-0.6-1.3-1.3
		C50.5,20.3,51.1,19.7,51.8,19.7L51.8,19.7z"/>
	<path class="st10" d="M45.3,18.1c0.9,0,1.6,0.7,1.6,1.6c0,0.9-0.7,1.6-1.6,1.6c-0.9,0-1.6-0.7-1.6-1.6
		C43.7,18.8,44.4,18.1,45.3,18.1L45.3,18.1z"/>
	<path class="st7" d="M38.6,17.9c1,0,1.7,0.8,1.7,1.7c0,1-0.8,1.7-1.7,1.7c-1,0-1.7-0.8-1.7-1.7C36.9,18.7,37.6,17.9,38.6,17.9
		L38.6,17.9z"/>
</g>
</svg>
