<?xml version="1.0" encoding="utf-8"?>
<!-- Generator: Adobe Illustrator 27.7.0, SVG Export Plug-In . SVG Version: 6.00 Build 0)  -->
<svg version="1.1" id="Layer_1" xmlns="http://www.w3.org/2000/svg" xmlns:xlink="http://www.w3.org/1999/xlink" x="0px" y="0px"
	 viewBox="0 0 110 60" style="enable-background:new 0 0 110 60;" xml:space="preserve">
<style type="text/css">
	.st0{fill:#008A5E;}
	.st1{fill:#A39161;}
</style>
<g>
	<g>
		<path class="st0" d="M95.2,20.8c0,0-2.6-5.7-8.7-3.8c0,0-0.1,0-0.2-0.2c0,0,0-0.4-0.2-0.8c-0.2,0.4-0.2,0.8-0.2,0.8
			c0,0.1-0.2,0.2-0.2,0.2c-6.2-1.9-8.7,3.8-8.7,3.8c2.2-2.3,4.7-2.2,4.7-2.2c-3.3,3-2.5,6.5-2.5,6.5c0.9-3.5,3.2-4.4,3.2-4.4
			c-1.9,4.6,1,7.6,1,7.6c-1.5-5.2,1.7-7.7,1.7-7.7c-0.3,4.4,0.9,7.7,0.9,7.7s1.2-3.3,0.9-7.7c0,0,3.2,2.5,1.7,7.7c0,0,3-3,1-7.6
			c0,0,2.3,0.9,3.2,4.4c0,0,0.8-3.5-2.5-6.5C90.5,18.6,93,18.4,95.2,20.8z"/>
		<path class="st1" d="M87.4,43.1h5.8c0,0-7.5-6.1-11.6-8.8c0,0-7.5-5.4-11.6-4.5c0,0-5.7,0.2-5.4,8.2c0,0-0.8-6,5.4-6.7
			c0,0,2.8-0.5,7.1,2.7C77.1,33.9,85.8,40.9,87.4,43.1z"/>
		<path class="st1" d="M84.7,43.1h-5.8c0,0,7.5-6.1,11.6-8.8c0,0,7.5-5.4,11.6-4.5c0,0,5.7,0.2,5.4,8.2c0,0,0.8-6-5.4-6.7
			c0,0-2.8-0.5-7.1,2.7C95,33.9,86.3,40.9,84.7,43.1z"/>
		<path class="st0" d="M78.9,32.6c2-2.9,5.2-2.7,5.2-2.7c4.9,0.2,9.4,5.4,9.4,5.4l3.5,3.3c7.3,6.2,10,0.8,10,0.8v0
			c-1.3,3.2-5,3.6-5,3.6c-5.3,0.7-10.6-5.7-10.6-5.7l-3-3C82.3,29.4,78.9,32.6,78.9,32.6L78.9,32.6z"/>
		
			<rect x="70.4" y="34.3" transform="matrix(0.7071 -0.7071 0.7071 0.7071 -4.2475 61.2363)" class="st0" width="2.8" height="2.8"/>
		<rect x="66.9" y="34.3" transform="matrix(0.7071 -0.7071 0.7071 0.7071 -5.262 58.788)" class="st0" width="2.8" height="2.8"/>
	</g>
	<g>
		<g>
			<path class="st0" d="M59.7,27.1c-2.8,0.1-3.4,2.5-3.4,2.5c-0.6,3,2.8,3.2,2.8,3.2l0.7-0.6c-0.3,0.1-1.3-0.2-1.3-0.2
				c-1.6-0.5-1.3-2.2-1.3-2.2c0.6-2.2,2.6-2,2.6-2v5.8c-0.2,0.8-0.5,0.9-0.5,0.9c-0.5,0.4-1.4,0.2-1.4,0.2l0,0.6
				c1.2,0.2,2-0.3,2-0.3c0.7-0.3,0.8-1.3,0.8-1.3v-6.6H59.7z"/>
			<path class="st0" d="M53.6,33.6c-0.2,0.8-0.5,0.9-0.5,0.9c-0.5,0.4-1.4,0.2-1.4,0.2l0,0.6c1.2,0.2,2-0.3,2-0.3
				c0.7-0.3,0.8-1.3,0.8-1.3v-5.9h-0.8V33.6z"/>
			<path class="st0" d="M46.7,33.6c-0.2,0.8-0.5,0.9-0.5,0.9c-0.5,0.4-1.4,0.2-1.4,0.2l0,0.6c1.2,0.2,2-0.3,2-0.3
				c0.7-0.3,0.8-1.3,0.8-1.3v-5.9h-0.8V33.6z"/>
			<rect x="50.1" y="23.5" class="st0" width="0.8" height="9.3"/>
			<rect x="34.6" y="23.5" class="st0" width="0.8" height="9.3"/>
			<path class="st0" d="M31.2,32.1h-2.5c0.7-3.9-1.7-4.7-1.7-4.7c-2.6-0.8-4.6,2.6-4.6,2.6c-0.2,0.3-1.1,2-1.1,2V29h-0.8v3.1H18
				v-0.7c0,0,0.1-3.1-3.5-4h-4v0.7h3.6c0,0,2.6,0.2,3,3.1v0.9H7.1v-5.2H6.3h0c-3.1,0-3.6,2.7-3.6,2.7c-0.4,3.5,2.8,3.1,2.8,3.1
				l0.6-0.6c-0.2,0-1.2,0-1.2,0c-1.7-0.5-1.4-2.4-1.4-2.4c0.6-2.2,2.8-2,2.8-2v4.5v0.3v0.3l0,0h0.8l0,0h13.2l0,0h0.8l0,0h10l0,0H32
				l0,0v-0.6v-8.6h-0.8V32.1z M24.2,28.7c2.7-1.7,3.4,0.7,3.4,0.7c0.4,0.9,0.3,2.2,0.2,2.8H22C22.3,30.1,24.2,28.7,24.2,28.7z"/>
			<path class="st0" d="M39.5,29.9c0,0-0.3,2.3,2.2,2.9H44V27h-1.4C42.5,27,39.9,27.4,39.5,29.9z M43.2,32.2h-1.5
				c-1.6-0.5-1.4-2.3-1.4-2.3c0.3-2,2-2.3,2-2.3h0.9V32.2z"/>
			<path class="st0" d="M6.5,25.6c0.4,0,0.7-0.3,0.7-0.7c0-0.4-0.3-0.7-0.7-0.7c-0.4,0-0.7,0.3-0.7,0.7C5.9,25.4,6.2,25.6,6.5,25.6z
				"/>
			
				<ellipse transform="matrix(0.9997 -2.449235e-02 2.449235e-02 0.9997 -0.6106 0.1235)" class="st0" cx="4.7" cy="25" rx="0.7" ry="0.7"/>
			<circle class="st0" cx="43.5" cy="25" r="0.7"/>
			<path class="st0" d="M54,24.3c-0.4,0-0.7,0.3-0.7,0.7c0,0.4,0.3,0.7,0.7,0.7c0.4,0,0.7-0.3,0.7-0.7C54.7,24.6,54.4,24.3,54,24.3z
				"/>
			<path class="st0" d="M41.7,25.6c0.4,0,0.7-0.3,0.7-0.7c0-0.4-0.3-0.7-0.7-0.7c-0.4,0-0.7,0.3-0.7,0.7
				C41,25.4,41.3,25.6,41.7,25.6z"/>
		</g>
		<g>
			<path class="st1" d="M15.1,36.7c-0.1,0-0.2,0-0.3,0.1c-0.1,0.1-0.1,0.2-0.1,0.3c0,0.1,0,0.2,0.1,0.3c0.1,0.1,0.2,0.1,0.3,0.1
				c0.1,0,0.2,0,0.3-0.1c0.1-0.1,0.1-0.2,0.1-0.3c0-0.1,0-0.2-0.1-0.3C15.3,36.7,15.2,36.7,15.1,36.7z"/>
			<path class="st1" d="M18.1,40.4l-0.6-0.3c-0.4-0.2-0.7-0.4-0.7-0.7c0-0.1,0.1-0.3,0.2-0.3c0.1-0.1,0.3-0.1,0.4-0.1
				c0.2,0,0.3,0,0.5,0.1c0,0,0.4,0.3,0.6,0.5l0.2-0.3l-0.6-0.4l-0.1,0c-0.2-0.1-0.4-0.1-0.6-0.1c-0.3,0-0.6,0.1-0.8,0.3
				c-0.2,0.2-0.3,0.4-0.3,0.7c0,0.3,0.1,0.5,0.3,0.7c0.1,0.1,0.4,0.2,0.7,0.4c0.3,0.2,0.6,0.3,0.7,0.3c0.2,0.2,0.4,0.4,0.4,0.6
				c0,0.2-0.1,0.3-0.2,0.4c-0.1,0.1-0.3,0.1-0.5,0.1l-0.4-0.1c-0.3-0.1-0.8-0.6-0.8-0.6l-0.3,0.2c0.3,0.4,0.7,0.6,0.7,0.6
				c0.3,0.1,0.6,0.1,0.8,0.1c0.3,0,0.6-0.1,0.9-0.3c0.3-0.2,0.4-0.5,0.4-0.8C19,41,18.7,40.6,18.1,40.4z"/>
			<path class="st1" d="M21,42c-0.3,0-0.4-0.2-0.4-0.6v-2.3h0.9v-0.3h-0.9v-1.2h-0.1c-0.1,0.3-0.2,0.4-0.3,0.5
				c-0.3,0.4-0.6,0.6-0.9,0.8v0.1h0.6v2.4c0,0.3,0,0.4,0.1,0.6c0.1,0.3,0.3,0.4,0.7,0.4c0.5,0,0.8-0.2,1-0.7h-0.2
				C21.4,41.9,21.2,42,21,42z"/>
			<path class="st1" d="M24.2,38.8c-0.1-0.1-0.2-0.1-0.4-0.1c-0.3,0-0.7,0.3-1,0.8v-0.8h-0.7v3.6h0.7v-2.5c0.2-0.4,0.4-0.6,0.6-0.6
				c0,0,0.1,0,0.3,0.1c0.1,0.1,0.2,0.1,0.3,0.1c0.1,0,0.2,0,0.3-0.1c0.1-0.1,0.1-0.2,0.1-0.2C24.4,39,24.3,38.9,24.2,38.8z"/>
			<path class="st1" d="M26.8,41.4l-1.3-2.7h-0.8l1.7,3.5l-0.3,0.6c-0.2,0.4-0.4,0.6-0.6,0.6c0,0-0.1,0-0.2-0.1
				c-0.2-0.1-0.3-0.1-0.4-0.1c-0.3,0-0.4,0.1-0.4,0.4c0,0.1,0.1,0.2,0.2,0.3C24.8,44,25,44,25.1,44c0.3,0,0.6-0.1,0.8-0.3
				c0.2-0.2,0.4-0.4,0.5-0.7l1.9-4.3H28L26.8,41.4z"/>
			<path class="st1" d="M32.8,38.7c-0.3,0-0.6,0.1-0.9,0.2c-0.3,0.2-0.5,0.4-0.7,0.7c-0.2,0.3-0.3,0.6-0.3,1c0,0.4,0.1,0.8,0.4,1.2
				c0.3,0.4,0.8,0.6,1.4,0.6c0.4,0,0.7-0.1,1-0.2c0.3-0.2,0.5-0.4,0.7-0.7c0.2-0.3,0.2-0.6,0.2-1c0-0.5-0.2-0.9-0.5-1.2
				C33.8,38.9,33.4,38.7,32.8,38.7z M32.9,42.2c-0.4,0-0.7-0.2-1-0.7c-0.2-0.4-0.2-0.8-0.2-1.2c0-0.3,0-0.6,0.1-0.8
				c0.2-0.4,0.4-0.6,0.8-0.6c0.3,0,0.6,0.1,0.8,0.4c0.3,0.4,0.4,0.9,0.4,1.5C33.9,41.7,33.5,42.2,32.9,42.2z"/>
			<path class="st1" d="M38.4,37.1c-0.2-0.2-0.5-0.3-0.8-0.3c-0.3,0-0.6,0.1-0.9,0.2c-0.5,0.3-0.8,0.6-0.8,1.3v0.2h-0.7v0.3h0.7v2.5
				c0,0.3,0,0.4-0.1,0.5c-0.1,0.2-0.2,0.3-0.5,0.3h-0.2v0.2h2.3v-0.2h-0.4c-0.2,0-0.3-0.1-0.4-0.2c-0.1-0.1-0.1-0.3-0.1-0.6v-2.5h1
				v-0.3h-1v-0.3c0-0.6,0-0.7,0.1-0.8c0.1-0.3,0.2-0.4,0.5-0.4c0.2,0,0.4,0.1,0.6,0.3c0.2,0.2,0.3,0.3,0.5,0.3c0.1,0,0.2,0,0.2-0.1
				c0.1-0.1,0.1-0.1,0.1-0.2C38.6,37.4,38.5,37.2,38.4,37.1z"/>
			<path class="st1" d="M48.5,39.1c-0.3-0.3-0.6-0.4-1.1-0.4c-0.6,0-1,0.2-1.4,0.6c-0.3,0.3-0.4,0.8-0.4,1.3c0,0.5,0.1,0.9,0.4,1.3
				c0.3,0.4,0.7,0.6,1.3,0.6c0.4,0,0.8-0.1,1.1-0.4c0.3-0.3,0.5-0.6,0.5-1L48.8,41c-0.2,0.6-0.6,0.9-1.1,0.9c-0.5,0-0.8-0.2-1.1-0.6
				c-0.2-0.3-0.3-0.7-0.3-1.1h2.7C48.9,39.7,48.8,39.4,48.5,39.1z M46.2,39.9c0-0.3,0.1-0.5,0.3-0.6c0.2-0.2,0.4-0.3,0.7-0.3
				c0.4,0,0.6,0.2,0.8,0.5c0,0.1,0.1,0.3,0.1,0.5H46.2z"/>
			<path class="st1" d="M51.1,38.6c-0.3,0-0.6,0.1-0.9,0.2c-0.3,0.2-0.5,0.4-0.5,0.7c0,0.2,0.1,0.4,0.4,0.4c0.3,0,0.4-0.1,0.4-0.4
				l0-0.2c0-0.1,0.1-0.2,0.2-0.3c0.1-0.1,0.2-0.1,0.4-0.1c0.3,0,0.5,0.1,0.6,0.3c0.1,0.1,0.1,0.4,0.1,0.6v0.1
				c-0.7,0.2-1.1,0.4-1.4,0.6c-0.5,0.3-0.7,0.6-0.7,0.9c0,0.3,0.1,0.5,0.2,0.7c0.2,0.2,0.4,0.3,0.7,0.3c0.2,0,0.3,0,0.5-0.1
				c0.1,0,0.4-0.2,0.8-0.5v0.6h0.7v-2.5c0-0.3,0-0.6-0.1-0.7C52.2,38.8,51.7,38.6,51.1,38.6z M51.7,41.5c-0.3,0.3-0.6,0.4-0.8,0.4
				c-0.2,0-0.3-0.1-0.4-0.2c-0.1-0.1-0.2-0.3-0.2-0.5c0-0.3,0.2-0.6,0.6-0.8c0.1-0.1,0.4-0.2,0.8-0.3V41.5z"/>
			<path class="st1" d="M56.2,42c-0.3,0-0.4-0.2-0.4-0.6v-2.3h0.9v-0.3h-0.9v-1.2h-0.1c-0.1,0.3-0.2,0.4-0.3,0.5
				c-0.3,0.4-0.6,0.6-0.9,0.8v0.1h0.6v2.4c0,0.3,0,0.4,0.1,0.6c0.1,0.3,0.3,0.4,0.7,0.4c0.5,0,0.8-0.3,1-0.8h-0.2
				C56.6,41.8,56.5,42,56.2,42z"/>
			<path class="st1" d="M59.8,42.2h0.7c0,0,0-0.1,0-0.1v-1.8c0-0.4,0-0.7-0.1-0.9c-0.1-0.5-0.5-0.7-0.9-0.7c-0.2,0-0.5,0.1-0.7,0.2
				c-0.1,0.1-0.3,0.3-0.6,0.5v-2.8l-0.7,0.4v5c0,0,0,0.1,0,0.1h0.7c0,0,0-0.1,0-0.1v-2.4c0.3-0.3,0.7-0.5,1-0.5c0.1,0,0.3,0,0.3,0.1
				c0.1,0.1,0.2,0.2,0.3,0.5c0,0.1,0,0.3,0,0.6v1.8C59.8,42.1,59.8,42.1,59.8,42.2z"/>
			<path class="st1" d="M54.1,39.7v-0.2v-2.8l-0.7,0.4v5c0,0,0,0.1,0,0.1h0.7c0,0,0-0.1,0-0.1V39.7z"/>
			<path class="st1" d="M15.4,39.7v-0.2v-1l-0.7,0.4v3.2c0,0,0,0.1,0,0.3h0.7c0-0.2,0-0.3,0-0.3V39.7z"/>
			<path class="st1" d="M9.4,36.7c-0.1,0-0.2,0-0.3,0.1C9,36.9,9,37,9,37.1c0,0.1,0,0.2,0.1,0.3c0.1,0.1,0.2,0.1,0.3,0.1
				c0.1,0,0.2,0,0.3-0.1c0.1-0.1,0.1-0.2,0.1-0.3c0-0.1,0-0.2-0.1-0.3C9.6,36.7,9.5,36.7,9.4,36.7z"/>
			<path class="st1" d="M9.8,39.7v-0.2v-1l-0.7,0.4v3.2c0,0,0,0.1,0,0.3h0.7c0-0.2,0-0.3,0-0.3V39.7z"/>
			<path class="st1" d="M44.6,37.7c0-0.1,0-0.2,0-0.3h-0.8c0,0.1,0,0.2,0,0.3v1.8h-2.4v-1.8c0-0.1,0-0.2,0-0.3h-0.8
				c0,0.1,0,0.1,0,0.3V42c0,0.1,0,0.2,0,0.3h0.8c0-0.1,0-0.2,0-0.3v-2.2h2.4V42c0,0.1,0,0.2,0,0.3h0.8c0-0.1,0-0.2,0-0.3V37.7z"/>
			<path class="st1" d="M12.8,38.7c-0.4,0-0.8,0.2-1.3,0.7v-0.7h-0.7v3.6h0.7v-2.7c0.3-0.3,0.7-0.5,1-0.5c0.4,0,0.6,0.3,0.6,0.9v2.3
				h0.7V40c0-0.3,0-0.6-0.1-0.7C13.6,38.9,13.3,38.7,12.8,38.7z"/>
			<polygon class="st1" points="5.3,41.2 3.5,37.5 2.5,37.5 2.5,42.3 2.9,42.3 2.9,37.9 5,42.3 5.2,42.3 7.3,37.9 7.3,42.3 
				8.1,42.3 8.1,37.5 7.1,37.5 			"/>
		</g>
	</g>
</g>
</svg>
