<?xml version="1.0" encoding="utf-8"?>
<!-- Generator: Adobe Illustrator 27.7.0, SVG Export Plug-In . SVG Version: 6.00 Build 0)  -->
<svg version="1.1" id="Layer_1" xmlns="http://www.w3.org/2000/svg" xmlns:xlink="http://www.w3.org/1999/xlink" x="0px" y="0px"
	 viewBox="0 0 110 60" style="enable-background:new 0 0 110 60;" xml:space="preserve">
<style type="text/css">
	.st0{fill:#005C4F;}
	.st1{fill:#006455;}
	.st2{fill:#006B5A;}
	.st3{fill:#01735E;}
	.st4{fill:#037D63;}
	.st5{fill:#018769;}
	.st6{fill:#048E6E;}
	.st7{fill:#1D9873;}
	.st8{fill:#2AA278;}
	.st9{fill:#36AA7D;}
	.st10{fill:#42B881;}
</style>
<g>
	<polygon class="st0" points="5,40.1 6.2,40.1 7.9,42.6 7.9,42.8 8,42.6 9.7,40.1 10.3,40.1 10.3,45 9.6,45 9.6,41.1 9.6,41.3 
		8.1,43.4 7.7,43.4 6.3,41.3 6.2,41.2 6.2,45 5.5,45 5.5,40.6 5,40.4 	"/>
	<path class="st0" d="M12.3,40.5l-0.6,0.3l-0.3-0.6l0.6-0.3L12.3,40.5z M12.2,41.6V45h-0.7v-3l-0.4-0.1v-0.3H12.2z"/>
	<path class="st0" d="M16.5,42.7V45h-0.7v-2.1c0-0.5-0.2-0.8-0.7-0.8c-0.3,0-0.7,0.2-1.2,0.6V45h-0.7v-3l-0.4-0.1v-0.3h1l0.1,0.6
		c0.5-0.4,1-0.7,1.4-0.7C16,41.5,16.5,41.9,16.5,42.7"/>
	<path class="st0" d="M18.4,40.5l-0.6,0.3l-0.3-0.6l0.6-0.3L18.4,40.5z M18.3,41.6V45h-0.7v-3l-0.4-0.1v-0.3H18.3z"/>
	<path class="st0" d="M20.6,45c-0.5,0.1-1.1,0-1.6-0.2l0.1-0.5c0.8,0.3,1.8,0.4,1.8-0.3c0-0.1-0.1-0.2-0.3-0.4
		c-0.1-0.1-0.2-0.1-0.3-0.1c-0.1,0-0.2-0.1-0.4-0.1c-0.7-0.3-1-0.5-1-1c0-1.1,1.5-1.1,2.4-0.7l-0.1,0.5c-0.7-0.3-1.6-0.3-1.6,0.2
		c0,0.2,0.1,0.3,0.3,0.4c0.1,0.1,0.2,0.1,0.4,0.2c0.1,0,0.2,0.1,0.2,0.1c0.7,0.2,1,0.5,1,1C21.5,44.6,21.2,44.9,20.6,45"/>
	<path class="st0" d="M24.1,44.9c-0.6,0.2-1,0.2-1.3,0c-0.3-0.2-0.4-0.5-0.4-0.9v-1.9h-0.6v-0.3l0.6-0.2v-0.8h0.7v0.8h0.7v0.5h-0.7
		v1.8c0,0.5,0.2,0.7,0.9,0.5L24.1,44.9z"/>
	<path class="st0" d="M25.5,42.1c0.5-0.5,0.8-0.8,1.3-0.6l-0.1,0.6c-0.5-0.1-0.8,0.1-1.3,0.7V45h-0.7v-3l-0.4-0.1v-0.3h1L25.5,42.1z
		"/>
	<polygon class="st0" points="29.9,41.6 30.6,41.6 28.7,46.4 28,46.4 28.7,44.7 28.5,44.7 27.1,41.6 27.8,41.6 28.9,44.2 	"/>
	<path class="st0" d="M34.4,44.5c0.3,0,0.6-0.1,0.8-0.3c0.2-0.2,0.3-0.5,0.3-0.9c0-0.4-0.1-0.7-0.3-0.9c-0.2-0.2-0.4-0.3-0.8-0.3
		c-0.3,0-0.6,0.1-0.8,0.3c-0.2,0.2-0.3,0.5-0.3,0.9c0,0.4,0.1,0.7,0.3,0.9C33.8,44.4,34.1,44.5,34.4,44.5 M34.4,45
		c-0.5,0-0.9-0.2-1.2-0.5c-0.3-0.3-0.5-0.8-0.5-1.3c0-0.5,0.2-1,0.5-1.3c0.3-0.3,0.7-0.5,1.2-0.5c0.5,0,0.9,0.2,1.2,0.5
		c0.3,0.3,0.5,0.8,0.5,1.3c0,0.5-0.2,1-0.5,1.3C35.3,44.9,34.9,45,34.4,45"/>
	<path class="st0" d="M38.8,40.2c-0.8-0.2-1.1,0-1.1,0.5v0.8h0.9v0.5h-0.9V45H37v-2.9h-0.5v-0.5H37v-0.8c0-0.4,0.1-0.8,0.4-1
		c0.3-0.2,0.8-0.2,1.4-0.1L38.8,40.2z"/>
	<polygon class="st0" points="44.4,40.6 42.1,40.6 42.1,42.4 43.9,42.4 43.9,43 42.1,43 42.1,45 41.4,45 41.4,40.6 40.9,40.4 
		40.9,40.1 44.4,40.1 	"/>
	<path class="st0" d="M46.1,40.5l-0.6,0.3l-0.3-0.6l0.6-0.3L46.1,40.5z M46,41.6V45h-0.7v-3l-0.4-0.1v-0.3H46z"/>
	<path class="st0" d="M50.2,42.7V45h-0.7v-2.1c0-0.5-0.2-0.8-0.7-0.8c-0.3,0-0.7,0.2-1.2,0.6V45h-0.7v-3l-0.4-0.1v-0.3h1l0.1,0.6
		c0.5-0.4,0.9-0.7,1.4-0.7C49.8,41.5,50.2,41.9,50.2,42.7"/>
	<path class="st0" d="M53.2,44l0-0.7c-0.9,0-1.3,0-1.5,0.2c-0.2,0.2-0.2,0.9,0.4,0.9C52.4,44.6,52.7,44.4,53.2,44 M51.2,44.7
		c-0.2-0.2-0.2-0.5-0.2-0.7c0-0.3,0.1-0.5,0.2-0.6c0.2-0.2,0.4-0.3,0.7-0.4c0.3,0,0.7,0,1.3,0v-0.4c0-0.5-0.6-0.7-1.7-0.3l-0.1-0.5
		c0.5-0.2,1.1-0.3,1.6-0.2c0.5,0.1,0.8,0.4,0.8,0.9l0,2.1l0.4,0.1V45h-1l0-0.5c-0.4,0.4-0.8,0.6-1.3,0.6
		C51.6,45,51.3,44.9,51.2,44.7"/>
	<path class="st0" d="M58.2,42.7V45h-0.7v-2.1c0-0.5-0.2-0.8-0.7-0.8c-0.3,0-0.7,0.2-1.2,0.6V45H55v-3l-0.4-0.1v-0.3h1l0.1,0.6
		c0.5-0.4,1-0.7,1.4-0.7C57.7,41.5,58.2,41.9,58.2,42.7"/>
	<path class="st0" d="M59.4,44.6c-0.3-0.3-0.4-0.8-0.4-1.3c0-0.5,0.1-1,0.4-1.3c0.3-0.3,0.7-0.5,1.2-0.5c0.4,0,0.8,0.1,1.2,0.3
		l-0.1,0.5c-0.4-0.2-0.7-0.3-1-0.3c-0.6,0-1,0.5-1,1.3c0,0.8,0.4,1.2,1,1.3c0.3,0,0.7-0.1,1-0.3l0.1,0.5C61.4,44.9,61,45,60.6,45
		C60.1,45.1,59.7,44.9,59.4,44.6"/>
	<path class="st0" d="M64.7,42.9c0-0.5-0.2-0.9-0.8-0.9c-0.5,0-0.9,0.4-1,0.9H64.7z M62.7,44.5c-0.3-0.3-0.4-0.8-0.4-1.3
		c0-0.5,0.1-1,0.5-1.3c0.3-0.3,0.7-0.5,1.2-0.5c1.2,0,1.5,1,1.4,1.9H63c0,0.7,0.4,1.1,1.1,1.1c0.4,0,0.7-0.1,1.1-0.3l0.1,0.4
		C64.9,44.9,64.5,45,64,45C63.4,45,63,44.9,62.7,44.5"/>
	<polygon class="st0" points="56.4,26.9 56.4,27.3 55.8,27.5 55.8,34.6 54.9,34.6 54.9,26.9 	"/>
	<polygon class="st0" points="59.4,28.1 58.5,28.6 58,27.7 58.9,27.2 	"/>
	<path class="st0" d="M58.1,29.7v5.5c0,0.6,0,1.1-1.1,0.9l-0.2,0.7c1.9,0.4,2.2-0.6,2.2-1.7v-4.8l0.6-0.2v-0.4H58.1z"/>
	<path class="st0" d="M51.8,29.7v5.5c0,0.6,0,1.1-1.1,0.9l-0.2,0.7c1.9,0.4,2.2-0.6,2.2-1.7v-4.8l0.6-0.2v-0.4H51.8z"/>
	<polygon class="st0" points="49.4,28.1 48.5,28.6 48,27.7 48.9,27.2 	"/>
	<polygon class="st0" points="47.8,28.1 46.9,28.6 46.4,27.7 47.3,27.2 	"/>
	<path class="st0" d="M47.3,33.8c-0.5,0-1.2-0.3-1.2-1.6c0-1.7,1.5-1.8,2.1-1.8h0.5v3.4H47.3z M48.1,29.7c-0.9,0-3.1,0.2-3.1,2.5
		c0,2.2,1.6,2.4,2.2,2.4h2.3v-4.3l0.6-0.2v-0.4H48.1z"/>
	<path class="st0" d="M64.4,33.8h-1.1c-0.9,0-1.5-0.7-1.5-1.6c0-0.6,0.1-1,0.4-1.3c0.3-0.3,0.6-0.5,1.1-0.5h1.1V33.8z M65.3,29.7h-2
		c-0.7,0-1.3,0.2-1.8,0.7c-0.5,0.5-0.7,1.1-0.7,1.9c0,1.7,1.5,2.3,2.5,2.3h1.1c0,1.6-1.1,1.8-2.8,1.3l-0.2,0.7
		c1.2,0.4,2.2,0.4,2.9,0c0.7-0.4,1-1,1-2V29.7z"/>
	<polygon class="st0" points="19.4,36 19.9,36.9 20.8,36.4 20.3,35.5 	"/>
	<polygon class="st0" points="17.8,36 18.3,36.9 19.2,36.4 18.7,35.5 	"/>
	<polygon class="st0" points="10,27.9 9.5,27 8.6,27.6 9.1,28.4 	"/>
	<polygon class="st0" points="8.4,27.9 7.9,27 7,27.6 7.5,28.4 	"/>
	<polygon class="st0" points="41,26.9 41,34.6 42,34.6 42,27.5 42.6,27.3 42.6,26.9 	"/>
	<path class="st0" d="M35,33.8h-1.4c-0.5,0-1.2-0.3-1.2-1.6c0-1.7,0.7-1.8,1.3-1.8s1.3,0.1,1.3,1.8V33.8z M38.3,26.9v6.9H36v-1.6
		c0-2.4-1.4-2.5-2.3-2.5c-0.9,0-2.3,0.2-2.3,2.5v0.3c0,1.3-0.7,1.3-1.2,1.3h-3.7v-6.9h-0.9v7.7h4.6c0.4,0,1.3,0.1,1.8-0.6
		c0.5,0.6,1.3,0.6,1.6,0.6h5.6v-7.1l0.6-0.2v-0.4H38.3z"/>
	<path class="st0" d="M8.9,33.3H8.3c-0.5,0-1.8-0.1-1.8-1.5c0-1.7,1.3-1.8,1.9-1.8h0.5V33.3z M22.9,26.9v6.9h-1.7
		c-0.5,0-1.2,0-1.3-1.2v-3h-1v2.8c0,1.3-0.8,1.3-1.3,1.3H10c-0.1,0-0.1,0-0.1-0.1v-3.8l0.6-0.2v-0.4H8.4c-0.9,0-2.9,0.2-2.9,2.5
		C5.5,34,7.7,34,8.3,34h0.6v0.1c0,0.2,0.2,0.4,0.4,0.4h8.4c0.4,0,1.2,0,1.7-0.5c0.5,0.6,1.4,0.5,1.7,0.5h2.7v-7.1l0.6-0.2v-0.4H22.9
		z"/>
	<path class="st0" d="M81.8,44.2c0.9,0,2.1,0.4,2.7,1l2.1,2.1c0.3,0.3,0.7,0.5,1.2,0.5c0.4,0,0.9-0.2,1.2-0.5l2.1-2.1
		c0.7-0.7,2.1-1.2,3.1-1l2.9,0.5c0.9,0.1,1.7-0.5,1.9-1.4l0.5-2.9c0.2-1,1-2.2,1.9-2.7l2.6-1.3c0.8-0.4,1.1-1.4,0.7-2.2l-1.3-2.6
		c-0.5-0.9-0.5-2.4,0-3.3l1.3-2.6c0.2-0.4,0.2-0.8,0.1-1.3c-0.1-0.4-0.4-0.8-0.8-1l-2.6-1.3c-0.9-0.5-1.8-1.6-1.9-2.7l-0.5-2.9
		c-0.1-0.4-0.3-0.8-0.7-1.1c-0.4-0.3-0.8-0.4-1.2-0.3l-2.9,0.5c-1,0.2-2.4-0.3-3.1-1l-2.1-2.1c-0.3-0.3-0.7-0.5-1.2-0.5
		c-0.4,0-0.9,0.2-1.2,0.5l-2.1,2.1c-0.7,0.7-2.1,1.2-3.1,1l-2.9-0.5c-0.9-0.1-1.7,0.5-1.9,1.4l-0.5,2.9c-0.2,1-1,2.2-1.9,2.7
		l-2.6,1.3c-0.4,0.2-0.7,0.5-0.8,1c-0.1,0.4-0.1,0.9,0.1,1.3l1.3,2.6c0.5,0.9,0.5,2.4,0,3.3L71,34.2c-0.2,0.4-0.2,0.8-0.1,1.3
		c0.1,0.4,0.4,0.8,0.8,1l2.6,1.3c0.9,0.5,1.8,1.7,1.9,2.7l0.5,2.9c0.1,0.9,1,1.5,1.9,1.4l2.9-0.5C81.6,44.2,81.7,44.2,81.8,44.2
		 M87.8,48c-0.5,0-1-0.2-1.3-0.6l-2.1-2.1c-0.7-0.7-2-1.1-2.9-0.9l-2.9,0.5c-1,0.2-2-0.5-2.2-1.6l-0.5-2.9c-0.1-0.9-0.9-2-1.8-2.5
		l-2.6-1.3c-0.5-0.2-0.8-0.6-0.9-1.1c-0.2-0.5-0.1-1,0.1-1.5l1.3-2.6c0.4-0.8,0.4-2.2,0-3l-1.3-2.6c-0.2-0.5-0.3-1-0.1-1.5
		c0.2-0.5,0.5-0.9,0.9-1.1l2.6-1.3c0.8-0.4,1.6-1.5,1.8-2.5l0.5-2.9c0.2-1,1.1-1.7,2.2-1.6l2.9,0.5c0.9,0.1,2.2-0.3,2.9-0.9l2.1-2.1
		c0.4-0.4,0.8-0.6,1.3-0.6c0.5,0,1,0.2,1.3,0.6l2.1,2.1c0.7,0.7,2,1.1,2.9,0.9l2.9-0.5c0.5-0.1,1,0,1.4,0.3c0.4,0.3,0.7,0.7,0.8,1.2
		l0.5,2.9c0.1,0.9,0.9,2,1.8,2.5l2.6,1.3c0.5,0.2,0.8,0.6,0.9,1.1c0.2,0.5,0.1,1-0.1,1.5l-1.3,2.6c-0.4,0.8-0.4,2.2,0,3l1.3,2.6
		c0.5,0.9,0.1,2.1-0.8,2.6l-2.6,1.3c-0.8,0.4-1.6,1.5-1.8,2.5l-0.5,2.9c-0.2,1-1.1,1.7-2.2,1.6l-2.9-0.5c-0.9-0.1-2.2,0.3-2.9,0.9
		l-2.1,2.1C88.7,47.8,88.3,48,87.8,48"/>
	<path class="st1" d="M82.7,43.5c1.1,0,2.4,0.4,3.1,1.1l1.3,1.2c0.8,0.7,2.1,0.7,2.8-0.1l1.2-1.3c0.8-0.9,2.5-1.5,3.7-1.4l1.8,0.2
		c0.5,0.1,1-0.1,1.5-0.4c0.4-0.3,0.7-0.8,0.7-1.3l0.2-1.8c0.1-1.2,1.1-2.7,2.2-3.3l1.5-0.9c0.5-0.3,0.8-0.7,0.9-1.2
		c0.1-0.5,0.1-1.1-0.2-1.5l-0.9-1.5c-0.6-1.1-0.7-2.8-0.2-3.9l0.7-1.6c0.5-1,0-2.2-1-2.6l-1.6-0.7c-1.1-0.5-2.2-1.9-2.4-3.1
		l-0.4-1.7c-0.2-1.1-1.3-1.8-2.4-1.6l-1.7,0.4c-1.2,0.2-2.9-0.2-3.8-1l-1.3-1.2c-0.8-0.7-2.1-0.7-2.8,0.1l-1.2,1.3
		c-0.8,0.9-2.5,1.5-3.7,1.4L79,16.8c-0.5-0.1-1,0.1-1.5,0.4c-0.4,0.3-0.7,0.8-0.7,1.3l-0.2,1.8c-0.1,1.2-1.1,2.7-2.2,3.3L73,24.4
		c-0.5,0.3-0.8,0.7-0.9,1.2c-0.1,0.5-0.1,1.1,0.2,1.5l0.9,1.5c0.6,1.1,0.7,2.8,0.2,3.9l-0.7,1.6c-0.5,1,0,2.2,1,2.6l1.6,0.7
		c1.1,0.5,2.2,1.9,2.4,3.1l0.4,1.7c0.1,0.5,0.4,1,0.9,1.3c0.4,0.3,1,0.4,1.5,0.3l1.7-0.4C82.2,43.5,82.4,43.5,82.7,43.5 M88.4,46.6
		c-0.5,0-1.1-0.2-1.5-0.6l-1.3-1.2c-0.8-0.8-2.4-1.2-3.5-1l-1.7,0.4c-0.6,0.1-1.2,0-1.7-0.3c-0.5-0.3-0.8-0.8-1-1.4l-0.4-1.7
		c-0.2-1.1-1.3-2.4-2.3-2.9l-1.6-0.7c-0.5-0.2-1-0.7-1.2-1.3c-0.2-0.6-0.2-1.2,0.1-1.7l0.7-1.6c0.5-1,0.4-2.7-0.2-3.7L72,27.3
		c-0.3-0.5-0.4-1.1-0.2-1.7c0.2-0.6,0.5-1.1,1.1-1.4l1.5-0.9c1-0.6,1.9-1.9,2-3.1l0.2-1.8c0.1-0.6,0.4-1.1,0.8-1.5
		c0.5-0.4,1.1-0.5,1.7-0.5l1.8,0.2c1.1,0.1,2.7-0.5,3.4-1.3l1.2-1.3c0.8-0.9,2.3-1,3.2-0.1l1.3,1.2c0.8,0.8,2.4,1.2,3.5,1l1.7-0.4
		c1.2-0.2,2.4,0.5,2.7,1.8l0.4,1.7c0.2,1.1,1.3,2.4,2.3,2.9l1.6,0.7c1.1,0.5,1.6,1.9,1.1,3l-0.7,1.6c-0.5,1-0.4,2.7,0.2,3.7v0
		l0.9,1.5c0.3,0.5,0.4,1.1,0.2,1.7c-0.2,0.6-0.5,1.1-1.1,1.4l-1.5,0.9c-1,0.6-1.9,1.9-2,3.1l-0.2,1.8c-0.1,0.6-0.4,1.1-0.8,1.5
		c-0.5,0.4-1.1,0.5-1.7,0.5l-1.8-0.2c-1.1-0.1-2.7,0.5-3.4,1.3l-1.2,1.3C89.6,46.3,89,46.6,88.4,46.6"/>
	<path class="st2" d="M83.6,42.8c1.2,0,2.6,0.4,3.4,1.1l0.5,0.4c1,0.8,2.5,0.7,3.3-0.3l0.4-0.5c0.9-1.1,2.8-1.9,4.2-1.8l0.6,0
		c0.6,0,1.2-0.2,1.7-0.6c0.5-0.4,0.8-1,0.8-1.6l0-0.6c0.1-1.4,1.1-3.2,2.3-3.9l0.5-0.3c1.1-0.7,1.4-2.2,0.7-3.2l-0.3-0.5
		c-0.8-1.2-0.9-3.2-0.4-4.5l0.2-0.6c0.5-1.2-0.1-2.6-1.3-3l-0.6-0.2c-1.3-0.5-2.7-2-3-3.4l-0.2-0.6c-0.3-1.3-1.6-2-2.9-1.7L93,17
		c-1.4,0.4-3.3-0.1-4.4-1L88,15.7c-0.5-0.4-1.1-0.6-1.7-0.5c-0.6,0.1-1.2,0.4-1.6,0.8l-0.4,0.5c-0.9,1.1-2.8,1.9-4.2,1.8l-0.6,0
		c-0.6,0-1.2,0.2-1.7,0.6c-0.5,0.4-0.8,1-0.8,1.6l0,0.6c-0.1,1.4-1.1,3.2-2.3,3.9l-0.5,0.3c-0.5,0.3-0.9,0.9-1,1.5
		c-0.1,0.6,0,1.2,0.3,1.8l0.3,0.5c0.8,1.2,0.9,3.2,0.4,4.5L74,34.2c-0.2,0.6-0.2,1.2,0,1.8c0.3,0.6,0.7,1,1.3,1.3l0.6,0.2
		c1.3,0.5,2.7,2,3,3.4l0.2,0.6c0.3,1.3,1.6,2,2.9,1.7l0.6-0.2C82.9,42.9,83.2,42.8,83.6,42.8 M89,45.1c-0.6,0-1.2-0.2-1.7-0.6
		l-0.5-0.4c-1-0.8-2.9-1.3-4.2-0.9L82,43.4c-1.4,0.4-2.8-0.5-3.2-1.9l-0.2-0.6c-0.3-1.3-1.6-2.7-2.9-3.2l-0.6-0.2
		c-0.6-0.3-1.2-0.7-1.4-1.4c-0.3-0.6-0.3-1.4,0-2l0.2-0.6c0.5-1.2,0.3-3.2-0.4-4.3l-0.3-0.5c-0.4-0.6-0.5-1.3-0.3-2
		c0.2-0.7,0.6-1.3,1.1-1.6l0.5-0.3c1.1-0.7,2.1-2.4,2.2-3.7l0-0.6c0-0.7,0.4-1.3,0.9-1.8c0.5-0.5,1.2-0.7,1.9-0.7l0.6,0
		c1.3,0.1,3.1-0.7,3.9-1.7l0.4-0.5c0.4-0.5,1.1-0.9,1.8-0.9c0.7-0.1,1.4,0.1,1.9,0.6l0.5,0.4c1,0.8,2.9,1.3,4.2,0.9l0.6-0.2
		c1.4-0.4,2.8,0.5,3.2,1.9l0.2,0.6c0.3,1.3,1.6,2.7,2.9,3.2l0.6,0.2c1.3,0.5,2,2,1.5,3.4l-0.2,0.6c-0.5,1.2-0.3,3.2,0.4,4.3l0.3,0.5
		c0.8,1.2,0.4,2.8-0.8,3.6l-0.5,0.3c-1.1,0.7-2.1,2.4-2.2,3.7l0,0.6c0,0.7-0.4,1.3-0.9,1.8c-0.5,0.5-1.2,0.7-1.9,0.7l-0.6,0
		c-1.3-0.1-3.1,0.7-3.9,1.7L91,44.2C90.5,44.8,89.7,45.1,89,45.1"/>
	<path class="st3" d="M84.8,42.2c1.2,0,2.4,0.3,3.3,0.9c0.5,0.4,1.2,0.5,1.8,0.4c0.6-0.1,1.2-0.4,1.6-1c0.9-1.2,2.7-2.1,4.2-2.1h0
		c1.4,0,2.5-1.1,2.5-2.5c0-1.5,1-3.3,2.2-4.2c1.1-0.8,1.3-2.3,0.5-3.4c-0.9-1.2-1.2-3.3-0.7-4.7c0.4-1.3-0.3-2.7-1.6-3.1
		c-1.4-0.5-2.9-2-3.3-3.3c-0.4-1.3-1.8-2-3.1-1.6c-1.4,0.4-3.5,0.1-4.7-0.7c-0.5-0.4-1.2-0.5-1.8-0.4c-0.6,0.1-1.2,0.4-1.6,1
		c-0.9,1.2-2.7,2.1-4.2,2.1h0c-1.4,0-2.5,1.1-2.5,2.5c0,1.5-1,3.3-2.2,4.2c-0.5,0.4-0.9,1-1,1.6c-0.1,0.6,0.1,1.3,0.4,1.8
		c0.9,1.2,1.2,3.3,0.7,4.7c-0.2,0.6-0.1,1.3,0.1,1.9c0.3,0.6,0.8,1,1.4,1.2c1.4,0.5,2.9,2,3.3,3.3c0.4,1.3,1.8,2,3.1,1.6
		C83.8,42.2,84.3,42.2,84.8,42.2 M89.5,43.8c-0.6,0-1.1-0.2-1.6-0.5c-1.1-0.8-3.1-1.1-4.4-0.7c-1.4,0.5-3-0.3-3.4-1.7
		c-0.4-1.3-1.8-2.7-3.2-3.2c-0.7-0.2-1.2-0.7-1.6-1.4c-0.3-0.6-0.4-1.4-0.2-2.1c0.4-1.3,0.1-3.3-0.7-4.4c-0.4-0.6-0.6-1.3-0.5-2
		c0.1-0.7,0.5-1.3,1.1-1.8c1.1-0.8,2-2.6,2-4c0-1.5,1.2-2.7,2.7-2.7h0c1.4,0,3.2-0.9,4-2c0.4-0.6,1.1-1,1.8-1.1
		c0.7-0.1,1.4,0.1,2,0.5c1.1,0.8,3.1,1.1,4.4,0.7c1.4-0.5,3,0.3,3.4,1.7c0.4,1.3,1.8,2.7,3.2,3.2c1.4,0.5,2.2,2,1.7,3.4
		c-0.4,1.3-0.1,3.3,0.7,4.4c0.9,1.2,0.6,2.9-0.6,3.8c-1.1,0.8-2,2.6-2,4c0,1.5-1.2,2.7-2.7,2.7h0c-1.4,0-3.2,0.9-4,2
		c-0.4,0.6-1.1,1-1.8,1.1C89.8,43.8,89.6,43.8,89.5,43.8"/>
	<path class="st4" d="M86.2,41.4c1,0,2,0.2,2.7,0.7c0.5,0.3,1.1,0.4,1.7,0.3c0.6-0.1,1.1-0.5,1.4-1c0.7-1.1,2.4-2.2,3.8-2.2
		c0.6,0,1.1-0.3,1.5-0.8c0.4-0.5,0.6-1,0.6-1.6c-0.1-1.4,0.7-3.2,1.7-4c1-0.8,1.1-2.2,0.3-3.2c-0.9-1-1.3-2.9-1-4.3
		c0.3-1.2-0.4-2.4-1.6-2.7c-1.3-0.3-2.8-1.6-3.3-2.9c-0.2-0.6-0.7-1-1.2-1.2c-0.6-0.2-1.2-0.2-1.7,0c-1.3,0.5-3.2,0.3-4.4-0.4
		c-1.1-0.7-2.5-0.3-3.1,0.7c-0.7,1.1-2.4,2.2-3.8,2.2c-1.2,0.1-2.2,1.2-2.1,2.4c0.1,1.4-0.7,3.2-1.7,4c-1,0.8-1.1,2.2-0.3,3.2
		c0.9,1,1.3,2.9,1,4.3c-0.1,0.6-0.1,1.2,0.3,1.7c0.3,0.5,0.8,0.9,1.4,1c1.3,0.3,2.8,1.6,3.3,2.9c0.2,0.6,0.7,1,1.2,1.2
		c0.6,0.2,1.2,0.2,1.7,0C85,41.5,85.6,41.4,86.2,41.4 M90.1,42.6c-0.5,0-0.9-0.1-1.3-0.4c-1.1-0.7-2.9-0.8-4.1-0.4
		c-0.6,0.2-1.3,0.2-1.9,0c-0.6-0.3-1.1-0.8-1.4-1.4c-0.5-1.2-1.9-2.4-3.1-2.7c-0.7-0.2-1.2-0.6-1.5-1.1c-0.3-0.6-0.4-1.3-0.3-1.9
		c0.3-1.2-0.1-3-0.9-4c-0.9-1.1-0.8-2.7,0.3-3.5c1-0.8,1.7-2.5,1.6-3.8c-0.1-1.4,1-2.6,2.3-2.7c1.3-0.1,2.9-1,3.5-2.1
		c0.7-1.2,2.3-1.5,3.5-0.8c1.1,0.7,2.9,0.8,4.1,0.4c0.6-0.3,1.3-0.2,1.9,0c0.6,0.3,1.1,0.8,1.4,1.4c0.5,1.2,1.9,2.4,3.1,2.7
		c1.3,0.3,2.2,1.7,1.8,3.1c-0.3,1.2,0.1,3,0.9,4c0.9,1.1,0.7,2.7-0.3,3.5c-1,0.8-1.7,2.5-1.6,3.8c0,0.7-0.2,1.3-0.6,1.8
		c-0.4,0.5-1.1,0.8-1.7,0.9c-1.3,0.1-2.9,1-3.5,2.1c-0.4,0.6-0.9,1-1.6,1.1C90.5,42.6,90.3,42.6,90.1,42.6"/>
	<path class="st5" d="M87.7,40.5c0.7,0,1.5,0.1,2.1,0.4c1,0.5,2.3,0.1,2.8-0.9c0.6-1.1,2.1-2.2,3.3-2.4c1.1-0.2,1.9-1.2,1.7-2.4
		c-0.2-1.2,0.4-3,1.3-3.8c0.8-0.8,0.8-2.1,0-2.9c-0.9-0.9-1.4-2.6-1.2-3.9c0.1-0.5,0-1.1-0.4-1.5c-0.3-0.5-0.8-0.7-1.3-0.8
		c-1.2-0.2-2.7-1.3-3.3-2.4c-0.2-0.5-0.7-0.9-1.2-1c-0.5-0.2-1.1-0.1-1.6,0.1c-1.1,0.6-2.9,0.6-4,0c-0.5-0.3-1.1-0.3-1.6-0.1
		c-0.5,0.2-1,0.5-1.2,1c-0.6,1.1-2.1,2.2-3.3,2.4c-1.1,0.2-1.9,1.2-1.7,2.4c0.2,1.2-0.4,3-1.3,3.8c-0.8,0.8-0.8,2.1,0,2.9
		c0.9,0.9,1.4,2.6,1.2,3.9c-0.1,0.5,0,1.1,0.4,1.5c0.3,0.5,0.8,0.8,1.3,0.8c1.2,0.2,2.7,1.3,3.3,2.4c0.2,0.5,0.7,0.9,1.2,1
		c0.5,0.2,1.1,0.1,1.6-0.1C86.2,40.7,86.9,40.5,87.7,40.5 M90.7,41.5c-0.4,0-0.7-0.1-1.1-0.3c-1-0.5-2.8-0.6-3.8,0
		c-0.6,0.3-1.2,0.3-1.8,0.1c-0.6-0.2-1.1-0.6-1.4-1.2c-0.5-1.1-1.9-2.1-3.1-2.3c-0.6-0.1-1.2-0.4-1.5-0.9s-0.5-1.1-0.4-1.7
		c0.2-1.2-0.3-2.8-1.2-3.6c-0.9-0.9-0.9-2.4,0-3.3c0.8-0.8,1.4-2.5,1.2-3.6c-0.2-1.3,0.7-2.5,2-2.7c1.2-0.2,2.6-1.2,3.1-2.2
		c0.3-0.6,0.8-1,1.4-1.1c0.6-0.2,1.2-0.1,1.8,0.1c1,0.5,2.8,0.6,3.8,0c0.6-0.3,1.2-0.3,1.8-0.1c0.6,0.2,1.1,0.6,1.4,1.2
		c0.5,1.1,1.9,2.1,3.1,2.3c0.6,0.1,1.2,0.4,1.5,0.9c0.4,0.5,0.5,1.1,0.4,1.7c-0.2,1.2,0.3,2.8,1.2,3.6c0.9,0.9,0.9,2.4,0,3.3
		c-0.8,0.8-1.4,2.5-1.2,3.6c0.2,1.3-0.7,2.5-2,2.7c-1.2,0.2-2.6,1.2-3.1,2.2C92.3,41,91.5,41.5,90.7,41.5"/>
	<path class="st6" d="M84.3,19.9c-0.8,0-1.5,0.5-1.8,1.2c-0.4,1.1-1.7,2.2-2.8,2.5c-1,0.3-1.6,1.3-1.4,2.3c0.3,1.1-0.1,2.8-0.8,3.7
		C77.1,30,77,30.5,77,31c0,0.5,0.3,1,0.7,1.3c0.9,0.7,1.6,2.3,1.5,3.5c-0.1,1.1,0.7,2,1.8,2c1.2,0.1,2.6,0.9,3.2,1.9
		c0.3,0.4,0.7,0.7,1.2,0.8c0.5,0.1,1,0,1.4-0.2c1-0.6,2.7-0.8,3.7-0.3c0.5,0.2,1,0.2,1.5,0c0.5-0.2,0.8-0.6,1-1
		c0.4-1.1,1.7-2.2,2.8-2.5c1-0.3,1.6-1.3,1.4-2.3c-0.3-1.1,0.1-2.8,0.8-3.7c0.3-0.4,0.5-0.9,0.4-1.4c0-0.5-0.3-1-0.7-1.3
		c-0.9-0.7-1.6-2.3-1.5-3.5c0.1-1.1-0.7-2-1.8-2c-1.2-0.1-2.6-0.9-3.2-1.9c-0.6-0.9-1.7-1.2-2.6-0.6c-1,0.6-2.7,0.8-3.7,0.3
		C84.7,20,84.5,19.9,84.3,19.9 M85.8,40.8c-0.2,0-0.3,0-0.5-0.1c-0.6-0.1-1-0.5-1.4-1c-0.6-0.9-1.9-1.7-3-1.8
		c-1.2-0.1-2.1-1.1-2-2.3c0.1-1.1-0.5-2.5-1.4-3.2c-0.4-0.4-0.7-0.9-0.8-1.5c-0.1-0.6,0.1-1.1,0.5-1.6c0.7-0.8,1-2.4,0.8-3.4
		c-0.3-1.2,0.4-2.3,1.6-2.6c1.1-0.3,2.2-1.3,2.6-2.3c0.4-1.1,1.7-1.7,2.8-1.2c1,0.4,2.6,0.3,3.5-0.3c0.5-0.3,1.1-0.4,1.6-0.3
		c0.6,0.1,1,0.5,1.4,1c0.6,0.9,1.9,1.7,3,1.8c1.2,0.1,2.1,1.1,2,2.3c-0.1,1.1,0.5,2.5,1.4,3.2c0.4,0.4,0.7,0.9,0.8,1.5
		c0.1,0.6-0.1,1.1-0.5,1.6c-0.7,0.8-1,2.4-0.8,3.4c0.3,1.2-0.4,2.3-1.6,2.6c-1.1,0.3-2.2,1.3-2.6,2.3c-0.2,0.5-0.6,1-1.2,1.2
		c-0.5,0.2-1.1,0.2-1.7,0c-1-0.4-2.6-0.3-3.5,0.3C86.6,40.7,86.2,40.8,85.8,40.8"/>
	<path class="st7" d="M82.4,37.9c1.1,0,2.4,0.6,3.1,1.4c0.3,0.4,0.7,0.6,1.2,0.7c0.5,0.1,0.9-0.1,1.3-0.4c0.8-0.7,2.4-1,3.4-0.7
		c0.5,0.1,0.9,0.1,1.3-0.2c0.4-0.2,0.7-0.6,0.8-1.1c0.3-1,1.3-2.2,2.4-2.6c0.9-0.3,1.4-1.4,1-2.3c-0.4-1-0.2-2.6,0.4-3.5
		c0.5-0.8,0.3-1.9-0.5-2.4c-0.9-0.6-1.7-2-1.7-3c0-1-0.9-1.7-1.8-1.7c-1.1,0-2.5-0.6-3.2-1.4c-0.3-0.4-0.7-0.6-1.2-0.7
		c-0.5-0.1-0.9,0.1-1.3,0.4c-0.8,0.7-2.4,1-3.4,0.7c-0.5-0.1-0.9-0.1-1.3,0.2s-0.7,0.6-0.8,1.1c-0.3,1-1.3,2.2-2.4,2.6
		c-0.4,0.2-0.8,0.5-1,0.9c-0.2,0.4-0.2,0.9,0,1.3c0.4,1,0.2,2.6-0.4,3.5c-0.3,0.4-0.3,0.9-0.3,1.3c0.1,0.5,0.4,0.9,0.8,1.1
		c0.9,0.6,1.7,2,1.7,3c0,1,0.9,1.7,1.8,1.7C82.3,37.9,82.3,37.9,82.4,37.9 M86.8,40.2c-0.1,0-0.2,0-0.2,0c-0.5-0.1-1-0.3-1.4-0.7
		c-0.6-0.8-2-1.4-3-1.3c-1.1,0.1-2.1-0.8-2.1-1.9c0-1-0.8-2.3-1.6-2.8c-0.4-0.3-0.8-0.8-0.9-1.3c-0.1-0.5,0-1.1,0.3-1.5
		c0.6-0.8,0.7-2.3,0.4-3.2c-0.2-0.5-0.2-1.1,0.1-1.5c0.2-0.5,0.6-0.9,1.1-1.1c0.9-0.4,1.9-1.4,2.2-2.4c0.1-0.5,0.5-1,1-1.2
		c0.5-0.3,1-0.3,1.5-0.2c1,0.3,2.4,0,3.2-0.7c0.4-0.3,1-0.5,1.5-0.4c0.5,0.1,1,0.3,1.4,0.7c0.6,0.8,2,1.4,3,1.3
		c1.1-0.1,2.1,0.8,2.1,1.9c0,1,0.8,2.3,1.6,2.8c0.9,0.6,1.2,1.9,0.6,2.8c-0.6,0.8-0.7,2.3-0.4,3.2c0.4,1-0.1,2.2-1.2,2.6
		c-0.9,0.4-1.9,1.4-2.2,2.4c-0.1,0.5-0.5,1-1,1.2c-0.5,0.3-1,0.3-1.5,0.2c-1-0.3-2.4,0-3.2,0.7C87.7,40.1,87.3,40.2,86.8,40.2"/>
	<path class="st8" d="M84.1,37.9c0.9,0,2,0.4,2.7,1c0.6,0.6,1.7,0.6,2.3,0c0.7-0.7,2.1-1.2,3.1-1.1c0.4,0.1,0.9-0.1,1.2-0.3
		c0.4-0.3,0.6-0.6,0.6-1.1c0.1-1,1-2.2,1.9-2.7c0.4-0.2,0.7-0.5,0.8-1c0.1-0.4,0.1-0.9-0.1-1.2c-0.5-0.9-0.5-2.4-0.1-3.3
		c0.4-0.8,0.1-1.8-0.8-2.2c-0.9-0.4-1.8-1.6-2-2.6c-0.1-0.4-0.3-0.8-0.7-1.1c-0.4-0.3-0.8-0.4-1.2-0.3c-1,0.2-2.4-0.3-3.1-1
		c-0.6-0.6-1.7-0.6-2.3,0c-0.7,0.7-2.1,1.2-3.1,1.1c-0.4-0.1-0.9,0.1-1.2,0.3c-0.4,0.3-0.6,0.6-0.6,1.1c-0.1,1-1,2.2-1.9,2.7
		c-0.4,0.2-0.7,0.5-0.8,1c-0.1,0.4-0.1,0.9,0.1,1.2c0.5,0.9,0.5,2.4,0.1,3.3c-0.4,0.8-0.1,1.8,0.8,2.2c0.9,0.4,1.8,1.6,2,2.6
		c0.1,0.4,0.3,0.8,0.7,1.1c0.4,0.3,0.8,0.4,1.2,0.3C83.8,37.9,83.9,37.9,84.1,37.9 M87.9,39.6c-0.5,0-1-0.2-1.3-0.5
		c-0.7-0.7-2-1.1-2.9-0.9c-0.5,0.1-1,0-1.4-0.3c-0.4-0.3-0.7-0.7-0.8-1.2c-0.2-0.9-1-2-1.8-2.4c-0.9-0.5-1.3-1.6-0.9-2.5
		c0.4-0.8,0.4-2.2,0-3c-0.2-0.4-0.3-1-0.1-1.4c0.1-0.5,0.5-0.9,0.9-1.1c0.8-0.4,1.6-1.6,1.7-2.5c0.1-0.5,0.3-0.9,0.7-1.3
		s0.9-0.4,1.4-0.4c0.9,0.1,2.2-0.3,2.9-1c0.7-0.8,1.9-0.8,2.7,0c0.7,0.7,2,1.1,2.9,0.9c0.5-0.1,1,0,1.4,0.3s0.7,0.7,0.8,1.2
		c0.2,0.9,1,2,1.8,2.4c0.9,0.5,1.3,1.6,0.9,2.5c-0.4,0.8-0.4,2.2,0,3c0.2,0.4,0.3,1,0.1,1.4c-0.1,0.5-0.5,0.9-0.9,1.1
		c-0.8,0.4-1.6,1.6-1.7,2.5c-0.1,0.5-0.3,0.9-0.7,1.3c-0.4,0.3-0.9,0.4-1.4,0.4c-0.9-0.1-2.2,0.3-2.9,1
		C88.9,39.4,88.4,39.6,87.9,39.6"/>
	<path class="st9" d="M85.9,37.7c0.7,0,1.6,0.2,2.1,0.6c0.7,0.5,1.6,0.3,2.1-0.3c0.6-0.8,1.8-1.4,2.7-1.4c0.4,0,0.8-0.2,1.1-0.4
		c0.3-0.3,0.4-0.7,0.4-1.1c0-0.9,0.6-2.2,1.4-2.7c0.7-0.5,0.8-1.4,0.3-2.1c-0.6-0.8-0.8-2.1-0.5-3c0.1-0.4,0.1-0.8-0.1-1.2
		c-0.2-0.4-0.5-0.6-0.9-0.8c-0.9-0.3-1.9-1.3-2.2-2.2c-0.1-0.4-0.4-0.7-0.8-0.9c-0.4-0.2-0.8-0.2-1.2-0.1c-0.9,0.3-2.3,0.1-3-0.5
		c-0.3-0.2-0.7-0.3-1.1-0.3c-0.4,0.1-0.8,0.3-1,0.6c-0.6,0.8-1.8,1.4-2.7,1.4c-0.8,0-1.5,0.7-1.5,1.5c0,0.9-0.6,2.2-1.4,2.7
		c-0.3,0.2-0.5,0.6-0.6,1c-0.1,0.4,0,0.8,0.3,1.1c0.6,0.8,0.8,2.1,0.5,3c-0.1,0.4-0.1,0.8,0.1,1.2c0.2,0.4,0.5,0.6,0.9,0.8
		c0.9,0.3,1.9,1.3,2.2,2.2c0.3,0.8,1.1,1.2,1.9,1C85.3,37.7,85.6,37.7,85.9,37.7 M88.9,38.8c-0.4,0-0.7-0.1-1-0.3
		c-0.7-0.5-2-0.7-2.8-0.4c-0.9,0.3-1.9-0.2-2.2-1.1c-0.3-0.8-1.2-1.7-2-2c-0.4-0.1-0.8-0.5-1-0.9c-0.2-0.4-0.3-0.9-0.1-1.4
		c0.3-0.8,0.1-2.1-0.4-2.8c-0.3-0.4-0.4-0.9-0.3-1.3c0.1-0.5,0.3-0.9,0.7-1.2c0.7-0.5,1.3-1.7,1.3-2.5c0-1,0.8-1.8,1.8-1.8
		c0.9,0,2-0.6,2.5-1.3c0.3-0.4,0.7-0.6,1.2-0.7c0.5-0.1,0.9,0,1.3,0.3c0.7,0.5,2,0.7,2.8,0.4c0.4-0.1,0.9-0.1,1.4,0.1
		c0.4,0.2,0.7,0.6,0.9,1c0.3,0.8,1.2,1.7,2,2c0.5,0.1,0.8,0.5,1,0.9c0.2,0.4,0.3,0.9,0.1,1.4c-0.3,0.8-0.1,2.1,0.4,2.8
		c0.3,0.4,0.4,0.9,0.3,1.3c-0.1,0.5-0.3,0.9-0.7,1.2c-0.7,0.5-1.3,1.7-1.3,2.5c0,0.5-0.2,0.9-0.5,1.3c-0.3,0.3-0.8,0.5-1.3,0.5
		c-0.9,0-2,0.6-2.5,1.3C90,38.6,89.4,38.8,88.9,38.8"/>
	<path class="st10" d="M87.8,37.3c0.5,0,1,0.1,1.4,0.3c0.3,0.2,0.7,0.2,1.1,0.1c0.4-0.1,0.6-0.4,0.8-0.7c0.4-0.8,1.4-1.5,2.3-1.7
		c0.8-0.1,1.3-0.8,1.2-1.6c-0.1-0.9,0.3-2.1,0.9-2.7c0.3-0.3,0.4-0.6,0.4-1c0-0.4-0.1-0.7-0.4-1c-0.6-0.6-1-1.8-0.9-2.7
		c0.1-0.8-0.4-1.5-1.2-1.6c-0.9-0.1-1.9-0.9-2.3-1.7c-0.2-0.3-0.5-0.6-0.8-0.7c-0.4-0.1-0.7-0.1-1.1,0.1c-0.8,0.4-2.1,0.4-2.8,0
		c-0.3-0.2-0.7-0.2-1.1-0.1c-0.4,0.1-0.6,0.4-0.8,0.7c-0.4,0.8-1.4,1.5-2.3,1.7c-0.4,0.1-0.7,0.3-0.9,0.6C81,25.6,81,26,81,26.3
		c0.1,0.9-0.3,2.1-0.9,2.7c-0.3,0.3-0.4,0.6-0.4,1c0,0.4,0.1,0.7,0.4,1c0.6,0.6,1,1.8,0.9,2.7c-0.1,0.4,0,0.7,0.3,1
		c0.2,0.3,0.5,0.5,0.9,0.6c0.9,0.1,1.9,0.9,2.3,1.7c0.2,0.3,0.5,0.6,0.8,0.7c0.4,0.1,0.7,0.1,1.1-0.1C86.7,37.3,87.2,37.3,87.8,37.3
		 M89.8,38c-0.3,0-0.5-0.1-0.7-0.2c-0.7-0.4-1.9-0.4-2.6,0c-0.4,0.2-0.8,0.2-1.3,0.1c-0.4-0.1-0.8-0.4-1-0.8
		c-0.4-0.7-1.3-1.4-2.1-1.5c-0.4-0.1-0.8-0.3-1.1-0.7c-0.3-0.4-0.4-0.8-0.3-1.2c0.1-0.8-0.2-1.9-0.8-2.5c-0.3-0.3-0.5-0.7-0.5-1.2
		c0-0.4,0.2-0.9,0.5-1.2c0.6-0.6,0.9-1.7,0.8-2.5c-0.1-0.4,0-0.9,0.3-1.2c0.3-0.4,0.6-0.6,1.1-0.7c0.8-0.1,1.7-0.8,2.1-1.5
		c0.2-0.4,0.5-0.7,1-0.8c0.4-0.1,0.9-0.1,1.3,0.1c0.7,0.4,1.9,0.4,2.6,0c0.4-0.2,0.8-0.2,1.3-0.1c0.4,0.1,0.8,0.4,1,0.8
		c0.4,0.7,1.3,1.4,2.1,1.5c0.9,0.1,1.5,1,1.4,1.9c-0.1,0.8,0.2,1.9,0.8,2.5c0.3,0.3,0.5,0.7,0.5,1.2c0,0.4-0.2,0.9-0.5,1.2
		c-0.6,0.6-0.9,1.7-0.8,2.5c0.1,0.9-0.5,1.8-1.4,1.9c-0.8,0.1-1.7,0.8-2.1,1.5c-0.2,0.4-0.5,0.7-1,0.8C90.1,37.9,90,38,89.8,38"/>
	<path class="st0" d="M93,31.5l-0.2-0.1c-0.3-0.1-0.8-0.2-1.2-0.2c-1.1,0-2.4,0.4-3.4,1c-0.3-1.8-0.2-3.8-0.1-4.4
		c0.4,0.2,0.9,0.7,1.3,1.9l0,0.2l0-0.2c0.3-1.4-0.7-2.3-0.7-2.3c0,0,0.3,0,0.7,0.2c0.3,0.2,0.8,0.5,1.3,1.2l0.1,0.2l0-0.2
		c-0.4-1.8-1.8-2.2-1.9-2.2c0,0,0.5-0.4,1.9,0.1l0.1,0l-0.1-0.1c-0.9-1-2.1-0.7-2.3-0.7l0,0c0.1-0.1,0.3-0.4,0.7-0.7l0.1-0.1l-0.2,0
		c-0.7,0.1-1.1,0.4-1.2,0.5c0-0.2,0-0.4-0.1-0.6l0-0.1l0,0.1c-0.1,0.2-0.1,0.5-0.1,0.6c-0.1-0.1-0.5-0.4-1.2-0.5l-0.2,0l0.1,0.1
		c0.4,0.3,0.6,0.6,0.7,0.7c-0.1,0-1.4-0.3-2.3,0.7l-0.1,0.1l0.1,0c1.4-0.5,1.9-0.1,1.9-0.1c-0.1,0-1.5,0.4-1.9,2.2l0,0.2l0.1-0.2
		c0.5-0.7,1-1.1,1.3-1.2c0.3-0.2,0.6-0.2,0.6-0.2h0c0,0-1,0.9-0.7,2.3l0,0.2l0-0.2c0.3-1.3,0.9-1.7,1.3-1.9c0,0.5,0.2,2.6-0.1,4.4
		c-1-0.6-2.3-1-3.4-1c0,0,0,0,0,0c-0.4,0-0.8,0.1-1.2,0.2l-0.2,0.1h0.2c2,0,3.1,0.5,4.5,1.3c0,0-0.1,0-0.1,0.1
		c-0.6,0.4-1.9,1.3-2.5,1.3c-0.1,0-0.2,0-0.3,0l-0.1,0l0.1,0.1c0.1,0.1,0.3,0.3,0.6,0.3c0.8,0,1.9-0.8,2.6-1.2
		c0.1-0.1,0.2-0.2,0.3-0.2c0.1,0.1,0.2,0.1,0.3,0.2c0.7,0.5,1.8,1.2,2.6,1.2c0.3,0,0.5-0.2,0.6-0.3l0.1-0.1l-0.1,0
		c-0.1,0-0.2,0-0.3,0c-0.6,0-2-0.9-2.5-1.3c0,0-0.1-0.1-0.1-0.1c1.4-0.8,2.6-1.3,4.5-1.3H93z"/>
</g>
</svg>
