<?xml version="1.0" encoding="utf-8"?>
<!-- Generator: Adobe Illustrator 27.7.0, SVG Export Plug-In . SVG Version: 6.00 Build 0)  -->
<svg version="1.1" id="Layer_1" xmlns="http://www.w3.org/2000/svg" xmlns:xlink="http://www.w3.org/1999/xlink" x="0px" y="0px"
	 viewBox="0 0 110 60" style="enable-background:new 0 0 110 60;" xml:space="preserve">
<style type="text/css">
	.st0{fill:#B78D33;}
	.st1{fill:#FBB42B;}
	.st2{fill:#806846;}
	.st3{fill:#5E9B4D;}
	.st4{fill:#007045;}
	.st5{fill:#BB7734;}
	.st6{fill:#65451B;}
	.st7{fill:#643419;}
	.st8{fill:#5A7239;}
	.st9{fill:#4C4E25;}
	.st10{fill:#2D2A1A;}
	.st11{fill:#374E2A;}
	.st12{fill:#29331E;}
	.st13{fill:#2A2615;}
	.st14{fill:#112118;}
	.st15{fill:#03582F;}
	.st16{fill:#044324;}
	.st17{fill:#062919;}
	.st18{fill:#062A1B;}
	.st19{fill:#0C1B15;}
	.st20{fill:#072B1B;}
	.st21{fill:#0C2018;}
	.st22{fill:#0D1E16;}
	.st23{fill:#0B1914;}
	.st24{fill:#0B1714;}
	.st25{fill:#074524;}
	.st26{fill:#0B2F1E;}
	.st27{fill:#0C2119;}
	.st28{fill:#0F2219;}
	.st29{fill:#0C1A15;}
	.st30{fill:#06090A;}
	.st31{fill:#956E41;}
</style>
<g>
	<g>
		<path class="st0" d="M86.7,11.2c2,0.2,3.8,0.3,5.6,0.5c-1.6-1.5-4-2.7-6.7-3.5c-0.7,0.3-1.4,0.5-2.1,0.8
			C84.7,9.6,85.8,10.4,86.7,11.2"/>
		<path class="st0" d="M73.3,8.2c-2.6,0.8-5,2-6.7,3.5c1.7-0.1,3.5-0.3,5.5-0.4c1-0.8,2-1.6,3.2-2.2C74.6,8.7,74,8.4,73.3,8.2"/>
		<path class="st1" d="M76.3,6.5c-2.5-0.4-4.9-0.2-6.8,0.4c1.2,0.3,2.5,0.8,3.8,1.3c1.2-0.4,2.4-0.6,3.7-0.8
			C76.7,7.1,76.5,6.8,76.3,6.5"/>
		<path class="st1" d="M84.8,12.8c0.3,0.6,0.6,1.1,0.9,1.7c2.5,1.7,4.7,3.5,6.8,5.3c-0.8-2.8-2.8-6-5.8-8.6c-1-0.1-2.1-0.2-3.1-0.2
			C84,11.6,84.4,12.2,84.8,12.8"/>
		<path class="st2" d="M85.6,8.2c1.3-0.5,2.6-0.9,3.8-1.3c-1.9-0.6-4.3-0.7-6.8-0.4c-0.2,0.3-0.5,0.6-0.7,0.9
			C83.2,7.5,84.4,7.8,85.6,8.2"/>
		<path class="st2" d="M75.2,11c-1.1,0.1-2.1,0.1-3.1,0.2c-3,2.5-4.9,5.7-5.7,8.5c2-1.8,4.3-3.6,6.8-5.3c0.3-0.6,0.6-1.1,0.9-1.7
			C74.4,12.2,74.8,11.6,75.2,11"/>
		<path class="st3" d="M81.5,11.9c-0.1,0-0.1-0.1-0.2-0.1c0.1,0.7,0.1,1.4,0.1,2.1c2.2,3.5,5.1,9.5,6,13c0.5-3.5,0.3-8.1-1.7-12.5
			C84.4,13.6,83,12.7,81.5,11.9"/>
		<path class="st3" d="M78.4,6.2c0,0,0-0.1,0-0.1v0l0,0c-1.6-1.1-3.3-1.9-4.8-2.3c0.9,0.7,1.7,1.7,2.6,2.7c0.7,0.1,1.3,0.2,2,0.4
			C78.3,6.7,78.4,6.4,78.4,6.2"/>
		<path class="st3" d="M80.4,6.1c0,0,0,0.1,0,0.1c0.1,0.2,0.1,0.5,0.1,0.7c0.7-0.2,1.3-0.3,2-0.4c0.9-1,1.7-2,2.6-2.7
			C83.7,4.2,82,5,80.4,6.1L80.4,6.1C80.4,6.1,80.4,6.1,80.4,6.1"/>
		<path class="st3" d="M77.4,11.9c-1.5,0.8-2.9,1.7-4.2,2.6c-2,4.4-2.3,9-1.7,12.5c0.9-3.5,3.9-9.5,6-13c0-0.7,0.1-1.4,0.1-2.1
			C77.5,11.9,77.5,11.9,77.4,11.9"/>
		<path class="st4" d="M80.4,6.1c-0.3-1.3-0.6-2.5-1-3.6c-0.4,1.1-0.7,2.3-1,3.6c0.3,0.2,0.7,0.5,1,0.7C79.8,6.5,80.1,6.3,80.4,6.1"
			/>
		<path class="st4" d="M79.4,10.9c-0.7,1-1.3,2.1-1.9,3c0,0,0,0,0,0v0c0,0.7,0,1.4,0,2.1c0,5.2,0.8,9.9,2,13.5c1.2-3.7,2-8.4,2-13.5
			c0-0.7,0-1.4,0-2.1c0,0,0,0,0,0c0,0,0,0,0,0C80.8,13,80.1,11.9,79.4,10.9"/>
		<path class="st5" d="M75.6,8.8c0.6-0.3,1.2-0.6,1.8-0.9c-0.1-0.2-0.3-0.4-0.4-0.6c-1.2,0.2-2.5,0.4-3.7,0.8
			C74,8.4,74.6,8.7,75.3,9C75.4,8.9,75.5,8.9,75.6,8.8"/>
		<path class="st5" d="M82.4,9.5c0.4,0.5,0.8,1,1.2,1.5c1.1,0.1,2.1,0.1,3.1,0.2c-1-0.8-2-1.6-3.2-2.2C83.2,9.1,82.8,9.3,82.4,9.5"
			/>
		<path class="st6" d="M81.5,8c0.6,0.3,1.2,0.5,1.8,0.9c0.1,0,0.2,0.1,0.3,0.2c0.7-0.3,1.4-0.6,2.1-0.8c-1.2-0.4-2.4-0.6-3.7-0.8
			C81.8,7.6,81.6,7.8,81.5,8"/>
		<path class="st6" d="M76.5,9.5c-0.4-0.2-0.8-0.3-1.2-0.5c-1.2,0.7-2.3,1.4-3.2,2.2c1-0.1,2.1-0.1,3.1-0.2
			C75.6,10.5,76.1,10,76.5,9.5"/>
		<path class="st7" d="M77.6,8.3c-0.1-0.1-0.2-0.2-0.3-0.3c-0.6,0.3-1.2,0.5-1.8,0.9c-0.1,0-0.2,0.1-0.3,0.2
			c0.4,0.2,0.8,0.3,1.2,0.5C76.9,9.1,77.3,8.7,77.6,8.3"/>
		<path class="st7" d="M82.4,9.5c0.4-0.2,0.8-0.3,1.2-0.5c-0.1-0.1-0.2-0.1-0.3-0.2c-0.6-0.3-1.2-0.6-1.8-0.9
			c-0.1,0.1-0.2,0.2-0.2,0.3C81.6,8.7,82,9.1,82.4,9.5"/>
		<path class="st8" d="M78.2,7.3c0-0.1,0-0.2,0.1-0.4c-0.7-0.2-1.4-0.3-2-0.4c0.2,0.3,0.5,0.6,0.7,0.9C77.4,7.3,77.8,7.3,78.2,7.3"
			/>
		<path class="st8" d="M83.6,11c-0.8,0-1.6-0.1-2.4-0.1c0,0.3,0.1,0.6,0.1,0.9c0.1,0,0.1,0.1,0.2,0.1c1.5,0.8,2.9,1.7,4.2,2.6
			c-0.3-0.6-0.6-1.1-0.9-1.7C84.4,12.2,84,11.6,83.6,11"/>
		<path class="st9" d="M81.2,10.9c0.8,0,1.6,0,2.4,0.1c-0.4-0.5-0.8-1-1.2-1.5c-0.4,0.2-0.9,0.4-1.3,0.6
			C81.1,10.3,81.1,10.6,81.2,10.9"/>
		<path class="st9" d="M78.2,7.3c-0.4,0-0.8,0.1-1.3,0.1c0.1,0.2,0.3,0.4,0.4,0.6c0.2-0.1,0.5-0.2,0.7-0.3
			C78.2,7.5,78.2,7.4,78.2,7.3"/>
		<path class="st10" d="M78.1,7.9c0-0.1,0-0.1,0-0.2c-0.2,0.1-0.5,0.2-0.7,0.3c0.1,0.1,0.2,0.2,0.3,0.3C77.8,8.2,78,8,78.1,7.9"/>
		<path class="st10" d="M81.2,8.3c-0.1,0.1-0.2,0.3-0.3,0.4c0.1,0.4,0.1,0.9,0.2,1.3c0.4-0.2,0.9-0.4,1.3-0.6
			C82,9.1,81.6,8.7,81.2,8.3"/>
		<path class="st11" d="M77.6,11.8c0-0.3,0.1-0.6,0.1-0.9C76.9,11,76,11,75.2,11c-0.4,0.6-0.8,1.2-1.2,1.8c-0.3,0.6-0.6,1.1-0.9,1.7
			c1.3-0.9,2.7-1.8,4.2-2.6C77.5,11.9,77.5,11.9,77.6,11.8"/>
		<path class="st11" d="M80.7,7.3c0.4,0,0.8,0.1,1.3,0.1c0.2-0.3,0.5-0.6,0.7-0.9c-0.7,0.1-1.3,0.2-2,0.4C80.6,7,80.6,7.1,80.7,7.3"
			/>
		<path class="st12" d="M76.5,9.5c-0.4,0.5-0.9,1-1.3,1.5c0.8,0,1.6-0.1,2.5-0.1c0-0.3,0.1-0.6,0.1-0.8C77.4,9.9,76.9,9.7,76.5,9.5"
			/>
		<path class="st12" d="M81.5,8c0.1-0.2,0.3-0.4,0.4-0.6c-0.4-0.1-0.8-0.1-1.3-0.1c0,0.1,0,0.3,0.1,0.4C81,7.8,81.2,7.9,81.5,8"/>
		<path class="st13" d="M80.8,7.9c0.2,0.1,0.3,0.3,0.5,0.4c0.1-0.1,0.2-0.2,0.2-0.3c-0.2-0.1-0.5-0.2-0.7-0.3
			C80.7,7.7,80.8,7.8,80.8,7.9"/>
		<path class="st13" d="M78,8.7c-0.1-0.2-0.2-0.3-0.3-0.4c-0.4,0.4-0.8,0.8-1.2,1.2c0.4,0.2,0.9,0.4,1.3,0.6
			C77.8,9.6,77.9,9.2,78,8.7"/>
		<path class="st14" d="M81.2,8.3c-0.2-0.1-0.3-0.3-0.5-0.4c0,0.3,0.1,0.6,0.1,0.9C81,8.6,81.1,8.4,81.2,8.3"/>
		<path class="st14" d="M77.6,8.3c0.1,0.1,0.2,0.3,0.3,0.4c0-0.3,0.1-0.6,0.1-0.9C78,8,77.8,8.2,77.6,8.3"/>
		<path class="st15" d="M78.5,6.1c0,0.1,0,0.1,0,0.1c-0.1,0.2-0.1,0.5-0.1,0.7C78.5,7,78.8,7,79,7.1c0.1-0.1,0.3-0.2,0.4-0.3
			C79.1,6.5,78.8,6.3,78.5,6.1C78.5,6.1,78.5,6.1,78.5,6.1L78.5,6.1z"/>
		<path class="st15" d="M79.4,10.9L79.4,10.9C79.4,10.9,79.4,10.9,79.4,10.9c0.7,1,1.3,2.1,1.9,3c0,0,0,0,0,0c0-0.7-0.1-1.4-0.1-2.1
			C80.7,11.5,80,11.2,79.4,10.9"/>
		<path class="st16" d="M79,7.1C78.8,7,78.5,7,78.3,6.9c0,0.1,0,0.2-0.1,0.4c0.2,0,0.4,0,0.6,0C78.9,7.2,79,7.1,79,7.1"/>
		<path class="st16" d="M79.4,10.9c0.6,0.3,1.2,0.6,1.8,0.9c0-0.3-0.1-0.6-0.1-0.9C80.6,10.9,80,10.9,79.4,10.9"/>
		<path class="st17" d="M78.5,7.5c0.1-0.1,0.2-0.2,0.4-0.3c-0.2,0-0.4,0-0.6,0c0,0.1,0,0.3-0.1,0.4C78.3,7.6,78.4,7.6,78.5,7.5"/>
		<path class="st18" d="M81.2,10.9c0-0.3-0.1-0.5-0.1-0.8c-0.5,0.3-1.1,0.5-1.6,0.8c0,0,0,0,0,0h0C80,10.9,80.6,10.9,81.2,10.9"/>
		<path class="st19" d="M78.1,7.7c0,0.1,0,0.1,0,0.2c0.1-0.1,0.3-0.2,0.4-0.3C78.4,7.6,78.3,7.6,78.1,7.7"/>
		<path class="st19" d="M79.4,10.9c0.6-0.3,1.1-0.5,1.6-0.8C81,9.6,81,9.2,80.9,8.7C80.4,9.4,79.9,10.2,79.4,10.9"/>
		<path class="st15" d="M79.4,10.9C79.4,10.9,79.4,10.9,79.4,10.9L79.4,10.9c-0.6,0.3-1.2,0.6-1.8,0.9c-0.1,0.7-0.1,1.4-0.1,2.1
			c0,0,0,0,0,0C78.1,13,78.8,11.9,79.4,10.9"/>
		<path class="st15" d="M79.9,7.1C80.1,7,80.3,7,80.6,6.9c0-0.2-0.1-0.5-0.1-0.7c0,0,0-0.1,0-0.1c0,0,0,0,0,0v0
			c-0.3,0.2-0.7,0.5-1,0.7C79.6,6.9,79.7,7,79.9,7.1"/>
		<path class="st20" d="M77.6,11.8c0.6-0.3,1.2-0.6,1.8-0.9c-0.6,0-1.2,0-1.7,0C77.7,11.2,77.6,11.5,77.6,11.8"/>
		<path class="st20" d="M80.7,7.3c0-0.1,0-0.2-0.1-0.4C80.3,7,80.1,7,79.9,7.1c0.1,0,0.1,0.1,0.2,0.1C80.2,7.2,80.4,7.2,80.7,7.3"/>
		<path class="st21" d="M80.4,7.5c0.1,0,0.2,0.1,0.3,0.1c0-0.1,0-0.3-0.1-0.4c-0.2,0-0.4,0-0.6,0C80.1,7.3,80.3,7.4,80.4,7.5"/>
		<path class="st22" d="M79.4,10.9c-0.6-0.3-1.1-0.5-1.6-0.8c0,0.3-0.1,0.6-0.1,0.8C78.3,10.9,78.8,10.9,79.4,10.9
			C79.4,10.9,79.4,10.9,79.4,10.9C79.4,10.9,79.4,10.9,79.4,10.9"/>
		<path class="st23" d="M77.8,10.1c0.5,0.3,1.1,0.5,1.6,0.8c-0.5-0.7-1-1.4-1.5-2.1C77.9,9.2,77.8,9.6,77.8,10.1"/>
		<path class="st24" d="M80.7,7.7c-0.1,0-0.2-0.1-0.3-0.1c0.1,0.1,0.3,0.2,0.4,0.3C80.8,7.8,80.7,7.7,80.7,7.7"/>
		<path class="st25" d="M79.4,7.2L79.4,7.2c0.1,0,0.3-0.1,0.4-0.1c-0.1-0.1-0.3-0.2-0.4-0.3C79.3,6.9,79.2,7,79,7.1
			C79.2,7.1,79.3,7.2,79.4,7.2L79.4,7.2"/>
		<path class="st26" d="M79.4,7.2c-0.1,0-0.3-0.1-0.4-0.1c-0.1,0-0.1,0.1-0.2,0.1C79,7.2,79.2,7.2,79.4,7.2"/>
		<path class="st27" d="M79.4,7.2c-0.2,0-0.4,0-0.6,0c-0.1,0.1-0.2,0.2-0.4,0.3C78.8,7.4,79.1,7.3,79.4,7.2
			C79.4,7.2,79.4,7.2,79.4,7.2"/>
		<path class="st28" d="M80,7.2c-0.1,0-0.1-0.1-0.2-0.1c-0.1,0-0.3,0.1-0.4,0.1C79.6,7.2,79.8,7.2,80,7.2"/>
		<path class="st29" d="M80.4,7.5c-0.1-0.1-0.2-0.2-0.4-0.3c-0.2,0-0.4,0-0.6,0c0,0,0,0,0,0C79.8,7.3,80.1,7.4,80.4,7.5"/>
		<path class="st30" d="M80.8,7.9c-0.1-0.1-0.3-0.2-0.4-0.3c-0.3-0.1-0.6-0.2-0.9-0.3c-0.3,0.1-0.6,0.2-0.9,0.3
			c-0.1,0.1-0.3,0.2-0.4,0.3c0,0.3-0.1,0.6-0.1,0.9c0.5,0.7,1,1.4,1.5,2.1c0,0,0,0,0,0l0,0c0.5-0.7,1-1.4,1.5-2.1
			C80.9,8.5,80.8,8.2,80.8,7.9"/>
		<path class="st0" d="M86.7,11.2c2,0.2,3.8,0.3,5.6,0.5c-1.6-1.5-4-2.7-6.7-3.5c-0.7,0.3-1.4,0.5-2.1,0.8
			C84.7,9.6,85.8,10.4,86.7,11.2"/>
		<path class="st0" d="M73.3,8.2c-2.6,0.8-5,2-6.7,3.5c1.7-0.1,3.5-0.3,5.5-0.4c1-0.8,2-1.6,3.2-2.2C74.6,8.7,74,8.4,73.3,8.2"/>
		<path class="st1" d="M76.3,6.5c-2.5-0.4-4.9-0.2-6.8,0.4c1.2,0.3,2.5,0.8,3.8,1.3c1.2-0.4,2.4-0.6,3.7-0.8
			C76.7,7.1,76.5,6.8,76.3,6.5"/>
		<path class="st1" d="M84.8,12.8c0.3,0.6,0.6,1.1,0.9,1.7c2.5,1.7,4.7,3.5,6.8,5.3c-0.8-2.8-2.8-6-5.8-8.6c-1-0.1-2.1-0.2-3.1-0.2
			C84,11.6,84.4,12.2,84.8,12.8"/>
		<path class="st2" d="M85.6,8.2c1.3-0.5,2.6-0.9,3.8-1.3c-1.9-0.6-4.3-0.7-6.8-0.4c-0.2,0.3-0.5,0.6-0.7,0.9
			C83.2,7.5,84.4,7.8,85.6,8.2"/>
		<path class="st2" d="M75.2,11c-1.1,0.1-2.1,0.1-3.1,0.2c-3,2.5-4.9,5.7-5.7,8.5c2-1.8,4.3-3.6,6.8-5.3c0.3-0.6,0.6-1.1,0.9-1.7
			C74.4,12.2,74.8,11.6,75.2,11"/>
		<path class="st3" d="M81.5,11.9c-0.1,0-0.1-0.1-0.2-0.1c0.1,0.7,0.1,1.4,0.1,2.1c2.2,3.5,5.1,9.5,6,13c0.5-3.5,0.3-8.1-1.7-12.5
			C84.4,13.6,83,12.7,81.5,11.9"/>
		<path class="st3" d="M78.4,6.2c0,0,0-0.1,0-0.1v0l0,0c-1.6-1.1-3.3-1.9-4.8-2.3c0.9,0.7,1.7,1.7,2.6,2.7c0.7,0.1,1.3,0.2,2,0.4
			C78.3,6.7,78.4,6.4,78.4,6.2"/>
		<path class="st3" d="M80.4,6.1c0,0,0,0.1,0,0.1c0.1,0.2,0.1,0.5,0.1,0.7c0.7-0.2,1.3-0.3,2-0.4c0.9-1,1.7-2,2.6-2.7
			C83.7,4.2,82,5,80.4,6.1L80.4,6.1C80.4,6.1,80.4,6.1,80.4,6.1"/>
		<path class="st3" d="M77.4,11.9c-1.5,0.8-2.9,1.7-4.2,2.6c-2,4.4-2.3,9-1.7,12.5c0.9-3.5,3.9-9.5,6-13c0-0.7,0.1-1.4,0.1-2.1
			C77.5,11.9,77.5,11.9,77.4,11.9"/>
		<path class="st4" d="M80.4,6.1c-0.3-1.3-0.6-2.5-1-3.6c-0.4,1.1-0.7,2.3-1,3.6c0.3,0.2,0.7,0.5,1,0.7C79.8,6.5,80.1,6.3,80.4,6.1"
			/>
		<path class="st4" d="M79.4,10.9c-0.7,1-1.3,2.1-1.9,3c0,0,0,0,0,0v0c0,0.7,0,1.4,0,2.1c0,5.2,0.8,9.9,2,13.5c1.2-3.7,2-8.4,2-13.5
			c0-0.7,0-1.4,0-2.1c0,0,0,0,0,0c0,0,0,0,0,0C80.8,13,80.1,11.9,79.4,10.9"/>
		<path class="st5" d="M75.6,8.8c0.6-0.3,1.2-0.6,1.8-0.9c-0.1-0.2-0.3-0.4-0.4-0.6c-1.2,0.2-2.5,0.4-3.7,0.8
			C74,8.4,74.6,8.7,75.3,9C75.4,8.9,75.5,8.9,75.6,8.8"/>
		<path class="st5" d="M82.4,9.5c0.4,0.5,0.8,1,1.2,1.5c1.1,0.1,2.1,0.1,3.1,0.2c-1-0.8-2-1.6-3.2-2.2C83.2,9.1,82.8,9.3,82.4,9.5"
			/>
		<path class="st6" d="M81.5,8c0.6,0.3,1.2,0.5,1.8,0.9c0.1,0,0.2,0.1,0.3,0.2c0.7-0.3,1.4-0.6,2.1-0.8c-1.2-0.4-2.4-0.6-3.7-0.8
			C81.8,7.6,81.6,7.8,81.5,8"/>
		<path class="st6" d="M76.5,9.5c-0.4-0.2-0.8-0.3-1.2-0.5c-1.2,0.7-2.3,1.4-3.2,2.2c1-0.1,2.1-0.1,3.1-0.2
			C75.6,10.5,76.1,10,76.5,9.5"/>
		<path class="st7" d="M77.6,8.3c-0.1-0.1-0.2-0.2-0.3-0.3c-0.6,0.3-1.2,0.5-1.8,0.9c-0.1,0-0.2,0.1-0.3,0.2
			c0.4,0.2,0.8,0.3,1.2,0.5C76.9,9.1,77.3,8.7,77.6,8.3"/>
		<path class="st7" d="M82.4,9.5c0.4-0.2,0.8-0.3,1.2-0.5c-0.1-0.1-0.2-0.1-0.3-0.2c-0.6-0.3-1.2-0.6-1.8-0.9
			c-0.1,0.1-0.2,0.2-0.2,0.3C81.6,8.7,82,9.1,82.4,9.5"/>
		<path class="st8" d="M78.2,7.3c0-0.1,0-0.2,0.1-0.4c-0.7-0.2-1.4-0.3-2-0.4c0.2,0.3,0.5,0.6,0.7,0.9C77.4,7.3,77.8,7.3,78.2,7.3"
			/>
		<path class="st8" d="M83.6,11c-0.8,0-1.6-0.1-2.4-0.1c0,0.3,0.1,0.6,0.1,0.9c0.1,0,0.1,0.1,0.2,0.1c1.5,0.8,2.9,1.7,4.2,2.6
			c-0.3-0.6-0.6-1.1-0.9-1.7C84.4,12.2,84,11.6,83.6,11"/>
		<path class="st9" d="M81.2,10.9c0.8,0,1.6,0,2.4,0.1c-0.4-0.5-0.8-1-1.2-1.5c-0.4,0.2-0.9,0.4-1.3,0.6
			C81.1,10.3,81.1,10.6,81.2,10.9"/>
		<path class="st9" d="M78.2,7.3c-0.4,0-0.8,0.1-1.3,0.1c0.1,0.2,0.3,0.4,0.4,0.6c0.2-0.1,0.5-0.2,0.7-0.3
			C78.2,7.5,78.2,7.4,78.2,7.3"/>
		<path class="st10" d="M78.1,7.9c0-0.1,0-0.1,0-0.2c-0.2,0.1-0.5,0.2-0.7,0.3c0.1,0.1,0.2,0.2,0.3,0.3C77.8,8.2,78,8,78.1,7.9"/>
		<path class="st10" d="M81.2,8.3c-0.1,0.1-0.2,0.3-0.3,0.4c0.1,0.4,0.1,0.9,0.2,1.3c0.4-0.2,0.9-0.4,1.3-0.6
			C82,9.1,81.6,8.7,81.2,8.3"/>
		<path class="st11" d="M77.6,11.8c0-0.3,0.1-0.6,0.1-0.9C76.9,11,76,11,75.2,11c-0.4,0.6-0.8,1.2-1.2,1.8c-0.3,0.6-0.6,1.1-0.9,1.7
			c1.3-0.9,2.7-1.8,4.2-2.6C77.5,11.9,77.5,11.9,77.6,11.8"/>
		<path class="st11" d="M80.7,7.3c0.4,0,0.8,0.1,1.3,0.1c0.2-0.3,0.5-0.6,0.7-0.9c-0.7,0.1-1.3,0.2-2,0.4C80.6,7,80.6,7.1,80.7,7.3"
			/>
		<path class="st12" d="M76.5,9.5c-0.4,0.5-0.9,1-1.3,1.5c0.8,0,1.6-0.1,2.5-0.1c0-0.3,0.1-0.6,0.1-0.8C77.4,9.9,76.9,9.7,76.5,9.5"
			/>
		<path class="st12" d="M81.5,8c0.1-0.2,0.3-0.4,0.4-0.6c-0.4-0.1-0.8-0.1-1.3-0.1c0,0.1,0,0.3,0.1,0.4C81,7.8,81.2,7.9,81.5,8"/>
		<path class="st13" d="M80.8,7.9c0.2,0.1,0.3,0.3,0.5,0.4c0.1-0.1,0.2-0.2,0.2-0.3c-0.2-0.1-0.5-0.2-0.7-0.3
			C80.7,7.7,80.8,7.8,80.8,7.9"/>
		<path class="st13" d="M78,8.7c-0.1-0.2-0.2-0.3-0.3-0.4c-0.4,0.4-0.8,0.8-1.2,1.2c0.4,0.2,0.9,0.4,1.3,0.6
			C77.8,9.6,77.9,9.2,78,8.7"/>
		<path class="st14" d="M81.2,8.3c-0.2-0.1-0.3-0.3-0.5-0.4c0,0.3,0.1,0.6,0.1,0.9C81,8.6,81.1,8.4,81.2,8.3"/>
		<path class="st14" d="M77.6,8.3c0.1,0.1,0.2,0.3,0.3,0.4c0-0.3,0.1-0.6,0.1-0.9C78,8,77.8,8.2,77.6,8.3"/>
		<path class="st15" d="M78.5,6.1c0,0.1,0,0.1,0,0.1c-0.1,0.2-0.1,0.5-0.1,0.7C78.5,7,78.8,7,79,7.1c0.1-0.1,0.3-0.2,0.4-0.3
			C79.1,6.5,78.8,6.3,78.5,6.1C78.5,6.1,78.5,6.1,78.5,6.1L78.5,6.1z"/>
		<path class="st15" d="M79.4,10.9L79.4,10.9C79.4,10.9,79.4,10.9,79.4,10.9c0.7,1,1.3,2.1,1.9,3c0,0,0,0,0,0c0-0.7-0.1-1.4-0.1-2.1
			C80.7,11.5,80,11.2,79.4,10.9"/>
		<path class="st16" d="M79,7.1C78.8,7,78.5,7,78.3,6.9c0,0.1,0,0.2-0.1,0.4c0.2,0,0.4,0,0.6,0C78.9,7.2,79,7.1,79,7.1"/>
		<path class="st16" d="M79.4,10.9c0.6,0.3,1.2,0.6,1.8,0.9c0-0.3-0.1-0.6-0.1-0.9C80.6,10.9,80,10.9,79.4,10.9"/>
		<path class="st17" d="M78.5,7.5c0.1-0.1,0.2-0.2,0.4-0.3c-0.2,0-0.4,0-0.6,0c0,0.1,0,0.3-0.1,0.4C78.3,7.6,78.4,7.6,78.5,7.5"/>
		<path class="st18" d="M81.2,10.9c0-0.3-0.1-0.5-0.1-0.8c-0.5,0.3-1.1,0.5-1.6,0.8c0,0,0,0,0,0h0C80,10.9,80.6,10.9,81.2,10.9"/>
		<path class="st19" d="M78.1,7.7c0,0.1,0,0.1,0,0.2c0.1-0.1,0.3-0.2,0.4-0.3C78.4,7.6,78.3,7.6,78.1,7.7"/>
		<path class="st19" d="M79.4,10.9c0.6-0.3,1.1-0.5,1.6-0.8C81,9.6,81,9.2,80.9,8.7C80.4,9.4,79.9,10.2,79.4,10.9"/>
		<path class="st15" d="M79.4,10.9C79.4,10.9,79.4,10.9,79.4,10.9L79.4,10.9c-0.6,0.3-1.2,0.6-1.8,0.9c-0.1,0.7-0.1,1.4-0.1,2.1
			c0,0,0,0,0,0C78.1,13,78.8,11.9,79.4,10.9"/>
		<path class="st15" d="M79.9,7.1C80.1,7,80.3,7,80.6,6.9c0-0.2-0.1-0.5-0.1-0.7c0,0,0-0.1,0-0.1c0,0,0,0,0,0v0
			c-0.3,0.2-0.7,0.5-1,0.7C79.6,6.9,79.7,7,79.9,7.1"/>
		<path class="st20" d="M77.6,11.8c0.6-0.3,1.2-0.6,1.8-0.9c-0.6,0-1.2,0-1.7,0C77.7,11.2,77.6,11.5,77.6,11.8"/>
		<path class="st20" d="M80.7,7.3c0-0.1,0-0.2-0.1-0.4C80.3,7,80.1,7,79.9,7.1c0.1,0,0.1,0.1,0.2,0.1C80.2,7.2,80.4,7.2,80.7,7.3"/>
		<path class="st21" d="M80.4,7.5c0.1,0,0.2,0.1,0.3,0.1c0-0.1,0-0.3-0.1-0.4c-0.2,0-0.4,0-0.6,0C80.1,7.3,80.3,7.4,80.4,7.5"/>
		<path class="st22" d="M79.4,10.9c-0.6-0.3-1.1-0.5-1.6-0.8c0,0.3-0.1,0.6-0.1,0.8C78.3,10.9,78.8,10.9,79.4,10.9
			C79.4,10.9,79.4,10.9,79.4,10.9C79.4,10.9,79.4,10.9,79.4,10.9"/>
		<path class="st23" d="M77.8,10.1c0.5,0.3,1.1,0.5,1.6,0.8c-0.5-0.7-1-1.4-1.5-2.1C77.9,9.2,77.8,9.6,77.8,10.1"/>
		<path class="st24" d="M80.7,7.7c-0.1,0-0.2-0.1-0.3-0.1c0.1,0.1,0.3,0.2,0.4,0.3C80.8,7.8,80.7,7.7,80.7,7.7"/>
		<path class="st25" d="M79.4,7.2L79.4,7.2c0.1,0,0.3-0.1,0.4-0.1c-0.1-0.1-0.3-0.2-0.4-0.3C79.3,6.9,79.2,7,79,7.1
			C79.2,7.1,79.3,7.2,79.4,7.2L79.4,7.2"/>
		<path class="st26" d="M79.4,7.2c-0.1,0-0.3-0.1-0.4-0.1c-0.1,0-0.1,0.1-0.2,0.1C79,7.2,79.2,7.2,79.4,7.2"/>
		<path class="st27" d="M79.4,7.2c-0.2,0-0.4,0-0.6,0c-0.1,0.1-0.2,0.2-0.4,0.3C78.8,7.4,79.1,7.3,79.4,7.2
			C79.4,7.2,79.4,7.2,79.4,7.2"/>
		<path class="st28" d="M80,7.2c-0.1,0-0.1-0.1-0.2-0.1c-0.1,0-0.3,0.1-0.4,0.1C79.6,7.2,79.8,7.2,80,7.2"/>
		<path class="st29" d="M80.4,7.5c-0.1-0.1-0.2-0.2-0.4-0.3c-0.2,0-0.4,0-0.6,0c0,0,0,0,0,0C79.8,7.3,80.1,7.4,80.4,7.5"/>
		<path class="st30" d="M80.8,7.9c-0.1-0.1-0.3-0.2-0.4-0.3c-0.3-0.1-0.6-0.2-0.9-0.3c-0.3,0.1-0.6,0.2-0.9,0.3
			c-0.1,0.1-0.3,0.2-0.4,0.3c0,0.3-0.1,0.6-0.1,0.9c0.5,0.7,1,1.4,1.5,2.1c0,0,0,0,0,0l0,0c0.5-0.7,1-1.4,1.5-2.1
			C80.9,8.5,80.8,8.2,80.8,7.9"/>
	</g>
	<polygon class="st31" points="46.4,57.1 46.4,57.1 46.4,57.5 46.4,57.5 46.8,57.5 46.8,57.5 46.8,57.1 46.8,57.1 	"/>
	<polygon class="st31" points="19.8,57.1 19.8,57.1 19.8,57.5 19.8,57.5 20.2,57.5 20.2,57.5 20.2,57.1 20.2,57.1 	"/>
	<polygon class="st31" points="45.7,57.1 45.7,57.1 45.7,57.5 45.7,57.5 46.1,57.5 46.1,57.5 46.1,57.1 46.1,57.1 	"/>
	<polygon class="st31" points="20.5,57.1 20.5,57.1 20.5,57.5 20.5,57.5 20.9,57.5 20.9,57.5 20.9,57.1 20.9,57.1 	"/>
	<polygon class="st31" points="49.1,57.1 49.1,57.1 49.1,57.5 49.1,57.5 49.5,57.5 49.5,57.5 49.5,57.1 49.5,57.1 	"/>
	<path class="st31" d="M57,53L57,53l-0.3,0.1l0,0l0,0V56v0.1l0,0.1H54c-0.1,0-0.1-0.1-0.1-0.2v-0.3v-0.6c0-0.4,0.2-0.5,0.5-0.5h0.4
		c0.3,0,0.5,0.1,0.5,0.1l0,0l0-0.1c0,0-0.1-0.4-0.6-0.4h-0.4c-0.5,0-0.8,0.3-0.8,0.8v0.8c0,0.1,0,0.3,0.2,0.4h-1.9v-1.9l0,0
		l-0.3,0.1l0,0v2.2c0,0.3-0.2,0.6-0.5,0.6c-0.1,0-0.4,0-0.5-0.2l0,0l-0.1,0l0,0c0.1,0.3,0.5,0.4,0.7,0.4c0.4,0,0.8-0.2,0.8-0.9h5
		l0.3-0.1l0,0L57,56.1L57,53z"/>
	<path class="st31" d="M57.7,53.1L57.7,53.1L57.7,53.1l0,3.5c0.3-0.2,0.4-0.6,0.4-0.6v-3l0,0L57.7,53.1z"/>
	<path class="st31" d="M50,56.1v-1.8l0,0l-0.3,0.1l0,0l0,0v1.7l0,0.1h-1.9c-0.3,0-0.5-0.1-0.5-0.5v-1.4l0,0L47,54.3l0,0l0,0v1.3
		c0,0.4-0.2,0.5-0.5,0.5h-3.1c-0.3,0-0.5-0.1-0.5-0.5v-1.6l0,0l-0.3,0.1c0,0-0.3-0.1-0.5-0.1c-0.5,0-0.9,0.3-0.9,0.8v0.8
		c0,0.5,0.4,0.8,0.8,0.8c0.5,0,0.6-0.3,0.6-0.4c0.1,0.4,0.3,0.5,0.7,0.5h3.4c0.2,0,0.4-0.1,0.5-0.2c0.1,0.2,0.3,0.2,0.5,0.2h2.1
		l0.3-0.1l0,0L50,56.1z M42.5,56c-0.1,0-0.2,0.1-0.5,0.1c-0.3,0-0.6-0.1-0.6-0.5v-0.6c0-0.4,0.3-0.5,0.6-0.5c0.3,0,0.5,0.2,0.5,0.5
		V56z"/>
	<polygon class="st31" points="42.7,53.6 42.7,53.6 42.7,53.2 42.7,53.2 42.3,53.2 42.3,53.2 42.3,53.6 42.3,53.6 	"/>
	<polygon class="st31" points="42,53.6 42,53.6 42,53.2 42,53.2 41.6,53.2 41.6,53.2 41.6,53.6 41.6,53.6 	"/>
	<polygon class="st31" points="18.4,53.6 18.4,53.6 18.4,53.2 18.4,53.2 18,53.2 18,53.2 18,53.6 18,53.6 	"/>
	<polygon class="st31" points="19.1,53.6 19.1,53.6 19.1,53.2 19.1,53.2 18.7,53.2 18.7,53.2 18.7,53.6 18.7,53.6 	"/>
	<path class="st31" d="M38.4,56.1V53l0,0L38,53.1l0,0l0,0v3l0,0.1h-1c-0.2,0-0.5-0.1-0.6-0.1c0-0.1,0.1-0.2,0.1-0.3v-1.2h0l0,0
		l-0.3,0.1l0,0l0,0v1.1c0,0.4-0.2,0.5-0.5,0.5c-0.1,0-0.4-0.1-0.5-0.1c0-0.1,0.1-0.2,0.1-0.3v-1.3l0,0l-0.3,0.1l0,0l0,0h0v1.1
		c0,0.4-0.2,0.5-0.4,0.5c-0.1,0-0.4-0.1-0.5-0.1v-1.6l0,0l-0.3,0.1l0,0l0,0v1.4l0,0.2h-3.3c-0.1,0-0.1-0.1-0.1-0.2v-1
		c0-0.4,0.2-0.5,0.5-0.5H31c0.3,0,0.5,0.1,0.5,0.1l0,0l0-0.1c0,0-0.1-0.4-0.6-0.4h-0.4c-0.5,0-0.8,0.3-0.8,0.8v0.8
		c0,0.1,0,0.3,0.2,0.4h-2.9c-0.2,0-0.2,0-0.3-0.1v-1.9l0,0l-0.3,0.1c0,0-0.3-0.1-0.5-0.1c-0.5,0-0.9,0.3-0.9,0.8v0.8
		c0,0.5,0.4,0.8,0.8,0.8c0.5,0,0.6-0.3,0.6-0.4l0,0.2v0.2c0,0.3-0.2,0.6-0.5,0.6c-0.1,0-0.4,0-0.5-0.2l0,0l-0.1,0l0,0
		c0.1,0.3,0.5,0.4,0.7,0.4c0.4,0,0.8-0.2,0.8-0.9c0.1,0,0.2,0.1,0.3,0.1h6.6l0,0l0.1-0.4c0,0.1,0.2,0.4,0.6,0.4
		c0.3,0,0.5-0.1,0.6-0.3c0.1,0.1,0.2,0.3,0.7,0.3c0.3,0,0.5-0.1,0.6-0.3c0.1,0.1,0.2,0.3,0.6,0.3h1.1l0.3-0.1l0,0L38.4,56.1z
		 M26.5,56.2c-0.1,0-0.2,0.1-0.5,0.1c-0.3,0-0.6-0.1-0.6-0.5v-0.6c0-0.4,0.3-0.5,0.6-0.5c0.3,0,0.5,0.2,0.5,0.5V56.2z"/>
	<path class="st31" d="M21.4,56.1l0-1.8l0,0l-0.3,0.1l0,0l0,0v1.7l0,0.1h-1.3c-0.3,0-0.5-0.1-0.5-0.5v-1.6l0,0L19,54.2
		c0,0-0.3-0.1-0.5-0.1c-0.5,0-0.9,0.3-0.9,0.8v0.8c0,0.5,0.4,0.8,0.8,0.8c0.5,0,0.6-0.3,0.6-0.4c0.1,0.4,0.3,0.5,0.7,0.5h1.6
		l0.3-0.1l0,0L21.4,56.1z M18.9,56c-0.1,0-0.2,0.1-0.5,0.1c-0.3,0-0.6-0.1-0.6-0.5v-0.6c0-0.4,0.3-0.5,0.6-0.5
		c0.3,0,0.5,0.2,0.5,0.5V56z"/>
	<path class="st31" d="M24.2,55c0-0.5-0.4-0.8-0.8-0.8H23c-0.5,0-0.6,0.4-0.6,0.4l0,0.1l0,0c0.1,0,0.2-0.1,0.5-0.1h0.4
		c0.3,0,0.5,0.2,0.5,0.5v1l0,0.1h-1.2c-0.3,0-0.6-0.1-0.7-0.1l0,0.1c0,0.1,0.2,0.4,0.7,0.4v0H24l0.3-0.1l0,0l-0.1-0.4V55z"/>
	<path class="st31" d="M39.1,53.1L39.1,53.1L39.1,53.1l0,3.5c0.3-0.2,0.4-0.6,0.4-0.6v-3l0,0L39.1,53.1z"/>
	<polygon class="st31" points="60.6,53.6 60.6,53.6 60.6,53.2 60.6,53.2 60.2,53.2 60.2,53.2 60.2,53.6 60.2,53.6 	"/>
	<polygon class="st31" points="61.3,53.6 61.3,53.6 61.3,53.2 61.3,53.2 60.9,53.2 60.9,53.2 60.9,53.6 60.9,53.6 	"/>
	<path class="st31" d="M79.4,53l-0.3,0.1l0,0l0,0v3.5c0.3-0.2,0.4-0.6,0.4-0.6L79.4,53L79.4,53z"/>
	<path class="st31" d="M78.3,56.1V53l0,0L78,53.1l0,0l0,0v3l0,0.1h-1.4v-0.6c0-0.5-0.4-0.8-0.9-0.8c-0.5,0-0.9,0.3-0.9,0.8v0.6h-1.4
		v-0.6c0-0.5-0.4-0.8-0.9-0.8c-0.5,0-0.9,0.3-0.9,0.8v0.6H70c-0.3,0-0.5-0.1-0.5-0.5V53l0,0l-0.3,0.1l0,0l0,0v2.6
		c0,0.4-0.2,0.5-0.5,0.5h-1.3c0.1-0.1,0.2-0.3,0.2-0.4v-0.5c0-0.5-0.4-0.8-0.8-0.8h-1.7c-0.3,0-0.4-0.1-0.4-0.5v-0.2
		c0-0.3,0.1-0.4,0.4-0.4l0.2,0c0.3,0,0.5,0.1,0.5,0.1l0,0l0-0.1c0,0-0.1-0.4-0.6-0.4h-0.2c-0.5,0-0.8,0.3-0.8,0.7v0.3
		c0,0.5,0.3,0.7,0.8,0.7h1.7c0.3,0,0.5,0.2,0.5,0.5V56c0,0.1-0.1,0.1-0.1,0.2h-5c-0.3,0-0.5-0.1-0.5-0.5v-0.6h0v-1l0,0l-0.3,0.1
		c0,0-0.3-0.1-0.5-0.1c-0.5,0-0.9,0.3-0.9,0.8v0.8c0,0.5,0.4,0.8,0.8,0.8c0.5,0,0.6-0.3,0.6-0.4l0,0c0.1,0.3,0.3,0.5,0.7,0.5h6.9
		c0.2,0,0.4-0.1,0.5-0.2c0.1,0.1,0.3,0.2,0.5,0.2h2c0.1,0.3,0.4,0.5,0.8,0.5s0.7-0.2,0.8-0.5h1.5c0.1,0.3,0.4,0.5,0.8,0.5
		c0.4,0,0.7-0.2,0.8-0.5h1.6l0.3-0.1l0,0L78.3,56.1z M61.1,56c-0.1,0-0.2,0.1-0.5,0.1c-0.3,0-0.6-0.1-0.6-0.5v-0.6
		c0-0.4,0.3-0.5,0.6-0.5c0.3,0,0.5,0.2,0.5,0.5V56z M73.1,56.2c0,0.4-0.2,0.5-0.5,0.5c-0.3,0-0.5-0.2-0.5-0.5v-0.5
		c0-0.4,0.2-0.5,0.5-0.5c0.3,0,0.5,0.2,0.5,0.5V56.2z M76.2,56.2c0,0.4-0.2,0.5-0.5,0.5c-0.3,0-0.5-0.2-0.5-0.5v-0.5
		c0-0.4,0.2-0.5,0.5-0.5c0.3,0,0.5,0.2,0.5,0.5V56.2z"/>
	<g>
		<polygon class="st4" points="74.5,32 74.4,32.1 74.4,32.7 74.5,32.7 75.1,32.7 75.2,32.7 75.2,32.1 75.1,32 		"/>
		<path class="st4" d="M74.6,33.5L74.6,33.5l-0.1,3.8c0,0.6-0.3,1-0.9,1c-0.2,0-0.7,0-0.9-0.3l0,0l-0.1,0.1l0,0
			c0.2,0.5,0.6,0.7,1.1,0.7c0.7,0,1.5-0.3,1.5-1.7v-3.8l0,0L74.6,33.5z"/>
		<polygon class="st4" points="67,32.7 67.1,32.7 67.1,32.1 67,32 66.4,32 66.4,32.1 66.4,32.7 66.4,32.7 		"/>
		<polygon class="st4" points="65.8,32.7 65.9,32.7 65.9,32.1 65.8,32 65.2,32 65.1,32.1 65.1,32.7 65.2,32.7 		"/>
		<path class="st4" d="M66.1,37.4c0.9,0,1.5-0.5,1.5-1.4v-1.4c0-0.9-0.6-1.4-1.5-1.4c-0.9,0-1.5,0.5-1.5,1.4V36
			C64.6,36.9,65.3,37.4,66.1,37.4z M65.2,34.8c0-0.6,0.3-0.9,0.9-0.9c0.6,0,0.9,0.3,0.9,0.9v1.1c0,0.6-0.3,0.9-0.9,0.9
			c-0.6,0-0.9-0.3-0.9-0.9V34.8z"/>
		<path class="st4" d="M72.4,36.4v-5.1l-0.1,0l-0.5,0.1l0,0l0,0v6C72.3,37,72.4,36.4,72.4,36.4z"/>
		<path class="st4" d="M67.6,38.2c0.2,0.5,0.6,0.7,1.1,0.7c0.7,0,1.5-0.3,1.5-1.7v-3.8l0,0l-0.5,0.1l-0.1,0v3.8c0,0.6-0.3,1-0.9,1
			c-0.2,0-0.7,0-0.9-0.4l0,0L67.6,38.2L67.6,38.2z"/>
		<path class="st4" d="M49.9,31.2L49.9,31.2l-0.6,0.1l0,0l0,0v6c0.6-0.3,0.6-1,0.6-1L49.9,31.2L49.9,31.2z"/>
		<path class="st4" d="M45.3,38.1L45.3,38.1l-0.2,0l0,0c0.2,0.5,0.6,0.7,1.1,0.7c0.7,0,1.5-0.3,1.5-1.7v-3.8l0,0l-0.5,0.1l-0.1,0
			v3.8c0,0.6-0.3,1-0.9,1C45.9,38.4,45.5,38.4,45.3,38.1z"/>
		<path class="st4" d="M79.4,33.4l-0.5,0.1c0,0-0.4-0.2-0.9-0.2c-0.8,0-1.6,0.5-1.6,1.4V36c0,0.9,0.6,1.4,1.3,1.4
			c0.8,0,1-0.5,1.1-0.6l0,0.3v0.3c0,0.6-0.3,1-0.9,1c-0.2,0-0.7,0-0.9-0.3l0,0l-0.1,0.1l0,0c0.2,0.5,0.6,0.7,1.1,0.7
			c0.7,0,1.5-0.3,1.5-1.7L79.4,33.4L79.4,33.4z M78.8,36.6c-0.1,0.1-0.3,0.2-0.8,0.2c-0.5,0-1-0.2-1-0.9v-1.1c0-0.6,0.5-0.9,0.9-0.9
			c0.5,0,0.8,0.3,0.8,0.8L78.8,36.6L78.8,36.6z"/>
		<path class="st4" d="M54.1,37.4h1.4c0.2,0.5,0.7,0.8,1.4,0.8c0.7,0,1.2-0.3,1.4-0.8l0.1,0l0,0l0.5,0l0.5,0l0,0l0.5,0l0.5-0.1l0,0
			l-0.2-0.7l0-5.3l0,0l-0.5,0.1l0,0l0,0v5.1l0.1,0.2l-1.3,0v-1.1c0-0.9-0.6-1.4-1.5-1.4c-0.9,0-1.5,0.5-1.5,1.4v1.1h-1.3v-3.3l0,0
			l-0.5,0.1c0,0-0.4-0.2-0.9-0.2c-0.8,0-1.6,0.5-1.6,1.4V36c0,0.9,0.6,1.4,1.3,1.4c0.8,0,1-0.5,1.1-0.6l0,0.3v0.3c0,0.6-0.3,1-0.9,1
			c-0.2,0-0.7,0-0.9-0.3l0,0l-0.1,0.1l0,0c0.2,0.5,0.6,0.7,1.1,0.7C53.3,38.9,54,38.6,54.1,37.4z M56,35.8c0-0.6,0.3-0.9,0.9-0.9
			c0.6,0,0.9,0.3,0.9,0.9v0.9c0,0.6-0.3,0.9-0.9,0.9c-0.6,0-0.9-0.3-0.9-0.9V35.8z M53.5,36.6c-0.1,0.1-0.3,0.2-0.8,0.2
			c-0.5,0-1-0.2-1-0.9v-1.1c0-0.6,0.5-0.9,0.9-0.9c0.5,0,0.8,0.3,0.8,0.8L53.5,36.6L53.5,36.6z"/>
		<path class="st4" d="M62.1,36.4v-5.1l-0.1,0l-0.5,0.1l0,0l0,0v6C62.1,37,62.1,36.4,62.1,36.4z"/>
		<path class="st4" d="M78.9,44.6c0,0-0.4-0.2-0.9-0.2c-0.8,0-1.6,0.5-1.6,1.4V47c0,0.9,0.6,1.4,1.3,1.4c0.8,0,1-0.5,1.1-0.6l0,0.3
			v0.3c0,0.6-0.3,1-0.9,1c-0.2,0-0.7,0-0.9-0.4l0,0l-0.1,0.1l0,0c0.2,0.5,0.6,0.7,1.1,0.7c0.7,0,1.5-0.3,1.5-1.7v-3.8l0,0L78.9,44.6
			z M78.8,47.6c-0.1,0.1-0.3,0.2-0.8,0.2c-0.5,0-1-0.2-1-0.9v-1.1c0-0.6,0.5-0.9,0.9-0.9c0.5,0,0.8,0.3,0.8,0.8L78.8,47.6L78.8,47.6
			z"/>
		<polygon class="st4" points="19.2,42.7 19.2,43.3 19.2,43.4 19.9,43.4 19.9,43.3 19.9,42.7 19.9,42.6 19.2,42.6 		"/>
		<polygon class="st4" points="18.1,42.6 18,42.7 18,43.3 18.1,43.4 18.7,43.4 18.8,43.3 18.8,42.7 18.7,42.6 		"/>
		<polygon class="st4" points="21.6,38 21.6,38.7 21.7,38.7 22.3,38.7 22.4,38.7 22.4,38 22.3,38 21.7,38 		"/>
		<polygon class="st4" points="20.5,38 20.5,38.7 20.6,38.7 21.2,38.7 21.3,38.7 21.3,38 21.2,38 20.6,38 		"/>
		<path class="st4" d="M29,47.4c-0.1,0-0.2,0.1-0.3,0.1c-0.1,0-0.2,0-0.2,0h-0.9c-0.3,0-0.5-0.1-0.6-0.2c-0.1-0.2-0.2-0.4-0.2-0.7
			v-1c0-0.3,0.1-0.5,0.2-0.7c0.2-0.2,0.4-0.2,0.6-0.2c0.3,0,0.5,0.1,0.6,0.2c0.1,0.1,0.2,0.4,0.2,0.6l0,0h0.6l0,0v-0.1
			c0-0.2,0-0.4-0.1-0.6c-0.1-0.2-0.2-0.3-0.3-0.4c-0.1-0.1-0.3-0.2-0.5-0.3c-0.2-0.1-0.4-0.1-0.6-0.1c-0.2,0-0.4,0-0.6,0.1
			c-0.2,0.1-0.3,0.1-0.5,0.3c-0.1,0.1-0.2,0.2-0.3,0.4c-0.1,0.2-0.1,0.4-0.1,0.6v1.3c0,0.3,0.1,0.6,0.2,0.8h-2v-3.3l0,0l-0.5,0.1
			l0,0v3.2h-3.3v-3.2l0,0l-0.5,0.1c-0.1,0-0.2-0.1-0.3-0.1c-0.1,0-0.2-0.1-0.3-0.1c-0.1,0-0.2,0-0.3,0c-0.2,0-0.4,0-0.6,0.1
			c-0.2,0.1-0.3,0.1-0.4,0.3c-0.1,0.1-0.2,0.2-0.3,0.4c-0.1,0.2-0.1,0.4-0.1,0.6v1.3c0,0.5,0.1,0.8,0.3,1c0.2,0.2,0.5,0.3,0.9,0.3
			c0.2,0,0.4,0,0.5-0.1c0.1,0,0.2-0.1,0.3-0.2c0.1-0.1,0.1-0.1,0.2-0.2c0-0.1,0.1-0.1,0.1-0.2l0,0.4v0.2h8.5c0.2,0,0.3,0,0.4-0.1
			c0.1,0,0.2-0.1,0.3-0.2c0.1-0.1,0.1-0.1,0.2-0.2c0-0.1,0.1-0.2,0.1-0.3l0-0.1C29.2,47.3,29.1,47.4,29,47.4z M19.8,47.4
			c0,0-0.1,0-0.2,0c-0.1,0-0.1,0-0.2,0.1c-0.1,0-0.2,0-0.2,0.1c-0.1,0-0.1,0-0.2,0c-0.1,0-0.2,0-0.3-0.1c-0.1,0-0.2-0.1-0.3-0.2
			c-0.1-0.1-0.1-0.2-0.2-0.3c0-0.1-0.1-0.3-0.1-0.4v-1.1c0-0.3,0.1-0.5,0.2-0.7c0.2-0.2,0.4-0.2,0.6-0.2c0.5,0,0.8,0.3,0.8,0.8V47.4
			z"/>
		<polygon class="st4" points="37.5,42.6 37.5,42.7 37.5,43.3 37.5,43.4 38.2,43.4 38.2,43.3 38.2,42.7 38.2,42.6 		"/>
		<polygon class="st4" points="39.3,43.4 39.3,43.3 39.3,42.7 39.3,42.6 38.7,42.6 38.6,42.7 38.6,43.3 38.7,43.4 		"/>
		<polygon class="st4" points="30.3,33.1 30.3,33 30.3,32.4 30.3,32.4 29.7,32.4 29.6,32.4 29.6,33 29.7,33.1 		"/>
		<polygon class="st4" points="30.7,32.4 30.7,33 30.8,33.1 31.4,33.1 31.5,33 31.5,32.4 31.4,32.4 30.8,32.4 		"/>
		<polygon class="st4" points="30.9,31.9 30.9,31.9 30.9,31.2 30.9,31.2 30.2,31.2 30.2,31.2 30.2,31.9 30.2,31.9 		"/>
		<polygon class="st4" points="41.6,49.1 41.6,49.2 41.6,49.8 41.6,49.9 42.3,49.9 42.3,49.8 42.3,49.2 42.3,49.1 		"/>
		<path class="st4" d="M43.6,45.5c0-0.2,0-0.4-0.1-0.6c-0.1-0.2-0.2-0.3-0.3-0.4c-0.1-0.1-0.3-0.2-0.5-0.3c-0.2-0.1-0.4-0.1-0.6-0.1
			h-0.6c-0.2,0-0.3,0-0.5,0.1c-0.1,0-0.2,0.1-0.3,0.2c-0.1,0.1-0.2,0.1-0.2,0.2c-0.1,0.1-0.1,0.1-0.1,0.2l0,0.1
			c0.1,0,0.2-0.1,0.3-0.1c0.1,0,0.2-0.1,0.3-0.1c0.1,0,0.2,0,0.2,0h0.8c0.3,0,0.5,0.1,0.6,0.2c0.1,0.2,0.2,0.4,0.2,0.7v1.9l0,0h-4.3
			v-3.3l0,0l-0.5,0.1l0,0.1v3.2h-2.8v-1.1c0-0.9-0.6-1.4-1.5-1.4c-0.9,0-1.5,0.5-1.5,1.4v1.1h-1c-0.3,0-0.4-0.1-0.5-0.2
			c-0.2-0.2-0.2-0.4-0.2-0.7V42l0,0L30,42l0,0v4.7c0,0.2,0,0.4,0.1,0.6c0.1,0.2,0.2,0.3,0.3,0.4c0.1,0.1,0.3,0.2,0.5,0.3
			c0.2,0.1,0.3,0.1,0.5,0.1h1.1c0.2,0.5,0.7,0.8,1.4,0.8c0.7,0,1.2-0.3,1.4-0.8h8.1l0.5-0.1l0,0l-0.2-0.7V45.5z M34.7,47.5
			c0,0.6-0.3,0.9-0.9,0.9c-0.6,0-0.9-0.3-0.9-0.9v-0.9c0-0.6,0.3-0.9,0.9-0.9c0.5,0,0.9,0.3,0.9,0.9V47.5z"/>
		<path class="st4" d="M47.7,42L47.7,42l0,4.5c0,0.3-0.1,0.5-0.2,0.7s-0.4,0.2-0.6,0.2h-0.3l-0.1-0.2V42l0,0L45.9,42l0,0v5.4l0,0
			h-0.6c-0.1,0-0.1,0-0.2,0c-0.1,0-0.2,0-0.3-0.1c-0.1,0-0.2-0.1-0.3-0.1l0,0.1c0,0.1,0.1,0.2,0.1,0.3c0,0.1,0.1,0.1,0.2,0.2
			c0.1,0.1,0.2,0.1,0.3,0.2c0.1,0,0.3,0.1,0.4,0.1h1.3c0.2,0,0.4,0,0.6-0.1c0.2-0.1,0.3-0.1,0.5-0.3c0.1-0.1,0.2-0.3,0.3-0.4
			c0.1-0.2,0.1-0.4,0.1-0.6V42l0,0L47.7,42z"/>
		<polygon class="st4" points="49.6,42 49.5,42.1 49.5,48 49.6,48.1 50.1,48.1 50.2,48 50.2,42 50.1,42 		"/>
		<polygon class="st4" points="53.2,42.7 53.2,43.3 53.2,43.4 53.8,43.4 53.9,43.3 53.9,42.7 53.8,42.6 53.2,42.6 		"/>
		<polygon class="st4" points="54.3,42.7 54.3,43.3 54.3,43.4 55,43.4 55,43.3 55,42.7 55,42.6 54.3,42.6 		"/>
		<polygon class="st4" points="58.5,49.1 58.4,49.2 58.4,49.8 58.5,49.9 59.1,49.9 59.1,49.8 59.1,49.2 59.1,49.1 		"/>
		<polygon class="st4" points="59.6,49.1 59.5,49.2 59.5,49.8 59.6,49.9 60.2,49.9 60.3,49.8 60.3,49.2 60.2,49.1 		"/>
		<polygon class="st4" points="23.1,49.1 23.1,49.2 23.1,49.8 23.1,49.9 23.8,49.9 23.8,49.8 23.8,49.2 23.8,49.1 		"/>
		<polygon class="st4" points="24.2,49.1 24.2,49.2 24.2,49.8 24.2,49.9 24.9,49.9 24.9,49.8 24.9,49.2 24.9,49.1 		"/>
		<polygon class="st4" points="67.6,42.7 67.6,43.3 67.7,43.4 68.3,43.4 68.4,43.3 68.4,42.7 68.3,42.6 67.7,42.6 		"/>
		<polygon class="st4" points="69.5,42.7 69.5,43.3 69.6,43.4 70.2,43.4 70.3,43.3 70.3,42.7 70.2,42.6 69.6,42.6 		"/>
		<polygon class="st4" points="71.3,43.4 71.4,43.3 71.4,42.7 71.3,42.6 70.7,42.6 70.7,42.7 70.7,43.3 70.7,43.4 		"/>
		<path class="st4" d="M74.5,42.1L74.5,42.1L74.5,42.1l-0.1,6c0.6-0.3,0.6-1,0.6-1V42l-0.1,0L74.5,42.1z"/>
		<path class="st4" d="M73.2,42L73.2,42l-0.6,0.1l0,0l0,0v5.1l0.1,0.2h-1.9v-3.3l0,0l-0.6,0.1l0,0v3.2h-1.8v-3.3l0,0l-0.5,0.1l0,0
			v3.2h-3.2v-1.1c0-0.9-0.6-1.4-1.5-1.4c-0.9,0-1.5,0.5-1.5,1.4v1.1h-1.8v-3.3l0,0l-0.5,0.1l0,0.1v3.2h-3.5v-3.2l0,0L55,44.4
			c-0.1,0-0.2-0.1-0.3-0.1c-0.1,0-0.2-0.1-0.3-0.1c-0.1,0-0.2,0-0.3,0c-0.2,0-0.4,0-0.6,0.1c-0.2,0.1-0.3,0.1-0.4,0.3
			c-0.1,0.1-0.2,0.2-0.3,0.4c-0.1,0.2-0.1,0.4-0.1,0.6v1.3c0,0.4,0.1,0.8,0.3,1c0.2,0.2,0.5,0.3,0.9,0.3c0.2,0,0.4,0,0.5-0.1
			c0.1-0.1,0.2-0.1,0.3-0.2c0.1-0.1,0.1-0.1,0.2-0.2c0-0.1,0.1-0.1,0.1-0.1l0,0.3v0.2h6.7c0.2,0.5,0.7,0.8,1.4,0.8
			c0.7,0,1.2-0.3,1.4-0.8h8.5l0.5-0.1l0,0l-0.2-0.7L73.2,42z M54.9,47.4c0,0-0.1,0-0.2,0c-0.1,0-0.1,0-0.2,0.1c-0.1,0-0.2,0-0.2,0.1
			c-0.1,0-0.1,0-0.2,0c-0.1,0-0.2,0-0.3-0.1c-0.1,0-0.2-0.1-0.3-0.2c-0.1-0.1-0.1-0.2-0.2-0.3c0-0.1-0.1-0.3-0.1-0.4v-1.1
			c0-0.3,0.1-0.5,0.2-0.7c0.1-0.2,0.3-0.2,0.6-0.2c0.5,0,0.8,0.3,0.8,0.8L54.9,47.4L54.9,47.4z M63.9,47.5c0,0.6-0.3,0.9-0.9,0.9
			c-0.6,0-0.9-0.3-0.9-0.9v-0.9c0-0.6,0.3-0.9,0.9-0.9c0.6,0,0.9,0.3,0.9,0.9V47.5z"/>
		<path class="st4" d="M42.9,37.4L42.9,37.4l2.3,0l0.5-0.1l0,0l-0.2-0.7v-1.8c0-0.9-0.6-1.3-1.4-1.3h-0.6c-0.8,0-1,0.6-1,0.6l0,0.1
			l0,0c0.1-0.1,0.4-0.2,0.9-0.2h0.7c0.5,0,0.8,0.3,0.8,0.9v1.7l0.1,0.2h-2c-0.5,0-1-0.1-1.1-0.2l-0.1,0.1
			C41.9,36.8,42.2,37.3,42.9,37.4z"/>
		<polygon class="st4" points="34.8,38.2 34.8,38.8 34.9,38.9 35.5,38.9 35.6,38.8 35.6,38.2 35.5,38.2 34.9,38.2 		"/>
		<path class="st4" d="M39.9,36.4v-5.1l-0.1,0l-0.5,0.1l0,0l0,0v6C39.9,37,39.9,36.4,39.9,36.4z"/>
		<path class="st4" d="M30.7,36.8c0.1,0.1,0.4,0.6,1.1,0.6c0.4,0,0.8-0.2,1-0.6c0.1,0.2,0.4,0.6,1,0.6h0l0,0h3.8l0.5-0.1l0,0
			l-0.2-0.7l0-5.3l0,0l-0.5,0.1l0,0l0,0v5.1l0.1,0.2h-1.9v-3.3l0,0L35,33.5l0,0v3.2l-1.1,0c-0.4,0-0.8-0.1-1-0.1
			c0.1-0.2,0.1-0.3,0.1-0.6v-2h0l-0.1,0l-0.5,0.1l0,0l0,0v1.8c0,0.6-0.4,0.9-0.8,0.9c-0.2,0-0.6-0.1-0.8-0.2c0-0.2,0.1-0.3,0.1-0.5
			V34l0,0l-0.5,0.1l0,0l0,0h0v1.8c0,0.6-0.3,0.9-0.7,0.9c-0.2,0-0.6-0.1-0.8-0.2V34l0,0l-0.5,0.1l0,0l0,0v2.3l-0.1,0.3h-2.6v-3.3
			l0,0l-0.5,0.1l-0.1,0v3.8c0,0.6-0.3,1-0.9,1c-0.2,0-0.7,0-0.9-0.4l0,0l-0.1,0.1l0,0c0.2,0.5,0.6,0.7,1.1,0.7
			c0.7,0,1.5-0.3,1.5-1.5h3l0,0l0.2-0.6c0,0.1,0.3,0.6,1.1,0.6C30.2,37.4,30.5,37.2,30.7,36.8z"/>
		<polygon class="st4" points="19.7,32.6 19.8,32.5 19.8,31.9 19.7,31.8 19.1,31.8 19,31.9 19,32.5 19.1,32.6 		"/>
		<polygon class="st4" points="18.6,32.6 18.6,32.5 18.6,31.9 18.6,31.8 18,31.8 17.9,31.9 17.9,32.5 18,32.6 		"/>
		<path class="st4" d="M18.7,37.4c0.2,0,0.4,0,0.5-0.1c0.1,0,0.2-0.1,0.3-0.2c0.1-0.1,0.1-0.1,0.2-0.2c0-0.1,0.1-0.1,0.1-0.2l0,0.4
			v0.2h3l0,0l0.5-0.1l0,0l-0.2-0.7l0-3.1l0,0l-0.5,0.1l0,0l0,0v2.9l0.1,0.2h-2.2v-3.2l0,0l-0.5,0.1c-0.1,0-0.2-0.1-0.3-0.1
			c-0.1,0-0.2-0.1-0.3-0.1c-0.1,0-0.2,0-0.3,0c-0.2,0-0.4,0-0.6,0.1c-0.2,0.1-0.3,0.1-0.4,0.3c-0.1,0.1-0.2,0.2-0.3,0.4
			c-0.1,0.2-0.1,0.4-0.1,0.6V36c0,0.5,0.1,0.8,0.3,1C18.1,37.3,18.4,37.4,18.7,37.4z M18.2,34.8c0-0.3,0.1-0.5,0.2-0.7
			c0.2-0.2,0.4-0.2,0.6-0.2c0.5,0,0.8,0.3,0.8,0.8v1.9c0,0-0.1,0-0.2,0c-0.1,0-0.1,0-0.2,0.1c-0.1,0-0.2,0-0.2,0.1
			c-0.1,0-0.1,0-0.2,0c-0.1,0-0.2,0-0.3-0.1c-0.1,0-0.2-0.1-0.3-0.2c-0.1-0.1-0.1-0.2-0.2-0.3c0-0.1-0.1-0.3-0.1-0.4V34.8z"/>
	</g>
</g>
</svg>
