<svg id="Service-btn" xmlns="http://www.w3.org/2000/svg" width="397.433" height="334.88" viewBox="0 0 397.433 334.88">
  <defs>
    <style>
      .cls-1, .cls-3 {
        fill: #23bde1;
      }

      .cls-1 {
        mix-blend-mode: multiply;
        isolation: isolate;
      }

      .cls-2 {
        fill: #2e2e2e;
        font-size: 38px;
        font-family: PTSerif-Regular, PT Serif;
      }

      .cls-4 {
        fill: #edf8ea;
      }

      .cls-5 {
        fill: #656565;
      }

      .cls-6 {
        fill: #f89840;
      }
    </style>
  </defs>
  <g id="Group_531" data-name="Group 531" transform="translate(-129.567 -1627.12)">
    <path id="Path_1665" data-name="Path 1665" class="cls-1" d="M40.021,157.817A85.443,85.443,0,1,1,166.259,57.658a86.206,86.206,0,0,1-.446,56.871c-33.755,96.125-40.032,98.285-125.792,43.288" transform="translate(129.566 1639.004)"/>
    <text id="Therapy_Special_Education" data-name="Therapy &amp; Special Education" class="cls-2" transform="translate(217 1729.22)"><tspan x="0" y="39">Therapy &amp; </tspan><tspan x="0" y="95">Special Education</tspan></text>
    <path id="Polygon_1" data-name="Polygon 1" class="cls-3" d="M17.5,0,35,31H0Z" transform="translate(447 1927) rotate(90)"/>
    <path id="Polygon_2" data-name="Polygon 2" class="cls-3" d="M17.5,0,35,31H0Z" transform="translate(414 1927) rotate(90)"/>
    <path id="Polygon_3" data-name="Polygon 3" class="cls-3" d="M17.5,0,35,31H0Z" transform="translate(381 1927) rotate(90)"/>
    <g id="Therapy-and-Special-Education" transform="translate(196 1617.52)">
      <g id="Group_532" data-name="Group 532">
        <path id="Path_1672" data-name="Path 1672" class="cls-4" d="M86.5,50.8a18.692,18.692,0,0,0-8.2-15.5v-1A13.687,13.687,0,0,0,65.1,20.6a10.949,10.949,0,0,0-21.8-.5h-.1a10.66,10.66,0,0,0-21.3.7V21h-.6A12.4,12.4,0,0,0,8.9,33.4,6.6,6.6,0,0,0,9,34.8,18.515,18.515,0,0,0,.7,50.3a18.29,18.29,0,0,0,9.3,16,10.55,10.55,0,0,0-.4,3.1A12.291,12.291,0,0,0,21.9,81.7h.2a10.834,10.834,0,0,0,10.5,8.1A10.955,10.955,0,0,0,43.5,80a10.8,10.8,0,0,0,21.1,1.8h.3A12.867,12.867,0,0,0,77.8,68.9a14.919,14.919,0,0,0-.2-2.1A19.114,19.114,0,0,0,86.5,50.8Z"/>
      </g>
      <g id="Group_535" data-name="Group 535">
        <g id="Group_533" data-name="Group 533">
          <path id="Path_1673" data-name="Path 1673" class="cls-5" d="M86.5,56.2a18.128,18.128,0,0,0,.7-5.2h0v-.1a20.129,20.129,0,0,0-8-16v-.2A14.917,14.917,0,0,0,66.1,19.9,12.172,12.172,0,0,0,43.5,16,11.979,11.979,0,0,0,21,20.2h-.1A13.653,13.653,0,0,0,8.2,33.8v.6A19.441,19.441,0,0,0,0,50.3,9.7,9.7,0,0,0,.1,52a1.7,1.7,0,0,0,.1.7v.4a19.424,19.424,0,0,0,.7,3.3c0,.1,0,.1.1.2l.3.9a19.963,19.963,0,0,0,7.6,9.4,19.525,19.525,0,0,0-.2,2.3A13.492,13.492,0,0,0,21.4,82.7a12.366,12.366,0,0,0,11.5,8,12.163,12.163,0,0,0,10.7-6.3,11.983,11.983,0,0,0,10.5,6.1,12.174,12.174,0,0,0,11.3-7.7A14.258,14.258,0,0,0,78.9,68.6a5.7,5.7,0,0,0-.1-1.3A20.527,20.527,0,0,0,86.5,56.2ZM32.8,89.1a10.763,10.763,0,0,1-10.1-7l3.6-4.5a7.791,7.791,0,0,0,4.3,1.3,11.019,11.019,0,0,0,1.8-.2.765.765,0,0,0-.3-1.5,7.719,7.719,0,0,1-1.5.2c-3.1,0-5.6-2.2-5.6-4.9a4.645,4.645,0,0,1,.6-2.3.738.738,0,1,0-1.3-.7,5.792,5.792,0,0,0,.8,7.2l-3.6,4.6a12.128,12.128,0,0,1-11.4-12,12.31,12.31,0,0,1,.2-2A16.769,16.769,0,0,0,16.2,69h.1a.684.684,0,0,0,.7-.7.709.709,0,0,0-.7-.8A17.336,17.336,0,0,1,2.5,56.9c0-.1-.1-.1-.1-.2l-.3-.9a12.213,12.213,0,0,1-.6-2.6c0-.2-.1-.3-.1-.5s-.1-.5-.1-.7c0-.4-.1-.9-.1-1.3h0v-.2A18.2,18.2,0,0,1,7.9,36.4l3.8,3.2A5.667,5.667,0,0,0,11,44a5.094,5.094,0,0,0,.7,1.7.822.822,0,0,0,.6.4.6.6,0,0,0,.4-.1.714.714,0,0,0,.3-1,5.023,5.023,0,0,1-.5-1.3,4.279,4.279,0,0,1,.7-3.5c.1,0,.2-.1.3-.2a.367.367,0,0,0,.1-.3,4.385,4.385,0,0,1,4.5-1.2.728.728,0,0,0,.4-1.4,6.1,6.1,0,0,0-3-.1,6.384,6.384,0,0,0-2.9,1.6l-3.5-3c.1-.1.2-.1.3-.2,0-.4-.1-.9-.1-1.3A12.117,12.117,0,0,1,20.5,22l4,3.4A6.059,6.059,0,0,0,23,29.8a5.84,5.84,0,0,0,.4,1.8.752.752,0,0,0,.7.5h.3a.7.7,0,0,0,.4-1,3.079,3.079,0,0,1-.3-1.3A4.629,4.629,0,0,1,28.7,25a5.382,5.382,0,0,1,2.2.4.762.762,0,0,0,.6-1.4A2.772,2.772,0,0,0,29,23a5.6,5.6,0,0,0-2.9,1l-3.6-3A10.486,10.486,0,0,1,43,18.3v13c-1.6-1.8-4.4-2.8-8.2-2.8a.7.7,0,0,0,0,1.4c3.3,0,5.7.8,7.1,2.2a5.074,5.074,0,0,1,1.2,2.7v47A10.935,10.935,0,0,1,32.8,89.1Zm31.8-7.8h-.3a10.611,10.611,0,0,1-19.9,1.4V79a9.709,9.709,0,0,1,9.7-9.7.7.7,0,1,0,0-1.4,11.065,11.065,0,0,0-9.7,5.7V42.1c0-.3.4-5.4,8.9-5.4a.7.7,0,1,0,0-1.4c-4.9,0-7.5,1.6-8.9,3.3V17.4a10.624,10.624,0,0,1,9.7-6.2,10.762,10.762,0,0,1,10.6,9.1l-3.6,4.5a7.714,7.714,0,0,0-4.2-1.3,7.173,7.173,0,0,0-2.9.6.762.762,0,1,0,.6,1.4,5.932,5.932,0,0,1,2.3-.5,6.04,6.04,0,0,1,6,6.1.7.7,0,0,0,1.4,0,7.157,7.157,0,0,0-2.2-5.3l3.6-4.5A13.441,13.441,0,0,1,77.6,34.7v.9a18.54,18.54,0,0,1,7.5,20c0,.1,0,.2-.1.2,0,.2-.1.3-.2.5A17.352,17.352,0,0,1,68.3,68.4a.7.7,0,0,0,0,1.4,19.217,19.217,0,0,0,8.9-2.2v.9A12.592,12.592,0,0,1,64.6,81.3Z"/>
          <path id="Path_1674" data-name="Path 1674" class="cls-5" d="M29.9,42.5c-3.8,0-5.6-2.1-5.6-4.1a.7.7,0,1,0-1.4,0,5.5,5.5,0,0,0,3.8,5.1A6.561,6.561,0,0,0,23.6,49,.7.7,0,0,0,25,49a4.9,4.9,0,1,1,9.8,0,3.4,3.4,0,0,1-.1,1,.779.779,0,0,0,.6.9h.1a.661.661,0,0,0,.7-.6,5.7,5.7,0,0,0,.1-1.3A6.383,6.383,0,0,0,29.9,42.5Z"/>
          <path id="Path_1675" data-name="Path 1675" class="cls-5" d="M29.2,58.7a6.355,6.355,0,0,0-5,2.4.711.711,0,0,0,1.1.9,4.736,4.736,0,0,1,3.8-1.9A4.908,4.908,0,0,1,34,65a4.3,4.3,0,0,1-.7,2.5.751.751,0,0,0,.2,1,.6.6,0,0,0,.4.1.548.548,0,0,0,.6-.4,6.294,6.294,0,0,0,.9-3.3A6.1,6.1,0,0,0,29.2,58.7Z"/>
          <path id="Path_1676" data-name="Path 1676" class="cls-5" d="M19.5,58.6c-.3,0-.5.1-.8.1a4.354,4.354,0,0,1-4.3-4.4,4.55,4.55,0,0,1,1.9-3.7.721.721,0,0,0-.8-1.2,5.933,5.933,0,0,0-2.6,4.9,5.826,5.826,0,0,0,5.8,5.9,4.1,4.1,0,0,0,1.1-.1.779.779,0,0,0,.6-.9A.875.875,0,0,0,19.5,58.6Z"/>
        </g>
        <path id="Path_1677" data-name="Path 1677" class="cls-6" d="M58.2,64.9a.756.756,0,0,1-.4-.1.687.687,0,0,1-.3-.9l3.7-10.4h-3a.6.6,0,0,1-.6-.3.878.878,0,0,1-.1-.7L62,42.2a.67.67,0,0,1,.7-.4h7.9a.842.842,0,0,1,.7.4.755.755,0,0,1-.1.8l-6,7h4a1.012,1.012,0,0,1,.7.4.755.755,0,0,1-.1.8l-11,13.5A1.421,1.421,0,0,1,58.2,64.9ZM59.3,52h2.9a.713.713,0,0,1,.6.3.878.878,0,0,1,.1.7l-2.6,7.4,7.3-8.9h-4a.842.842,0,0,1-.7-.4.755.755,0,0,1,.1-.8l6-7H63.2Z"/>
        <g id="Group_534" data-name="Group 534">
          <path id="Path_1678" data-name="Path 1678" class="cls-6" d="M72.9,45.5a1.012,1.012,0,0,1-.7-.4.777.777,0,0,1,.3-1l3.4-1.7a.738.738,0,1,1,.7,1.3l-3.4,1.7A.438.438,0,0,1,72.9,45.5Z"/>
          <path id="Path_1679" data-name="Path 1679" class="cls-6" d="M76.3,57.3a.367.367,0,0,1-.3-.1l-4-1.9a.762.762,0,0,1,.6-1.4l4,1.9a.819.819,0,0,1,.4,1A.752.752,0,0,1,76.3,57.3Z"/>
        </g>
        <path id="Path_1680" data-name="Path 1680" class="cls-6" d="M54.9,50.8H35.4a.7.7,0,0,1,0-1.4H54.9a.7.7,0,0,1,0,1.4Z"/>
        <path id="Path_1681" data-name="Path 1681" class="cls-6" d="M99.3,50.8h-26a.7.7,0,0,1,0-1.4h26a.7.7,0,0,1,0,1.4Z"/>
        <path id="Path_1682" data-name="Path 1682" class="cls-6" d="M56.2,45.5a.367.367,0,0,1-.3-.1l-3.4-1.7a.738.738,0,1,1,.7-1.3l3.4,1.7a.693.693,0,0,1,.3,1A1.012,1.012,0,0,1,56.2,45.5Z"/>
        <path id="Path_1683" data-name="Path 1683" class="cls-6" d="M51.8,57.3a1.012,1.012,0,0,1-.7-.4.731.731,0,0,1,.4-1l4-1.9a.762.762,0,1,1,.6,1.4l-4,1.9C52.1,57.2,52,57.3,51.8,57.3Z"/>
      </g>
    </g>
  </g>
</svg>
