<svg id="Service-btn" xmlns="http://www.w3.org/2000/svg" xmlns:xlink="http://www.w3.org/1999/xlink" width="397.433" height="334.981" viewBox="0 0 397.433 334.981">
  <defs>
    <style>
      .cls-1 {
        fill: none;
      }

      .cls-2, .cls-4 {
        fill: #23bde1;
      }

      .cls-2 {
        mix-blend-mode: multiply;
        isolation: isolate;
      }

      .cls-3 {
        fill: #2e2e2e;
        font-size: 38px;
        font-family: PTSerif-Regular, PT Serif;
      }

      .cls-5 {
        fill: #edf8ea;
      }

      .cls-6 {
        clip-path: url(#clip-path);
      }

      .cls-7 {
        fill: #656565;
      }

      .cls-8 {
        fill: #f89840;
      }
    </style>
    <clipPath id="clip-path">
      <rect id="Rectangle_1497" data-name="Rectangle 1497" class="cls-1" width="87.239" height="81.201" transform="translate(0 0)"/>
    </clipPath>
  </defs>
  <g id="Group_531" data-name="Group 531" transform="translate(-129.567 -1627.019)">
    <path id="Path_1665" data-name="Path 1665" class="cls-2" d="M40.021,157.817A85.443,85.443,0,1,1,166.259,57.658a86.206,86.206,0,0,1-.446,56.871c-33.755,96.125-40.032,98.285-125.792,43.288" transform="translate(129.566 1639.004)"/>
    <text id="Community_Integration_Services" data-name="Community Integration Services" class="cls-3" transform="translate(217 1729.22)"><tspan x="0" y="39">Community </tspan><tspan x="0" y="95">Integration </tspan><tspan x="0" y="151">Services</tspan></text>
    <path id="Polygon_1" data-name="Polygon 1" class="cls-4" d="M17.5,0,35,31H0Z" transform="translate(447 1927) rotate(90)"/>
    <path id="Polygon_2" data-name="Polygon 2" class="cls-4" d="M17.5,0,35,31H0Z" transform="translate(414 1927) rotate(90)"/>
    <path id="Polygon_3" data-name="Polygon 3" class="cls-4" d="M17.5,0,35,31H0Z" transform="translate(381 1927) rotate(90)"/>
    <g id="Therapy-and-Special-Education" transform="translate(196 1617.419)">
      <g id="Group_532" data-name="Group 532">
        <path id="Path_1672" data-name="Path 1672" class="cls-5" d="M86.5,50.8a18.692,18.692,0,0,0-8.2-15.5v-1A13.687,13.687,0,0,0,65.1,20.6a10.949,10.949,0,0,0-21.8-.5h-.1a10.66,10.66,0,0,0-21.3.7V21h-.6A12.4,12.4,0,0,0,8.9,33.4,6.6,6.6,0,0,0,9,34.8,18.515,18.515,0,0,0,.7,50.3a18.29,18.29,0,0,0,9.3,16,10.55,10.55,0,0,0-.4,3.1A12.291,12.291,0,0,0,21.9,81.7h.2a10.834,10.834,0,0,0,10.5,8.1A10.955,10.955,0,0,0,43.5,80a10.8,10.8,0,0,0,21.1,1.8h.3A12.867,12.867,0,0,0,77.8,68.9a14.919,14.919,0,0,0-.2-2.1A19.114,19.114,0,0,0,86.5,50.8Z"/>
      </g>
      <g id="Group_536" data-name="Group 536" transform="translate(0 9.6)">
        <g id="Group_536-2" data-name="Group 536" class="cls-6">
          <path id="Path_1684" data-name="Path 1684" class="cls-7" d="M86.507,46.743a18.854,18.854,0,0,0,.731-5.191c0-.017-.008-.032-.009-.049s0-.062,0-.092a19.993,19.993,0,0,0-8.011-16c0-.068,0-.137,0-.207a14.909,14.909,0,0,0-13.1-14.837A12.233,12.233,0,0,0,43.453,6.417a11.973,11.973,0,0,0-22.5,4.231.661.661,0,0,0-.138.04A13.679,13.679,0,0,0,8.129,24.312c0,.195,0,.392.014.591A19.675,19.675,0,0,0,0,40.864c0,.555.032,1.105.077,1.653.019.238.041.474.068.71.014.118.034.235.051.352A18.243,18.243,0,0,0,.935,46.83c.022.071.046.141.07.211.106.316.212.631.335.939a19.82,19.82,0,0,0,7.575,9.376A13.138,13.138,0,0,0,8.7,59.7,13.571,13.571,0,0,0,21.362,73.226a12.24,12.24,0,0,0,22.187,1.653A12.115,12.115,0,0,0,65.322,73.3,14.248,14.248,0,0,0,78.777,59.09a12.43,12.43,0,0,0-.069-1.309,19.892,19.892,0,0,0,7.8-11.038M32.822,79.707A10.729,10.729,0,0,1,22.75,72.66l3.6-4.538a7.547,7.547,0,0,0,4.317,1.335,7.854,7.854,0,0,0,1.829-.214.747.747,0,0,0-.349-1.453,6.335,6.335,0,0,1-1.48.173c-3.1,0-5.618-2.22-5.618-4.949a4.44,4.44,0,0,1,.642-2.3.747.747,0,0,0-1.283-.766,6,6,0,0,0-.852,3.065,6.062,6.062,0,0,0,1.662,4.132l-3.639,4.582A12.052,12.052,0,0,1,10.194,59.7a11.716,11.716,0,0,1,.182-2.005,18.331,18.331,0,0,0,5.885,1.747.659.659,0,0,0,.088.005.747.747,0,0,0,.088-1.488A16.936,16.936,0,0,1,2.686,47.331l-.075-.192c-.11-.289-.2-.586-.3-.882a18.093,18.093,0,0,1-.606-2.624c-.024-.17-.051-.339-.071-.511-.028-.227-.05-.455-.07-.685-.034-.434-.062-.87-.062-1.312,0-.011-.006-.02-.006-.031,0-.077-.008-.153-.008-.23A18.177,18.177,0,0,1,8.17,26.777L12.01,30a5.984,5.984,0,0,0-.065,6.138.747.747,0,0,0,1.291-.752,4.485,4.485,0,0,1,.154-4.775.7.7,0,0,0,.42-.536,4.456,4.456,0,0,1,2.32-1.347,4.51,4.51,0,0,1,2.229.062.746.746,0,1,0,.412-1.435,6.017,6.017,0,0,0-2.969-.085,5.95,5.95,0,0,0-2.86,1.562L9.4,25.856c.1-.07.2-.146.3-.214A12.133,12.133,0,0,1,20.821,12.189l4.026,3.377a5.992,5.992,0,0,0-1.154,6.156.746.746,0,0,0,.7.48.757.757,0,0,0,.267-.048.748.748,0,0,0,.431-.965,4.5,4.5,0,0,1,6.126-5.675.747.747,0,0,0,.64-1.35A5.965,5.965,0,0,0,26,14.582l-3.608-3.027A10.466,10.466,0,0,1,42.868,8.939V22.088c-.014-.017-.027-.034-.042-.05-1.645-1.833-4.4-2.763-8.192-2.763a.747.747,0,0,0,0,1.494c3.332,0,5.708.755,7.061,2.245a4.5,4.5,0,0,1,1.173,2.744V72.752a10.739,10.739,0,0,1-10.046,6.955m31.726-7.88c-.1,0-.194-.012-.294-.015a10.61,10.61,0,0,1-19.892,1.342V69.572a9.755,9.755,0,0,1,9.744-9.744.747.747,0,1,0,0-1.494A11.236,11.236,0,0,0,44.362,64V32.625c.019-.325.437-5.437,8.864-5.437a.747.747,0,0,0,0-1.493c-4.926,0-7.508,1.649-8.864,3.334V26.313a4.376,4.376,0,0,0,0-.6V7.946a10.723,10.723,0,0,1,20.325,2.928l-3.643,4.461a7.474,7.474,0,0,0-7.146-.7A.747.747,0,0,0,54.486,16a5.928,5.928,0,0,1,2.347-.479,6.086,6.086,0,0,1,6.038,6.118.747.747,0,1,0,1.494,0A7.627,7.627,0,0,0,62.188,16.3l3.633-4.452A13.454,13.454,0,0,1,77.729,25.2c0,.318-.026.629-.048.941a18.51,18.51,0,0,1,7.45,19.977c-.022.077-.043.153-.066.23-.046.17-.1.337-.152.505A17.382,17.382,0,0,1,68.391,58.906a.747.747,0,0,0,0,1.494,18.743,18.743,0,0,0,8.851-2.213c.023.3.043.6.043.9A12.738,12.738,0,0,1,64.548,71.827"/>
          <path id="Path_1685" data-name="Path 1685" class="cls-7" d="M29.859,33.043c-3.842,0-5.562-2.078-5.562-4.14a.747.747,0,0,0-1.493,0,5.463,5.463,0,0,0,3.768,5.079,6.429,6.429,0,0,0-3.061,5.482.747.747,0,0,0,1.493,0,4.856,4.856,0,1,1,9.71,0,5.017,5.017,0,0,1-.1.994.75.75,0,0,0,.585.881.833.833,0,0,0,.148.014.748.748,0,0,0,.732-.6,6.569,6.569,0,0,0,.128-1.29,6.392,6.392,0,0,0-6.348-6.421"/>
          <path id="Path_1686" data-name="Path 1686" class="cls-7" d="M29.168,49.277a6.336,6.336,0,0,0-5.014,2.44.747.747,0,0,0,1.175.922,4.879,4.879,0,0,1,8,5.556.747.747,0,1,0,1.274.78,6.373,6.373,0,0,0-5.436-9.7"/>
          <path id="Path_1687" data-name="Path 1687" class="cls-7" d="M19.478,49.2a4.257,4.257,0,0,1-.8.074,4.376,4.376,0,0,1-4.339-4.4,4.421,4.421,0,0,1,1.917-3.655.747.747,0,1,0-.843-1.233A5.911,5.911,0,0,0,18.679,50.77a5.7,5.7,0,0,0,1.077-.1.747.747,0,1,0-.278-1.467"/>
          <path id="Path_1688" data-name="Path 1688" class="cls-8" d="M44.771,33.931q1.245-2.161,2.489-4.321a.767.767,0,0,1,1.237-.325c.768.441,1.535.882,2.3,1.331a2.219,2.219,0,0,0,1.491.3,8.6,8.6,0,0,1,1.522-.023.437.437,0,0,1,.446.463.412.412,0,0,1-.385.479c-.8,0-1.6.119-2.393.044a2.921,2.921,0,0,1-1.178-.429c-.672-.391-1.349-.773-2.016-1.172-.171-.1-.243-.085-.343.09q-.975,1.719-1.977,3.422c-.112.19-.073.267.106.367.687.385,1.364.79,2.049,1.179A2.975,2.975,0,0,1,49.439,36.8,3.755,3.755,0,0,0,51.1,38.642c2.005,1.148,4,2.308,6,3.464a.8.8,0,0,0,.42.152.506.506,0,0,0,.508-.377.489.489,0,0,0-.22-.591c-.261-.173-.538-.321-.809-.478-.626-.362-1.254-.721-1.879-1.085-.34-.2-.439-.448-.3-.713s.439-.324.784-.127c1.065.613,2.129,1.229,3.229,1.864a2.789,2.789,0,0,1,.239-.982c.081-.143-.1-.165-.178-.212q-1.314-.768-2.634-1.527c-.065-.038-.133-.073-.2-.114a.486.486,0,1,1,.491-.834c1.013.578,2.029,1.152,3.027,1.754a1.405,1.405,0,0,0,.917.205c.161-.017.344.151.45.036.067-.072-.044-.285-.026-.428.029-.236-.083-.339-.272-.446-1.164-.661-2.321-1.335-3.481-2-.172-.1-.333-.205-.356-.428a.462.462,0,0,1,.188-.455.5.5,0,0,1,.578,0l2.272,1.312.716.41a1.836,1.836,0,0,1,.014-1.069c.071-.186-.1-.212-.2-.271q-1.485-.863-2.974-1.717c-.084-.049-.17-.1-.249-.15a.462.462,0,0,1-.212-.532.442.442,0,0,1,.443-.357c.281-.014.564,0,.842-.028a1.076,1.076,0,0,0,.937-.783c.077-.215.02-.276-.208-.274-.93.011-1.859,0-2.789.006A.588.588,0,0,1,55.7,31.7a.486.486,0,0,1,.362-.816c1.081,0,2.162-.013,3.242.006a.921.921,0,0,1,.885,1.089A2.1,2.1,0,0,1,59.18,33.6c-.061.038-.123.075-.23.139l1.9,1.1a2.968,2.968,0,0,1-.186-.637,1.526,1.526,0,0,1,.837-1.523q3.047-1.752,6.087-3.514a4.76,4.76,0,0,1,1.951-.648,3.754,3.754,0,0,1,.9.012,2.255,2.255,0,0,0,1.524-.305c.77-.458,1.549-.9,2.326-1.348a.745.745,0,0,1,1.168.305q1.179,2.031,2.349,4.067a.741.741,0,0,1-.307,1.166c-.783.458-1.567.914-2.357,1.359a2.157,2.157,0,0,0-.977,1.085,9,9,0,0,1-.617,1.138.5.5,0,0,1-.684.235.482.482,0,0,1-.162-.7c.267-.469.513-.949.758-1.43A2.781,2.781,0,0,1,74.6,32.968c.692-.4,1.38-.806,2.079-1.192.2-.113.211-.2.1-.394q-.986-1.676-1.942-3.366c-.112-.2-.2-.226-.392-.11-.686.41-1.382.8-2.073,1.2A3.031,3.031,0,0,1,70.4,29.5a3.274,3.274,0,0,0-2.1.389c-2.121,1.206-4.232,2.431-6.344,3.652a.53.53,0,0,0-.256.763.539.539,0,0,0,.788.159c.891-.507,1.778-1.022,2.666-1.536a.485.485,0,0,1,.626.04.466.466,0,0,1,.114.536.669.669,0,0,1-.35.322q-1.782,1.027-3.562,2.057a2.586,2.586,0,0,0-.3.186.517.517,0,0,0-.132.695.5.5,0,0,0,.647.216,1.819,1.819,0,0,0,.287-.149L65.99,34.8a2.605,2.605,0,0,1,.284-.155.447.447,0,0,1,.613.194.441.441,0,0,1-.134.629,6.424,6.424,0,0,1-.583.35q-1.921,1.11-3.842,2.22c-.143.083-.322.14-.362.37a1.51,1.51,0,0,1,1.31.2c.141.1.223-.019.316-.072q1.728-.991,3.452-1.99a1.583,1.583,0,0,1,.255-.139.466.466,0,0,1,.616.206.441.441,0,0,1-.148.626c-.2.143-.424.257-.639.381l-2.42,1.4a1.9,1.9,0,0,1,.934.566c.117.138.218,0,.308-.054q1.5-.859,3-1.73c.075-.043.149-.087.226-.126a.483.483,0,0,1,.656.662c-.108.211-.24.41-.349.62a1.111,1.111,0,0,0,.139,1.271c.151.178.245.218.384-.033.449-.813.924-1.611,1.388-2.415.044-.075.083-.153.132-.223a.477.477,0,0,1,.649-.18.464.464,0,0,1,.192.644c-.574,1.015-1.149,2.03-1.757,3.024a.861.861,0,0,1-1.233.23,2.134,2.134,0,0,1-1.009-2.011l-1.83,1.052c.022.039.029.068.041.07a1.509,1.509,0,0,1,1.426,1.682c0,2.313-.007,4.627,0,6.94a4.636,4.636,0,0,1-.936,2.9,2.176,2.176,0,0,0-.439,1.361q0,1.362,0,2.724c0,.58-.251.84-.823.842q-2.367.007-4.734,0c-.575,0-.831-.257-.835-.833-.006-.887-.009-1.773,0-2.659a2.248,2.248,0,0,0-.489-1.507,1.5,1.5,0,0,1-.243-.381.48.48,0,0,1,.81-.5,3.508,3.508,0,0,1,.9,2.336c-.02.767,0,1.535-.007,2.3,0,.212.065.276.276.275q1.962-.012,3.923,0c.2,0,.261-.056.259-.256-.01-.779,0-1.557,0-2.335a3.088,3.088,0,0,1,.624-1.937,3.63,3.63,0,0,0,.749-2.263c-.006-2.345,0-4.691,0-7.036,0-.043,0-.087,0-.13a.529.529,0,1,0-1.057.015c-.007.984,0,1.967,0,2.951a1.41,1.41,0,0,1-.011.291.482.482,0,0,1-.958-.036,2.824,2.824,0,0,1,0-.291c0-1.406,0-2.811,0-4.216,0-.455-.327-.73-.705-.6-.3.106-.372.358-.371.651q0,2.058,0,4.118c0,.1,0,.195,0,.292a.482.482,0,1,1-.964.027,2.578,2.578,0,0,1-.006-.292v-4.7a2.915,2.915,0,0,0-.009-.324.522.522,0,0,0-.513-.487.547.547,0,0,0-.532.475,2.33,2.33,0,0,0-.009.324q0,2.384,0,4.767a1.294,1.294,0,0,1-.025.353.45.45,0,0,1-.479.357.458.458,0,0,1-.46-.42,1.764,1.764,0,0,1-.007-.291q0-2.059,0-4.118a1.386,1.386,0,0,0-.023-.354.491.491,0,0,0-.52-.4.483.483,0,0,0-.505.414,1.838,1.838,0,0,0-.025.386q0,2.514,0,5.026c0,.1,0,.195,0,.292a.485.485,0,0,1-.923.229c-.115-.195-.219-.4-.344-.586a1.094,1.094,0,0,0-1.142-.509c-.245.033-.343.09-.183.358.618,1.04,1.215,2.092,1.819,3.139.038.065.078.13.111.2a.485.485,0,1,1-.839.483c-.1-.164-.194-.337-.291-.505-.583-1.01-1.169-2.019-1.748-3.031a.938.938,0,0,1,.505-1.469,2.058,2.058,0,0,1,1.726.042c.1.045.189.094.314.157V42.562c-.091-.014-.106.066-.144.109a1.488,1.488,0,0,1-1.957.347q-3.147-1.8-6.284-3.628a4.379,4.379,0,0,1-1.873-2.127,2.264,2.264,0,0,0-1.024-1.126c-.736-.41-1.458-.845-2.192-1.257a1.441,1.441,0,0,1-.6-.56Z"/>
        </g>
      </g>
    </g>
  </g>
</svg>
