<svg id="Service-btn" xmlns="http://www.w3.org/2000/svg" xmlns:xlink="http://www.w3.org/1999/xlink" width="397.433" height="423.252" viewBox="0 0 397.433 423.252">
  <defs>
    <style>
      .cls-1 {
        fill: none;
      }

      .cls-2 {
        fill: #69c54d;
        mix-blend-mode: multiply;
        isolation: isolate;
      }

      .cls-3 {
        fill: #2e2e2e;
        font-size: 38px;
        font-family: PTSerif-Regular, PT Serif;
      }

      .cls-4 {
        fill: #f89940;
      }

      .cls-5 {
        clip-path: url(#clip-path);
      }

      .cls-6 {
        fill: #656565;
      }

      .cls-7 {
        fill: #edf8ea;
      }
    </style>
    <clipPath id="clip-path">
      <rect id="Rectangle_1498" data-name="Rectangle 1498" class="cls-1" width="185.717" height="169.472"/>
    </clipPath>
  </defs>
  <g id="Group_531" data-name="Group 531" transform="translate(-129.567 -1538.748)">
    <path id="Path_1665" data-name="Path 1665" class="cls-2" d="M40.021,157.817A85.443,85.443,0,1,1,166.259,57.658a86.206,86.206,0,0,1-.446,56.871c-33.755,96.125-40.032,98.285-125.792,43.288" transform="translate(129.566 1639.004)"/>
    <text id="Let_us_Help" data-name="Let us Help" class="cls-3" transform="translate(217 1729.22)"><tspan x="0" y="39">Let us Help</tspan></text>
    <path id="Polygon_1" data-name="Polygon 1" class="cls-4" d="M17.5,0,35,31H0Z" transform="translate(447 1927) rotate(90)"/>
    <path id="Polygon_2" data-name="Polygon 2" class="cls-4" d="M17.5,0,35,31H0Z" transform="translate(414 1927) rotate(90)"/>
    <path id="Polygon_3" data-name="Polygon 3" class="cls-4" d="M17.5,0,35,31H0Z" transform="translate(381 1927) rotate(90)"/>
    <g id="Group_537" data-name="Group 537" transform="translate(196 1538.748)">
      <g id="Group_537-2" data-name="Group 537" class="cls-5">
        <path id="Path_1689" data-name="Path 1689" class="cls-6" d="M114.306,113.594a24.813,24.813,0,0,0,.974-6.879c0-.024-.012-.042-.014-.066,0-.04,0-.08,0-.12a26.42,26.42,0,0,0-10.587-21.145c0-.089,0-.18,0-.272A19.7,19.7,0,0,0,87.376,65.505,16.166,16.166,0,0,0,57.42,60.288a15.822,15.822,0,0,0-29.739,5.591,1.034,1.034,0,0,0-.185.053,18.077,18.077,0,0,0-16.755,18q0,.385.019.78A26,26,0,0,0,0,105.807c0,.731.042,1.457.1,2.178.024.319.055.635.091.949.019.15.042.3.063.449a24.263,24.263,0,0,0,.977,4.308c.03.093.062.184.093.276.141.417.281.835.445,1.242A26.183,26.183,0,0,0,11.78,127.6a17.51,17.51,0,0,0-.282,3.1A17.935,17.935,0,0,0,28.23,148.571a16.173,16.173,0,0,0,29.317,2.183,16.008,16.008,0,0,0,28.771-2.086A18.829,18.829,0,0,0,104.1,129.891a17.066,17.066,0,0,0-.092-1.73,26.274,26.274,0,0,0,10.3-14.567m-70.933,43.54a14.182,14.182,0,0,1-13.311-9.311l4.762-6a9.976,9.976,0,0,0,5.7,1.765,10.321,10.321,0,0,0,2.418-.285.987.987,0,0,0-.462-1.92,8.357,8.357,0,0,1-1.956.231c-4.093,0-7.423-2.935-7.423-6.541a5.936,5.936,0,0,1,.848-3.038.987.987,0,1,0-1.695-1.012,7.907,7.907,0,0,0-1.127,4.049,8.013,8.013,0,0,0,2.2,5.461l-4.808,6.054A15.924,15.924,0,0,1,13.471,130.7a15.419,15.419,0,0,1,.241-2.65,24.188,24.188,0,0,0,7.775,2.309.947.947,0,0,0,.117.007.987.987,0,0,0,.115-1.967A22.382,22.382,0,0,1,3.549,114.351c-.033-.085-.067-.168-.1-.253-.145-.382-.265-.774-.39-1.164a23.734,23.734,0,0,1-.8-3.475c-.034-.221-.067-.441-.094-.664-.038-.3-.067-.609-.094-.915-.043-.572-.08-1.148-.08-1.73,0-.014-.008-.026-.008-.038,0-.1-.011-.2-.011-.306A24.022,24.022,0,0,1,10.8,87.193l5.074,4.257a7.9,7.9,0,0,0-.084,8.112.987.987,0,1,0,1.7-1,5.932,5.932,0,0,1,.205-6.307.975.975,0,0,0,.355-.266.959.959,0,0,0,.2-.441,5.926,5.926,0,0,1,6.01-1.7.987.987,0,1,0,.547-1.9,7.877,7.877,0,0,0-7.7,1.953l-4.687-3.933c.135-.093.264-.192.4-.282a16.029,16.029,0,0,1,14.7-17.776l5.315,4.46c-.013.015-.029.029-.042.043a7.922,7.922,0,0,0-1.478,8.093.986.986,0,1,0,1.843-.7,5.946,5.946,0,0,1,8.1-7.5.987.987,0,0,0,.847-1.783,7.908,7.908,0,0,0-7.745.55l-4.764-4a13.832,13.832,0,0,1,27.064-3.455V81c-.02-.022-.036-.043-.055-.066-2.174-2.422-5.817-3.651-10.827-3.651a.987.987,0,1,0,0,1.974c4.4,0,7.544,1,9.332,2.968a5.944,5.944,0,0,1,1.55,3.625v62.1a14.191,14.191,0,0,1-13.276,9.191m41.922-10.413c-.13,0-.257-.017-.387-.02a14.02,14.02,0,0,1-26.285,1.773v-4.733A12.89,12.89,0,0,1,71.5,130.866a.987.987,0,0,0,0-1.974,14.85,14.85,0,0,0-12.876,7.483V94.919c.024-.428.574-7.183,11.712-7.183a.987.987,0,0,0,0-1.974c-6.508,0-9.92,2.179-11.712,4.406V86.579a6.111,6.111,0,0,0,0-.8V62.308a14.169,14.169,0,0,1,26.856,3.87l-4.813,5.895a9.867,9.867,0,0,0-9.444-.93A.987.987,0,1,0,72,72.956a7.827,7.827,0,0,1,3.1-.633,8.041,8.041,0,0,1,7.979,8.084.987.987,0,1,0,1.974,0,10.077,10.077,0,0,0-2.878-7.063l4.8-5.883a17.782,17.782,0,0,1,15.735,17.65c0,.419-.035.831-.063,1.243a24.455,24.455,0,0,1,9.842,26.4c-.027.1-.055.2-.083.293-.063.229-.134.454-.2.679a22.97,22.97,0,0,1-21.831,15.922.987.987,0,0,0,0,1.974,24.749,24.749,0,0,0,11.695-2.925c.032.395.056.792.056,1.194a16.83,16.83,0,0,1-16.831,16.831" transform="translate(0 -0.678)"/>
        <path id="Path_1690" data-name="Path 1690" class="cls-6" d="M39.7,97.308c-5.077,0-7.35-2.747-7.35-5.469a.987.987,0,0,0-1.974,0,7.217,7.217,0,0,0,4.98,6.709,8.5,8.5,0,0,0-4.045,7.244.987.987,0,0,0,1.974,0,6.416,6.416,0,1,1,12.83,0,6.652,6.652,0,0,1-.13,1.316.986.986,0,0,0,.771,1.163.963.963,0,0,0,.2.02.987.987,0,0,0,.966-.792,8.648,8.648,0,0,0,.17-1.706A8.446,8.446,0,0,0,39.7,97.308" transform="translate(-0.398 -1.189)"/>
        <path id="Path_1691" data-name="Path 1691" class="cls-6" d="M38.963,117.787a8.374,8.374,0,0,0-6.626,3.224.987.987,0,0,0,1.552,1.218,6.447,6.447,0,0,1,10.574,7.341.987.987,0,1,0,1.683,1.033,8.421,8.421,0,0,0-7.183-12.816" transform="translate(-0.421 -1.542)"/>
        <path id="Path_1692" data-name="Path 1692" class="cls-6" d="M25.964,117.524a5.7,5.7,0,0,1-1.056.1,5.837,5.837,0,0,1-3.2-10.649.987.987,0,0,0-1.115-1.629A7.811,7.811,0,0,0,24.908,119.6a7.607,7.607,0,0,0,1.423-.133.987.987,0,0,0-.367-1.939" transform="translate(-0.225 -1.377)"/>
        <path id="Path_1693" data-name="Path 1693" class="cls-7" d="M85.5,91.331a16.441,16.441,0,1,0,16.441,16.442A16.442,16.442,0,0,0,85.5,91.331m0,22.795a6.353,6.353,0,1,1,6.352-6.353,6.354,6.354,0,0,1-6.352,6.353" transform="translate(-0.904 -1.196)"/>
        <path id="Path_1694" data-name="Path 1694" class="cls-6" d="M114.405,171.091A29.725,29.725,0,0,1,84.714,141.4V124.638a.987.987,0,0,1,1.974,0V141.4a27.717,27.717,0,1,0,55.435,0V126.369a.987.987,0,1,1,1.974,0V141.4a29.725,29.725,0,0,1-29.691,29.691" transform="translate(-1.109 -1.619)"/>
        <path id="Path_1695" data-name="Path 1695" class="cls-4" d="M131.39,77.746c-16.63-19.109-18.478-29.272-19.15-30.279s-2.856-4.62-7.392-2.855S103,52.591,103,52.591C112.575,82.828,137.479,94.8,137.479,94.8v24.217a5.858,5.858,0,0,0,11.717,0V94.8s24.9-11.969,34.48-42.206c0,0,2.687-6.216-1.848-7.979s-6.719,1.847-7.391,2.855-2.52,11.171-19.15,30.279Z" transform="translate(-1.338 -0.578)"/>
        <path id="Path_1696" data-name="Path 1696" class="cls-4" d="M131,0h-7.517a3.154,3.154,0,0,0-3.149,3.15v2.5c-3.087.02-12.157.7-17.27,7.723-4.9,6.727-4.618,17.164.834,31.022a.986.986,0,0,0,.919.626.988.988,0,0,0,.918-1.349c-5.185-13.181-5.549-22.981-1.083-29.126,4.523-6.224,12.9-6.877,15.682-6.915v3.037a3.153,3.153,0,0,0,3.149,3.149H131a3.153,3.153,0,0,0,3.15-3.149V3.15A3.154,3.154,0,0,0,131,0m1.176,10.667A1.177,1.177,0,0,1,131,11.843h-7.517a1.177,1.177,0,0,1-1.175-1.175V3.15a1.178,1.178,0,0,1,1.175-1.176H131a1.178,1.178,0,0,1,1.176,1.176Z" transform="translate(-1.304 0)"/>
        <path id="Path_1697" data-name="Path 1697" class="cls-4" d="M184.248,13.373c-5.113-7.02-14.184-7.7-17.27-7.724V3.15A3.154,3.154,0,0,0,163.828,0H156.31a3.153,3.153,0,0,0-3.149,3.15v7.517a3.152,3.152,0,0,0,3.149,3.149h7.517a3.153,3.153,0,0,0,3.15-3.149V7.631c2.773.034,11.136.674,15.673,6.9,4.476,6.145,4.113,15.947-1.076,29.136a.987.987,0,0,0,1.838.723c5.453-13.858,5.732-24.3.835-31.022M165,10.667a1.177,1.177,0,0,1-1.176,1.175H156.31a1.176,1.176,0,0,1-1.175-1.175V3.15a1.177,1.177,0,0,1,1.175-1.176h7.517A1.178,1.178,0,0,1,165,3.15Z" transform="translate(-2.005 0)"/>
        <path id="Path_1698" data-name="Path 1698" class="cls-4" d="M85.482,90.332a17.428,17.428,0,1,0,17.429,17.428A17.448,17.448,0,0,0,85.482,90.332m0,32.883a15.454,15.454,0,1,1,15.455-15.455,15.472,15.472,0,0,1-15.455,15.455" transform="translate(-0.891 -1.183)"/>
        <path id="Path_1699" data-name="Path 1699" class="cls-4" d="M85.616,100.553a7.34,7.34,0,1,0,7.34,7.341,7.348,7.348,0,0,0-7.34-7.341m0,12.706a5.366,5.366,0,1,1,5.366-5.366,5.372,5.372,0,0,1-5.366,5.366" transform="translate(-1.025 -1.316)"/>
      </g>
    </g>
  </g>
</svg>
